<svg preserveAspectRatio="xMidYMid slice" id="floor--svg"  viewBox="0 0 1440 810" version="1.0" xmlns="http://www.w3.org/2000/svg"><polygon  data-section_name="7" data-section="7" data-build="2" data-build_name="5" data-floor="2" data-type="floor" class="s3d-svg__build js-s3d-svg__build" points="680.03472391764,493.05554199219,668.39192708333,497.91666666667,667.89192708333,479.25,679.86805725098,473.88887532552"></polygon><polygon  data-section_name="8" data-section="8" data-build="2" data-build_name="5" data-floor="2" data-type="floor" class="s3d-svg__build js-s3d-svg__build" points="679.86805725098,473.88887532552,690.70139058431,469.55554199219,700.53472391764,470.88887532552,708.70139058431,469.72220865885,714.36805725098,467.72220865885,715.03472391764,462.88887532552,787.36805725098,430.16666666667,794.36805725098,430.83333333333,799.86805725098,427.83333333333,799.70139058431,419.83333333333,809.03472391764,415.61112467448,809.20139058431,432.5,800.36805725098,438.38887532552,799.20139058431,445.55554199219,788.70139058431,449.05554199219,715.03472391764,483.88887532552,711.70139058431,487.88887532552,701.20139058431,489.72220865885,692.03472391764,488.38887532552,680.03472391764,493.05554199219"></polygon><polygon  data-section_name="9" data-section="9" data-build="2" data-build_name="5" data-floor="2" data-type="floor" class="s3d-svg__build js-s3d-svg__build" points="809.03472391764,415.61112467448,820.36805725098,410.11112467448,826.53472391764,411.77779134115,834.03472391764,412.27779134115,840.03472391764,409.11112467448,841.03472391764,405.61112467448,903.20139058431,378.11112467448,909.86805725098,378.11112467448,914.36805725098,374.11112467448,913.03472391764,369.11112467448,919.70139058431,366.33333333333,918.53472391764,382.38887532552,912.36805725098,384.83333333333,912.36805725098,391.16666666667,839.20139058431,425.16666666667,830.03472391764,428.83333333333,818.70139058431,428.5,809.20139058431,432.5"></polygon><polygon  data-section_name="10" data-section="10" data-build="2" data-build_name="5" data-floor="2" data-type="floor" class="s3d-svg__build js-s3d-svg__build" points="919.70139058431,366.33333333333,935.03472391764,366.5,1055.7013905843,401.5,1077.0347239176,390.16666666667,1083.2013905843,391.5,1089.2013905843,390.83333333333,1095.368057251,388.16666666667,1094.368057251,404.38887532552,1089.7013905843,407.05554199219,1081.2013905843,407.88887532552,1075.368057251,407.72220865885,1055.368057251,417.05554199219,934.53472391764,383.05554199219,918.53472391764,382.38887532552"></polygon><polygon  data-section_name="8" data-section="8" data-build="2" data-build_name="5" data-floor="3" data-type="floor" class="s3d-svg__build js-s3d-svg__build" points="679.03472391764,457.55554199219,692.03472391764,452.38887532552,698.70139058431,454.88887532552,707.20139058431,453.05554199219,715.20139058431,449.72220865885,715.36805725098,445.72220865885,788.53472391764,414.38887532552,794.53472391764,413.72220865885,800.36805725098,410.88887532552,801.20139058431,402.38887532552,809.36805725098,399.05554199219,809.03472391764,415.61112467448,799.70139058431,419.83333333333,799.86805725098,427.83333333333,794.36805725098,430.83333333333,787.36805725098,430.16666666667,715.03472391764,462.88887532552,714.36805725098,467.72220865885,708.70139058431,469.72220865885,700.53472391764,470.88887532552,690.70139058431,469.55554199219,679.86805725098,473.88887532552"></polygon><polygon  data-section_name="9" data-section="9" data-build="2" data-build_name="5" data-floor="3" data-type="floor" class="s3d-svg__build js-s3d-svg__build" points="809.36805725098,399.05554199219,819.36805725098,394.88887532552,827.86805725098,395.72220865885,834.03472391764,396.38887532552,840.36805725098,394.22220865885,840.53472391764,389.72220865885,904.53472391764,361.72220865885,910.53472391764,362.22220865885,914.53472391764,359.72220865885,913.36805725098,352.88887532552,920.03472391764,350.38887532552,919.70139058431,366.33333333333,913.03472391764,369.11112467448,914.36805725098,374.11112467448,909.86805725098,378.11112467448,903.20139058431,378.11112467448,841.03472391764,405.61112467448,840.03472391764,409.11112467448,834.03472391764,412.27779134115,826.53472391764,411.77779134115,820.36805725098,410.11112467448,809.03472391764,415.61112467448"></polygon><polygon  data-section_name="10" data-section="10" data-build="2" data-build_name="5" data-floor="3" data-type="floor" class="s3d-svg__build js-s3d-svg__build" points="920.03472391764,350.38887532552,935.70139058431,351.88887532552,1057.2013905843,385.55554199219,1078.5347239176,374.55554199219,1085.0347239176,375.22220865885,1090.7013905843,374.55554199219,1096.0347239176,372.55554199219,1095.368057251,388.16666666667,1089.2013905843,390.83333333333,1083.2013905843,391.5,1077.0347239176,390.16666666667,1055.7013905843,401.5,935.03472391764,366.5,919.70139058431,366.33333333333"></polygon><polygon  data-section_name="8" data-section="8" data-build="2" data-build_name="5" data-floor="4" data-type="floor" class="s3d-svg__build js-s3d-svg__build" points="679.20139058431,439.83333333333,691.36805725098,434.83333333333,701.20139058431,437.16666666667,708.36805725098,435.83333333333,714.36805725098,433.16666666667,715.20139058431,428.83333333333,789.20139058431,397.5,794.53472391764,397.5,799.86805725098,394.5,800.53472391764,386.83333333333,809.70139058431,383.16666666667,809.36805725098,399.05554199219,801.20139058431,402.38887532552,800.36805725098,410.88887532552,794.53472391764,413.72220865885,788.53472391764,414.38887532552,715.36805725098,445.72220865885,715.20139058431,449.72220865885,707.20139058431,453.05554199219,698.70139058431,454.88887532552,692.03472391764,452.38887532552,679.03472391764,457.55554199219"></polygon><polygon  data-section_name="9" data-section="9" data-build="2" data-build_name="5" data-floor="4" data-type="floor" class="s3d-svg__build js-s3d-svg__build" points="809.70139058431,383.16666666667,820.03472391764,378.33333333333,828.53472391764,379.83333333333,835.03472391764,379.5,840.70139058431,377.5,841.36805725098,373.83333333333,903.20139058431,346.83333333333,909.86805725098,346.5,915.70139058431,343.83333333333,914.70139058431,338.16666666667,920.853515625,334.375,920.03472391764,350.38887532552,913.36805725098,352.88887532552,914.53472391764,359.72220865885,910.53472391764,362.22220865885,904.53472391764,361.72220865885,840.53472391764,389.72220865885,840.36805725098,394.22220865885,834.03472391764,396.38887532552,827.86805725098,395.72220865885,819.36805725098,394.88887532552,809.36805725098,399.05554199219"></polygon><polygon  data-section_name="10" data-section="10" data-build="2" data-build_name="5" data-floor="4" data-type="floor" class="s3d-svg__build js-s3d-svg__build" points="920.853515625,334.375,936.68684895833,335.20833333333,1059.0201822917,368.70833333333,1079.853515625,359.54166666667,1084.853515625,359.70833333333,1092.5201822917,359.20833333333,1098.0201822917,356.70833333333,1096.0347239176,372.55554199219,1090.7013905843,374.55554199219,1085.0347239176,375.22220865885,1078.5347239176,374.55554199219,1057.2013905843,385.55554199219,935.70139058431,351.88887532552,920.03472391764,350.38887532552"></polygon><polygon  data-section_name="8" data-section="8" data-build="2" data-build_name="5" data-floor="5" data-type="floor" class="s3d-svg__build js-s3d-svg__build" points="679.03472391764,422.44445800781,690.70139058431,416.94445800781,699.86805725098,419.11112467448,709.20139058431,418.44445800781,714.70139058431,415.77779134115,715.20139058431,411.61112467448,788.53472391764,380.44445800781,795.20139058431,380.27779134115,801.03472391764,377.77779134115,800.53472391764,371.11112467448,809.70139058431,365.61112467448,809.70139058431,383.16666666667,800.53472391764,386.83333333333,799.86805725098,394.5,794.53472391764,397.5,789.20139058431,397.5,715.20139058431,428.83333333333,714.36805725098,433.16666666667,708.36805725098,435.83333333333,701.20139058431,437.16666666667,691.36805725098,434.83333333333,679.20139058431,439.83333333333"></polygon><polygon  data-section_name="9" data-section="9" data-build="2" data-build_name="5" data-floor="5" data-type="floor" class="s3d-svg__build js-s3d-svg__build" points="809.70139058431,365.61112467448,821.36805725098,360.94445800781,828.53472391764,364.27779134115,835.36805725098,363.77779134115,841.70139058431,361.11112467448,841.70139058431,357.11112467448,905.20139058431,330.94445800781,910.53472391764,330.27779134115,916.03472391764,326.94445800781,915.03472391764,321.11112467448,921.52018229167,318.95833333333,920.853515625,334.375,914.70139058431,338.16666666667,915.70139058431,343.83333333333,909.86805725098,346.5,903.20139058431,346.83333333333,841.36805725098,373.83333333333,840.70139058431,377.5,835.03472391764,379.5,828.53472391764,379.83333333333,820.03472391764,378.33333333333,809.70139058431,383.16666666667"></polygon><polygon  data-section_name="10" data-section="10" data-build="2" data-build_name="5" data-floor="5" data-type="floor" class="s3d-svg__build js-s3d-svg__build" points="921.52018229167,318.95833333333,937.353515625,319.45833333333,1059.853515625,352.79166666667,1080.6868489583,342.625,1086.5201822917,343.79166666667,1093.6868489583,343.125,1098.6868489583,341.95833333333,1098.0201822917,356.70833333333,1092.5201822917,359.20833333333,1084.853515625,359.70833333333,1079.853515625,359.54166666667,1059.0201822917,368.70833333333,936.68684895833,335.20833333333,920.853515625,334.375"></polygon><polygon  data-section_name="7" data-section="7" data-build="2" data-build_name="5" data-floor="6" data-type="floor" class="s3d-svg__build js-s3d-svg__build" points="678.70139058431,404.38887532552,667.05859375,407.91666666667,667.39192708333,426.41666666667,679.03472391764,422.44445800781"></polygon><polygon  data-section_name="8" data-section="8" data-build="2" data-build_name="5" data-floor="6" data-type="floor" class="s3d-svg__build js-s3d-svg__build" points="678.70139058431,404.38887532552,692.03472391764,399.55554199219,700.53472391764,401.05554199219,708.53472391764,400.22220865885,714.70139058431,398.22220865885,716.53472391764,393.72220865885,789.03472391764,363.05554199219,794.70139058431,363.72220865885,801.70139058431,360.22220865885,801.70139058431,353.72220865885,810.53472391764,349.05554199219,809.70139058431,365.61112467448,800.53472391764,371.11112467448,801.03472391764,377.77779134115,795.20139058431,380.27779134115,788.53472391764,380.44445800781,715.20139058431,411.61112467448,714.70139058431,415.77779134115,709.20139058431,418.44445800781,699.86805725098,419.11112467448,690.70139058431,416.94445800781,679.03472391764,422.44445800781"></polygon><polygon  data-section_name="9" data-section="9" data-build="2" data-build_name="5" data-floor="6" data-type="floor" class="s3d-svg__build js-s3d-svg__build" points="810.53472391764,349.05554199219,820.03472391764,345.55554199219,829.20139058431,347.88887532552,841.20139058431,344.22220865885,842.70139058431,341.55554199219,905.70139058431,314.55554199219,910.53472391764,314.38887532552,916.70139058431,311.55554199219,915.86805725098,306.22220865885,922.353515625,303.79166666667,921.52018229167,318.95833333333,915.03472391764,321.11112467448,916.03472391764,326.94445800781,910.53472391764,330.27779134115,905.20139058431,330.94445800781,841.70139058431,357.11112467448,841.70139058431,361.11112467448,835.36805725098,363.77779134115,828.53472391764,364.27779134115,821.36805725098,360.94445800781,809.70139058431,365.61112467448"></polygon><polygon  data-section_name="10" data-section="10" data-build="2" data-build_name="5" data-floor="6" data-type="floor" class="s3d-svg__build js-s3d-svg__build" points="922.353515625,303.79166666667,938.68684895833,303.79166666667,1059.6868489583,336.95833333333,1082.0201822917,326.45833333333,1088.353515625,327.79166666667,1094.1868489583,326.95833333333,1100.6868489583,324.79166666667,1098.6868489583,341.95833333333,1093.6868489583,343.125,1086.5201822917,343.79166666667,1080.6868489583,342.625,1059.853515625,352.79166666667,937.353515625,319.45833333333,921.52018229167,318.95833333333"></polygon><polygon  data-section_name="5" data-section="5" data-build="2" data-build_name="5" data-floor="7" data-type="floor" class="s3d-svg__build js-s3d-svg__build" points="394.36805725098,481.44445800781,430.03472391764,496.44445800781,430.53472391764,501.11112467448,437.20139058431,504.44445800781,444.36805725098,504.44445800781,519.70139058431,536.77779134115,521.36805725098,542.27779134115,529.36805725098,544.11112467448,536.70139058431,544.27779134115,560.03472391764,554.94445800781,565.70139058431,551.77779134115,593.36805725098,562.44445800781,619.70139058431,549.77779134115,628.03472391764,549.11112467448,636.03472391764,546.11112467448,637.70139058431,541.77779134115,660.53472391764,529.77779134115,661.20139058431,549.77779134115,637.03472391764,562.94445800781,634.70139058431,568.27779134115,628.03472391764,570.94445800781,620.53472391764,571.11112467448,594.03472391764,583.11112467448,566.36805725098,573.44445800781,560.70139058431,576.11112467448,537.36805725098,565.61112467448,530.36805725098,566.11112467448,523.20139058431,563.11112467448,521.36805725098,558.11112467448,446.53472391764,524.94445800781,438.70139058431,525.11112467448,432.36805725098,522.11112467448,430.36805725098,516.11112467448,395.36805725098,501.61112467448"></polygon><polygon  data-section_name="8" data-section="8" data-build="2" data-build_name="5" data-floor="7" data-type="floor" class="s3d-svg__build js-s3d-svg__build" points="678.53472391764,386.5,690.70139058431,381.83333333333,699.86805725098,383.16666666667,706.70139058431,383.16666666667,711.70139058431,380.83333333333,715.70139058431,376.5,788.70139058431,345.83333333333,795.70139058431,346.33333333333,800.53472391764,345,800.03472391764,337.5,810.53472391764,332.83333333333,810.53472391764,349.05554199219,801.70139058431,353.72220865885,801.70139058431,360.22220865885,794.70139058431,363.72220865885,789.03472391764,363.05554199219,716.53472391764,393.72220865885,714.70139058431,398.22220865885,708.53472391764,400.22220865885,700.53472391764,401.05554199219,692.03472391764,399.55554199219,678.70139058431,404.38887532552"></polygon><polygon  data-section_name="9" data-section="9" data-build="2" data-build_name="5" data-floor="7" data-type="floor" class="s3d-svg__build js-s3d-svg__build" points="810.53472391764,332.83333333333,821.36805725098,329.16666666667,830.53472391764,330.5,842.03472391764,327.66666666667,843.20139058431,323.5,905.70139058431,298.33333333333,917.03472391764,297,915.70139058431,289.5,923.02018229167,287.79166666667,922.353515625,303.79166666667,915.86805725098,306.22220865885,916.70139058431,311.55554199219,910.53472391764,314.38887532552,905.70139058431,314.55554199219,842.70139058431,341.55554199219,841.20139058431,344.22220865885,829.20139058431,347.88887532552,820.03472391764,345.55554199219,810.53472391764,349.05554199219"></polygon><polygon  data-section_name="10" data-section="10" data-build="2" data-build_name="5" data-floor="7" data-type="floor" class="s3d-svg__build js-s3d-svg__build" points="923.02018229167,287.79166666667,938.853515625,288.125,1062.5201822917,319.29166666667,1082.853515625,311.125,1089.5201822917,311.79166666667,1102.1868489583,308.95833333333,1100.6868489583,324.79166666667,1094.1868489583,326.95833333333,1088.353515625,327.79166666667,1082.0201822917,326.45833333333,1059.6868489583,336.95833333333,938.68684895833,303.79166666667,922.353515625,303.79166666667"></polygon><polygon  data-section_name="5" data-section="5" data-build="2" data-build_name="5" data-floor="8" data-type="floor" class="s3d-svg__build js-s3d-svg__build" points="391.70139058431,460.44445800781,428.03472391764,476.44445800781,428.70139058431,480.27779134115,436.03472391764,483.11112467448,443.36805725098,483.11112467448,519.03472391764,515.77779134115,520.03472391764,520.27779134115,528.03472391764,523.77779134115,535.36805725098,523.61112467448,558.03472391764,532.55554199219,564.03472391764,529.88887532552,591.20139058431,540.88887532552,619.36805725098,527.22220865885,625.86805725098,527.72220865885,634.70139058431,525.05554199219,635.20139058431,520.38887532552,661.03472391764,507.72220865885,660.53472391764,529.77779134115,637.70139058431,541.77779134115,636.03472391764,546.11112467448,628.03472391764,549.11112467448,619.70139058431,549.77779134115,593.36805725098,562.44445800781,565.70139058431,551.77779134115,560.03472391764,554.94445800781,536.70139058431,544.27779134115,529.36805725098,544.11112467448,521.36805725098,542.27779134115,519.70139058431,536.77779134115,444.36805725098,504.44445800781,437.20139058431,504.44445800781,430.53472391764,501.11112467448,430.03472391764,496.44445800781,394.36805725098,481.44445800781"></polygon><polygon  data-section_name="8" data-section="8" data-build="2" data-build_name="5" data-floor="8" data-type="floor" class="s3d-svg__build js-s3d-svg__build" points="678.03472391764,368.5,691.20139058431,363,699.03472391764,365,707.86805725098,364.5,711.70139058431,363.16666666667,714.53472391764,358.5,787.86805725098,329.5,795.70139058431,328.5,801.86805725098,325.66666666667,800.70139058431,319.16666666667,811.03472391764,315.05554199219,810.53472391764,332.83333333333,800.03472391764,337.5,800.53472391764,345,795.70139058431,346.33333333333,788.70139058431,345.83333333333,715.70139058431,376.5,711.70139058431,380.83333333333,706.70139058431,383.16666666667,699.86805725098,383.16666666667,690.70139058431,381.83333333333,678.53472391764,386.5"></polygon><polygon  data-section_name="9" data-section="9" data-build="2" data-build_name="5" data-floor="8" data-type="floor" class="s3d-svg__build js-s3d-svg__build" points="811.03472391764,315.05554199219,821.86805725098,311.55554199219,829.86805725098,312.22220865885,837.20139058431,313.22220865885,843.03472391764,310.22220865885,843.86805725098,306.38887532552,906.70139058431,282.22220865885,912.36805725098,282.38887532552,918.03472391764,279.72220865885,917.20139058431,272.88887532552,923.853515625,271.45833333333,923.02018229167,287.79166666667,915.70139058431,289.5,917.03472391764,297,905.70139058431,298.33333333333,843.20139058431,323.5,842.03472391764,327.66666666667,830.53472391764,330.5,821.36805725098,329.16666666667,810.53472391764,332.83333333333"></polygon><polygon  data-section_name="10" data-section="10" data-build="2" data-build_name="5" data-floor="8" data-type="floor" class="s3d-svg__build js-s3d-svg__build" points="923.853515625,271.45833333333,940.02018229167,272.125,1064.0201822917,304.29166666667,1084.6868489583,293.125,1091.1868489583,294.79166666667,1103.353515625,291.29166666667,1102.1868489583,308.95833333333,1089.5201822917,311.79166666667,1082.853515625,311.125,1062.5201822917,319.29166666667,938.853515625,288.125,923.02018229167,287.79166666667"></polygon><polygon  data-section_name="8" data-section="8" data-build="2" data-build_name="5" data-floor="9" data-type="floor" class="s3d-svg__build js-s3d-svg__build" points="678.03472391764,350.22220865885,690.70139058431,345.05554199219,700.36805725098,347.05554199219,708.53472391764,346.55554199219,713.03472391764,344.22220865885,714.36805725098,340.55554199219,789.36805725098,311.55554199219,794.53472391764,312.38887532552,802.03472391764,309.55554199219,801.70139058431,301.88887532552,811.20139058431,298.55554199219,811.03472391764,315.05554199219,800.70139058431,319.16666666667,801.86805725098,325.66666666667,795.70139058431,328.5,787.86805725098,329.5,714.53472391764,358.5,711.70139058431,363.16666666667,707.86805725098,364.5,699.03472391764,365,691.20139058431,363,678.03472391764,368.5"></polygon><polygon  data-section_name="9" data-section="9" data-build="2" data-build_name="5" data-floor="9" data-type="floor" class="s3d-svg__build js-s3d-svg__build" points="811.20139058431,298.55554199219,821.70139058431,295.05554199219,829.86805725098,296.38887532552,842.36805725098,294.55554199219,843.20139058431,290.38887532552,906.70139058431,266.38887532552,913.20139058431,266.22220865885,918.53472391764,263.72220865885,918.03472391764,257.72220865885,924.68684895833,256.125,923.853515625,271.45833333333,917.20139058431,272.88887532552,918.03472391764,279.72220865885,912.36805725098,282.38887532552,906.70139058431,282.22220865885,843.86805725098,306.38887532552,843.03472391764,310.22220865885,837.20139058431,313.22220865885,829.86805725098,312.22220865885,821.86805725098,311.55554199219,811.03472391764,315.05554199219"></polygon><polygon  data-section_name="10" data-section="10" data-build="2" data-build_name="5" data-floor="9" data-type="floor" class="s3d-svg__build js-s3d-svg__build" points="924.68684895833,256.125,941.52018229167,256.45833333333,1065.5201822917,286.79166666667,1086.1868489583,276.45833333333,1091.6868489583,277.95833333333,1097.1868489583,277.125,1105.0201822917,275.625,1103.353515625,291.29166666667,1091.1868489583,294.79166666667,1084.6868489583,293.125,1064.0201822917,304.29166666667,940.02018229167,272.125,923.853515625,271.45833333333"></polygon><polygon  data-section_name="5" data-section="5" data-build="2" data-build_name="5" data-floor="10" data-type="floor" class="s3d-svg__build js-s3d-svg__build" points="389.36805725098,420.38887532552,424.70139058431,434.38887532552,426.03472391764,439.05554199219,434.36805725098,442.88887532552,442.70139058431,442.55554199219,517.36805725098,473.55554199219,519.03472391764,478.55554199219,526.36805725098,480.88887532552,532.36805725098,480.55554199219,557.03472391764,490.55554199219,563.36805725098,488.22220865885,591.20139058431,496.38887532552,618.03472391764,484.38887532552,627.03472391764,484.88887532552,633.03472391764,481.72220865885,635.86805725098,477.05554199219,659.70139058431,466.38887532552,660.36805725098,452.55554199219,668.36805725098,450.38887532552,667.70139058431,469.05554199219,660.70139058431,472.88887532552,660.03472391764,486.38887532552,636.03472391764,497.72220865885,633.70139058431,503.05554199219,627.03472391764,505.72220865885,619.86805725098,506.38887532552,591.20139058431,517.83333333333,564.03472391764,508.83333333333,557.20139058431,511.16666666667,533.03472391764,500.83333333333,527.03472391764,501.66666666667,521.36805725098,499.83333333333,518.53472391764,494.5,442.53472391764,462.16666666667,435.36805725098,462.83333333333,427.86805725098,460.83333333333,427.70139058431,455.16666666667,390.53472391764,440.83333333333"></polygon><polygon  data-section_name="8" data-section="8" data-build="2" data-build_name="5" data-floor="10" data-type="floor" class="s3d-svg__build js-s3d-svg__build" points="677.86805725098,331.88887532552,691.36805725098,326.88887532552,700.03472391764,328.88887532552,706.70139058431,327.72220865885,713.36805725098,326.88887532552,714.53472391764,322.88887532552,790.53472391764,294.38887532552,796.53472391764,294.55554199219,802.53472391764,292.38887532552,802.70139058431,285.72220865885,811.36805725098,281.5,811.20139058431,298.55554199219,801.70139058431,301.88887532552,802.03472391764,309.55554199219,794.53472391764,312.38887532552,789.36805725098,311.55554199219,714.36805725098,340.55554199219,713.03472391764,344.22220865885,708.53472391764,346.55554199219,700.36805725098,347.05554199219,690.70139058431,345.05554199219,678.03472391764,350.22220865885"></polygon><polygon  data-section_name="9" data-section="9" data-build="2" data-build_name="5" data-floor="10" data-type="floor" class="s3d-svg__build js-s3d-svg__build" points="811.36805725098,281.5,823.20139058431,277.16666666667,831.36805725098,278.5,837.86805725098,278.5,842.53472391764,276.33333333333,844.53472391764,272.27777099609,908.03472391764,249.11110432943,914.03472391764,249.61110432943,919.20139058431,246.77777099609,919.20139058431,240.94443766276,925.353515625,240.29166666667,924.68684895833,256.125,918.03472391764,257.72220865885,918.53472391764,263.72220865885,913.20139058431,266.22220865885,906.70139058431,266.38887532552,843.20139058431,290.38887532552,842.36805725098,294.55554199219,829.86805725098,296.38887532552,821.70139058431,295.05554199219,811.20139058431,298.55554199219"></polygon><polygon  data-section_name="10" data-section="10" data-build="2" data-build_name="5" data-floor="10" data-type="floor" class="s3d-svg__build js-s3d-svg__build" points="925.353515625,240.29166666667,942.52018229167,241.125,1066.1868489583,270.125,1087.1868489583,260.29166666667,1095.853515625,261.29166666667,1106.5201822917,258.95833333333,1105.0201822917,275.625,1097.1868489583,277.125,1091.6868489583,277.95833333333,1086.1868489583,276.45833333333,1065.5201822917,286.79166666667,941.52018229167,256.45833333333,924.68684895833,256.125"></polygon><polygon  data-section_name="5" data-section="5" data-build="2" data-build_name="5" data-floor="11" data-type="floor" class="s3d-svg__build js-s3d-svg__build" points="387.20139058431,399.16666666667,424.36805725098,414.33333333333,425.36805725098,418.83333333333,432.70139058431,421.16666666667,440.70139058431,420.16666666667,515.36805725098,451.5,517.36805725098,455.83333333333,525.20139058431,458.5,532.53472391764,458.33333333333,555.20139058431,467.83333333333,561.70139058431,465,590.53472391764,475,617.20139058431,463.66666666667,625.70139058431,462.5,632.36805725098,461.16666666667,634.53472391764,455.83333333333,659.20139058431,444.83333333333,658.70139058431,429.83333333333,667.39192708333,426.41666666667,668.36805725098,450.38887532552,660.36805725098,452.55554199219,659.70139058431,466.38887532552,635.86805725098,477.05554199219,633.03472391764,481.72220865885,627.03472391764,484.88887532552,618.03472391764,484.38887532552,591.20139058431,496.38887532552,563.36805725098,488.22220865885,557.03472391764,490.55554199219,532.36805725098,480.55554199219,526.36805725098,480.88887532552,519.03472391764,478.55554199219,517.36805725098,473.55554199219,442.70139058431,442.55554199219,434.36805725098,442.88887532552,426.03472391764,439.05554199219,424.70139058431,434.38887532552,389.36805725098,420.38887532552"></polygon><polygon  data-section_name="8" data-section="8" data-build="2" data-build_name="5" data-floor="11" data-type="floor" class="s3d-svg__build js-s3d-svg__build" points="676.53472391764,313.16666666667,691.03472391764,309,700.03472391764,310.83333333333,707.36805725098,309.83333333333,713.36805725098,307.5,714.36805725098,303.16666666667,789.20139058431,277.16666666667,797.20139058431,276.5,802.53472391764,273.16666666667,802.70139058431,266.5,811.86805725098,263.83333333333,811.36805725098,281.5,802.70139058431,285.72220865885,802.53472391764,292.38887532552,796.53472391764,294.55554199219,790.53472391764,294.38887532552,714.53472391764,322.88887532552,713.36805725098,326.88887532552,706.70139058431,327.72220865885,700.03472391764,328.88887532552,691.36805725098,326.88887532552,677.86805725098,331.88887532552"></polygon><polygon  data-section_name="9" data-section="9" data-build="2" data-build_name="5" data-floor="11" data-type="floor" class="s3d-svg__build js-s3d-svg__build" points="811.86805725098,263.83333333333,823.36805725098,260.5,831.20139058431,261.5,838.03472391764,261.83333333333,843.70139058431,260.5,844.36805725098,255.5,908.53472391764,232.83333333333,913.70139058431,232.83333333333,919.70139058431,230.83333333333,918.53472391764,223.83333333333,925.68684895833,222.95833333333,925.353515625,240.29166666667,919.20139058431,240.94443766276,919.20139058431,246.77777099609,914.03472391764,249.61110432943,908.03472391764,249.11110432943,844.53472391764,272.27777099609,842.53472391764,276.33333333333,837.86805725098,278.5,831.36805725098,278.5,823.20139058431,277.16666666667,811.36805725098,281.5"></polygon><polygon  data-section_name="10" data-section="10" data-build="2" data-build_name="5" data-floor="11" data-type="floor" class="s3d-svg__build js-s3d-svg__build" points="925.68684895833,222.95833333333,943.68684895833,224.45833333333,1068.0201822917,252.79166666667,1088.853515625,243.79166666667,1095.353515625,244.29166666667,1103.0201822917,242.79166666667,1108.0201822917,241.45833333333,1106.5201822917,258.95833333333,1095.853515625,261.29166666667,1087.1868489583,260.29166666667,1066.1868489583,270.125,942.52018229167,241.125,925.353515625,240.29166666667"></polygon><polygon  data-section_name="5" data-section="5" data-build="2" data-build_name="5" data-floor="12" data-type="floor" class="s3d-svg__build js-s3d-svg__build" points="386.53472391764,378.94445800781,421.86805725098,392.44445800781,423.20139058431,396.11112467448,430.53472391764,398.94445800781,437.86805725098,399.11112467448,515.20139058431,428.44445800781,516.36805725098,432.27779134115,522.70139058431,435.61112467448,530.03472391764,435.77779134115,555.86805725098,445.44445800781,562.03472391764,442.94445800781,590.70139058431,453.61112467448,615.86805725098,440.16666666667,625.36805725098,439.83333333333,632.53472391764,437.66666666667,633.86805725098,432.16666666667,659.03472391764,420.83333333333,659.20139058431,399.72220865885,665.20139058431,396.83333333333,667.05859375,407.91666666667,667.39192708333,426.41666666667,658.70139058431,429.83333333333,659.20139058431,444.83333333333,634.53472391764,455.83333333333,632.36805725098,461.16666666667,625.70139058431,462.5,617.20139058431,463.66666666667,590.53472391764,475,561.70139058431,465,555.20139058431,467.83333333333,532.53472391764,458.33333333333,525.20139058431,458.5,517.36805725098,455.83333333333,515.36805725098,451.5,440.70139058431,420.16666666667,432.70139058431,421.16666666667,425.36805725098,418.83333333333,424.36805725098,414.33333333333,387.20139058431,399.16666666667"></polygon><polygon  data-section_name="8" data-section="8" data-build="2" data-build_name="5" data-floor="12" data-type="floor" class="s3d-svg__build js-s3d-svg__build" points="675.86805725098,297.11112467448,691.36805725098,290.94445800781,699.03472391764,293.11112467448,707.86805725098,290.94445800781,714.70139058431,286.27779134115,791.03472391764,259.05556233724,802.03472391764,258.22222900391,803.03472391764,251.72222900391,811.86805725098,248.55556233724,811.86805725098,263.83333333333,802.70139058431,266.5,802.53472391764,273.16666666667,797.20139058431,276.5,789.20139058431,277.16666666667,714.36805725098,303.16666666667,713.36805725098,307.5,707.36805725098,309.83333333333,700.03472391764,310.83333333333,691.03472391764,309,676.53472391764,313.16666666667"></polygon><polygon  data-section_name="9" data-section="9" data-build="2" data-build_name="5" data-floor="12" data-type="floor" class="s3d-svg__build js-s3d-svg__build" points="811.86805725098,248.55556233724,822.53472391764,244.22222900391,828.53472391764,245.72222900391,833.86805725098,244.22222900391,843.20139058431,243.05556233724,845.36805725098,238.88889567057,910.70139058431,216.22222900391,920.70139058431,215.72222900391,921.20139058431,209.05556233724,927.353515625,207.95833333333,925.68684895833,222.95833333333,918.53472391764,223.83333333333,919.70139058431,230.83333333333,913.70139058431,232.83333333333,908.53472391764,232.83333333333,844.36805725098,255.5,843.70139058431,260.5,838.03472391764,261.83333333333,831.20139058431,261.5,823.36805725098,260.5,811.86805725098,263.83333333333"></polygon><polygon  data-section_name="10" data-section="10" data-build="2" data-build_name="5" data-floor="12" data-type="floor" class="s3d-svg__build js-s3d-svg__build" points="927.353515625,207.95833333333,944.853515625,207.95833333333,1068.853515625,235.45833333333,1090.0201822917,227.95833333333,1095.853515625,228.625,1103.353515625,226.45833333333,1109.6868489583,225.45833333333,1108.0201822917,241.45833333333,1103.0201822917,242.79166666667,1095.353515625,244.29166666667,1088.853515625,243.79166666667,1068.0201822917,252.79166666667,943.68684895833,224.45833333333,925.68684895833,222.95833333333"></polygon><polygon  data-section_name="5" data-section="5" data-build="2" data-build_name="5" data-floor="13" data-type="floor" class="s3d-svg__build js-s3d-svg__build" points="384.03472391764,359.22220865885,420.70139058431,371.88887532552,422.03472391764,376.22220865885,429.86805725098,378.38887532552,438.03472391764,378.22220865885,513.36805725098,406.38887532552,514.36805725098,411.55554199219,523.36805725098,414.38887532552,530.70139058431,414.38887532552,554.53472391764,422.38887532552,560.03472391764,420.22220865885,589.20139058431,429.55554199219,615.86805725098,418.22220865885,624.36805725098,418.38887532552,633.03472391764,415.72220865885,633.86805725098,410.88887532552,659.20139058431,399.72220865885,659.36805725098,383.05554199219,666.36805725098,379.72220865885,665.20139058431,396.83333333333,659.20139058431,399.72220865885,659.03472391764,420.83333333333,633.86805725098,432.16666666667,632.53472391764,437.66666666667,625.36805725098,439.83333333333,615.86805725098,440.16666666667,590.70139058431,453.61112467448,562.03472391764,442.94445800781,555.86805725098,445.44445800781,530.03472391764,435.77779134115,522.70139058431,435.61112467448,516.36805725098,432.27779134115,515.20139058431,428.44445800781,437.86805725098,399.11112467448,430.53472391764,398.94445800781,423.20139058431,396.11112467448,421.86805725098,392.44445800781,386.53472391764,378.94445800781"></polygon><polygon  data-section_name="7" data-section="7" data-build="2" data-build_name="5" data-floor="13" data-type="floor" class="s3d-svg__build js-s3d-svg__build" points="675.70139058431,277.11112467448,664.55859375,279.91666666667,664.89192708333,286.91666666667,657.89192708333,289.41666666667,651.39192708333,289.25,627.55859375,295.91666666667,659.89192708333,307.25,666.89192708333,305.25,667.05859375,298.91666666667,675.86805725098,297.11112467448"></polygon><polygon  data-section_name="8" data-section="8" data-build="2" data-build_name="5" data-floor="13" data-type="floor" class="s3d-svg__build js-s3d-svg__build" points="675.70139058431,277.11112467448,689.86805725098,271.11112467448,699.03472391764,272.27779134115,708.70139058431,272.27779134115,714.03472391764,270.27779134115,714.03472391764,266.44445800781,791.03472391764,241.61112467448,797.70139058431,240.94445800781,803.03472391764,239.11112467448,803.03472391764,231.61112467448,811.86805725098,230.38889567057,811.86805725098,248.55556233724,803.03472391764,251.72222900391,802.03472391764,258.22222900391,791.03472391764,259.05556233724,714.70139058431,286.27779134115,707.86805725098,290.94445800781,699.03472391764,293.11112467448,691.36805725098,290.94445800781,675.86805725098,297.11112467448"></polygon><polygon  data-section_name="9" data-section="9" data-build="2" data-build_name="5" data-floor="13" data-type="floor" class="s3d-svg__build js-s3d-svg__build" points="811.86805725098,230.38889567057,823.20139058431,224.55556233724,835.86805725098,226.38889567057,842.03472391764,225.88889567057,845.36805725098,221.88889567057,910.53472391764,199.72222900391,917.36805725098,200.38889567057,921.03472391764,197.55556233724,922.03472391764,191.72222900391,928.18684895833,191.29166666667,927.353515625,207.95833333333,921.20139058431,209.05556233724,920.70139058431,215.72222900391,910.70139058431,216.22222900391,845.36805725098,238.88889567057,843.20139058431,243.05556233724,833.86805725098,244.22222900391,828.53472391764,245.72222900391,822.53472391764,244.22222900391,811.86805725098,248.55556233724"></polygon><polygon  data-section_name="10" data-section="10" data-build="2" data-build_name="5" data-floor="13" data-type="floor" class="s3d-svg__build js-s3d-svg__build" points="928.18684895833,191.29166666667,945.853515625,191.29166666667,1070.0201822917,217.79166666667,1091.6868489583,209.625,1105.0201822917,210.125,1111.6868489583,206.79166666667,1109.6868489583,225.45833333333,1103.353515625,226.45833333333,1095.853515625,228.625,1090.0201822917,227.95833333333,1068.853515625,235.45833333333,944.853515625,207.95833333333,927.353515625,207.95833333333"></polygon><polygon  data-section_name="5" data-section="5" data-build="2" data-build_name="5" data-floor="14" data-type="floor" class="s3d-svg__build js-s3d-svg__build" points="382.53472391764,336.38887532552,419.36805725098,349.22220865885,420.70139058431,354.22220865885,427.36805725098,357.05554199219,437.36805725098,357.05554199219,512.53472391764,383.55554199219,513.03472391764,388.38887532552,522.03472391764,391.22220865885,530.03472391764,390.38887532552,553.36805725098,399.72220865885,559.36805725098,397.22220865885,588.53472391764,406.22220865885,616.70139058431,394.88887532552,624.70139058431,395.22220865885,632.70139058431,392.55554199219,633.70139058431,387.72220865885,659.20139058431,377.05554199219,658.70139058431,362.88887532552,666.03472391764,360.22220865885,666.36805725098,379.72220865885,659.36805725098,383.05554199219,659.20139058431,399.72220865885,633.86805725098,410.88887532552,633.03472391764,415.72220865885,624.36805725098,418.38887532552,615.86805725098,418.22220865885,589.20139058431,429.55554199219,560.03472391764,420.22220865885,554.53472391764,422.38887532552,530.70139058431,414.38887532552,523.36805725098,414.38887532552,514.36805725098,411.55554199219,513.36805725098,406.38887532552,438.03472391764,378.22220865885,429.86805725098,378.38887532552,422.03472391764,376.22220865885,420.70139058431,371.88887532552,384.03472391764,359.22220865885"></polygon><polygon  data-section_name="8" data-section="8" data-build="2" data-build_name="5" data-floor="14" data-type="floor" class="s3d-svg__build js-s3d-svg__build" points="675.36805725098,257.05556233724,690.36805725098,252.22222900391,697.86805725098,254.22222900391,712.03472391764,253.05556233724,715.03472391764,249.05556233724,791.70139058431,224.22222900391,797.03472391764,223.05556233724,803.20139058431,221.22222900391,802.70139058431,215.05556233724,811.70139058431,212.38889567057,811.86805725098,230.38889567057,803.03472391764,231.61112467448,803.03472391764,239.11112467448,797.70139058431,240.94445800781,791.03472391764,241.61112467448,714.03472391764,266.44445800781,714.03472391764,270.27779134115,708.70139058431,272.27779134115,699.03472391764,272.27779134115,689.86805725098,271.11112467448,675.70139058431,277.11112467448"></polygon><polygon  data-section_name="9" data-section="9" data-build="2" data-build_name="5" data-floor="14" data-type="floor" class="s3d-svg__build js-s3d-svg__build" points="811.70139058431,212.38889567057,823.20139058431,207.88889567057,831.70139058431,209.72222900391,839.03472391764,209.05556233724,846.36805725098,207.22222900391,845.86805725098,204.22222900391,912.36805725098,181.88889567057,916.70139058431,183.22222900391,921.03472391764,181.88889567057,922.03472391764,175.72222900391,929.02018229167,173.79166666667,928.18684895833,191.29166666667,922.03472391764,191.72222900391,921.03472391764,197.55556233724,917.36805725098,200.38889567057,910.53472391764,199.72222900391,845.36805725098,221.88889567057,842.03472391764,225.88889567057,835.86805725098,226.38889567057,823.20139058431,224.55556233724,811.86805725098,230.38889567057"></polygon><polygon  data-section_name="10" data-section="10" data-build="2" data-build_name="5" data-floor="14" data-type="floor" class="s3d-svg__build js-s3d-svg__build" points="929.02018229167,173.79166666667,947.353515625,175.125,1071.1868489583,200.125,1094.0201822917,193.125,1106.6868489583,192.79166666667,1113.6868489583,190.29166666667,1111.6868489583,206.79166666667,1105.0201822917,210.125,1091.6868489583,209.625,1070.0201822917,217.79166666667,945.853515625,191.29166666667,928.18684895833,191.29166666667"></polygon><polygon  data-section_name="5" data-section="5" data-build="2" data-build_name="5" data-floor="15" data-type="floor" class="s3d-svg__build js-s3d-svg__build" points="381.03472391764,316.11112467448,418.03472391764,327.77779134115,419.20139058431,331.77779134115,427.20139058431,334.44445800781,434.03472391764,334.27779134115,510.70139058431,360.16666666667,513.20139058431,366.5,520.70139058431,368.5,528.03472391764,367.83333333333,551.70139058431,377.16666666667,559.03472391764,374.16666666667,586.70139058431,383.83333333333,614.55859375,372.75,623.05859375,372.25,632.55859375,369.41666666667,632.89192708333,365.41666666667,658.89192708333,353.91666666667,658.05859375,340.41666666667,664.39192708333,339.25,666.03472391764,360.22220865885,658.70139058431,362.88887532552,659.20139058431,377.05554199219,633.70139058431,387.72220865885,632.70139058431,392.55554199219,624.70139058431,395.22220865885,616.70139058431,394.88887532552,588.53472391764,406.22220865885,559.36805725098,397.22220865885,553.36805725098,399.72220865885,530.03472391764,390.38887532552,522.03472391764,391.22220865885,513.03472391764,388.38887532552,512.53472391764,383.55554199219,437.36805725098,357.05554199219,427.36805725098,357.05554199219,420.70139058431,354.22220865885,419.36805725098,349.22220865885,382.53472391764,336.38887532552"></polygon><polygon  data-section_name="7" data-section="7" data-build="2" data-build_name="5" data-floor="15" data-type="floor" class="s3d-svg__build js-s3d-svg__build" points="596.39192708333,267.41666666667,650.05859375,251.91666666667,658.39192708333,250.91666666667,663.39192708333,248.91666666667,666.39192708333,246.41666666667,667.39192708333,240.91666666667,675.20139058431,238.16666666667,675.36805725098,257.05556233724,664.39192708333,260.25,663.55859375,268.41666666667,657.55859375,270.75,650.55859375,270.25,596.55859375,288.25"></polygon><polygon  data-section_name="8" data-section="8" data-build="2" data-build_name="5" data-floor="15" data-type="floor" class="s3d-svg__build js-s3d-svg__build" points="675.20139058431,238.16666666667,691.03472391764,234.5,701.36805725098,235.16666666667,708.03472391764,234.5,712.70139058431,233.5,714.36805725098,230.33333333333,791.70139058431,204.83333333333,796.53472391764,205.16666666667,803.03472391764,203.83333333333,802.70139058431,198.5,811.36805725098,194.16666666667,811.70139058431,212.38889567057,802.70139058431,215.05556233724,803.20139058431,221.22222900391,797.03472391764,223.05556233724,791.70139058431,224.22222900391,715.03472391764,249.05556233724,712.03472391764,253.05556233724,697.86805725098,254.22222900391,690.36805725098,252.22222900391,675.36805725098,257.05556233724"></polygon><polygon  data-section_name="9" data-section="9" data-build="2" data-build_name="5" data-floor="15" data-type="floor" class="s3d-svg__build js-s3d-svg__build" points="929.52018229167,157.625,923.20139058431,159.16666666667,922.36805725098,164.16666666667,917.86805725098,166.16666666667,911.36805725098,165.66666666667,900.03472391764,169.66666666667,847.20139058431,187,841.86805725098,190.16666666667,832.36805725098,191.83333333333,823.86805725098,191,811.36805725098,194.16666666667,811.70139058431,212.38889567057,823.20139058431,207.88889567057,831.70139058431,209.72222900391,839.03472391764,209.05556233724,846.36805725098,207.22222900391,845.86805725098,204.22222900391,912.36805725098,181.88889567057,916.70139058431,183.22222900391,921.03472391764,181.88889567057,922.03472391764,175.72222900391,929.02018229167,173.79166666667"></polygon><polygon  data-section_name="10" data-section="10" data-build="2" data-build_name="5" data-floor="15" data-type="floor" class="s3d-svg__build js-s3d-svg__build" points="929.52018229167,157.625,945.353515625,157.79166666667,1072.0201822917,183.45833333333,1094.1868489583,175.95833333333,1108.6868489583,175.29166666667,1113.1868489583,172.625,1113.6868489583,190.29166666667,1106.6868489583,192.79166666667,1094.0201822917,193.125,1071.1868489583,200.125,947.353515625,175.125,929.02018229167,173.79166666667"></polygon><polygon  data-section_name="5" data-section="5" data-build="2" data-build_name="5" data-floor="16" data-type="floor" class="s3d-svg__build js-s3d-svg__build" points="373.39192708333,281.41666666667,551.55859375,342.25,557.55859375,339.41666666667,586.89192708333,349.25,613.39192708333,337.41666666667,619.05859375,340.25,639.89192708333,332.41666666667,636.05859375,329.41666666667,659.55859375,321.41666666667,641.55859375,314.91666666667,659.89192708333,307.25,666.89192708333,305.25,664.39192708333,339.25,658.05859375,340.41666666667,658.89192708333,353.91666666667,632.89192708333,365.41666666667,632.55859375,369.41666666667,623.05859375,372.25,614.55859375,372.75,586.70139058431,383.83333333333,559.03472391764,374.16666666667,551.70139058431,377.16666666667,528.03472391764,367.83333333333,520.70139058431,368.5,513.20139058431,366.5,510.70139058431,360.16666666667,434.03472391764,334.27779134115,427.20139058431,334.44445800781,419.20139058431,331.77779134115,418.03472391764,327.77779134115,381.03472391764,316.11112467448,380.03472391764,295.5,373.03472391764,292.5"></polygon><polygon  data-section_name="7" data-section="7" data-build="2" data-build_name="5" data-floor="16" data-type="floor" class="s3d-svg__build js-s3d-svg__build" points="673.86805725098,209,661.05859375,212.91666666667,669.55859375,217.91666666667,578.39192708333,242.75,578.55859375,256.25,595.05859375,262.91666666667,596.39192708333,267.41666666667,650.05859375,251.91666666667,658.39192708333,250.91666666667,663.39192708333,248.91666666667,666.39192708333,246.41666666667,667.39192708333,240.91666666667,675.20139058431,238.16666666667"></polygon><polygon  data-section_name="8" data-section="8" data-build="2" data-build_name="5" data-floor="16" data-type="floor" class="s3d-svg__build js-s3d-svg__build" points="809.86805725098,168.16666666667,800.70139058431,170.83333333333,810.53472391764,174.5,700.70139058431,207.16666666667,691.86805725098,203.83333333333,673.86805725098,209,675.20139058431,238.16666666667,691.03472391764,234.5,701.36805725098,235.16666666667,708.03472391764,234.5,712.70139058431,233.5,714.36805725098,230.33333333333,791.70139058431,204.83333333333,796.53472391764,205.16666666667,803.03472391764,203.83333333333,802.70139058431,198.5,811.36805725098,194.16666666667"></polygon><polygon  data-section_name="9" data-section="9" data-build="2" data-build_name="5" data-floor="16" data-type="floor" class="s3d-svg__build js-s3d-svg__build" points="930.02018229167,130.45833333333,919.86805725098,133.5,929.70139058431,137,917.70139058431,140.33333333333,900.03472391764,144.33333333333,839.03472391764,165.5,826.03472391764,163,809.86805725098,168.16666666667,811.36805725098,194.16666666667,823.86805725098,191,832.36805725098,191.83333333333,841.86805725098,190.16666666667,847.20139058431,187,900.03472391764,169.66666666667,911.36805725098,165.66666666667,917.86805725098,166.16666666667,922.36805725098,164.16666666667,923.20139058431,159.16666666667,929.52018229167,157.625"></polygon><polygon  data-section_name="10" data-section="10" data-build="2" data-build_name="5" data-floor="16" data-type="floor" class="s3d-svg__build js-s3d-svg__build" points="1127.853515625,136.29166666667,1111.6868489583,141.45833333333,1120.353515625,145.625,1109.853515625,150.29166666667,1104.5201822917,150.125,1098.6868489583,148.79166666667,1076.6868489583,156.79166666667,1033.0201822917,148.79166666667,1054.6868489583,140.29166666667,1028.0201822917,135.29166666667,1006.1868489583,142.95833333333,946.353515625,131.95833333333,930.02018229167,130.45833333333,929.52018229167,157.625,945.353515625,157.79166666667,1072.0201822917,183.45833333333,1072.0201822917,183.45833333333,1094.1868489583,175.95833333333,1108.6868489583,175.29166666667,1113.1868489583,172.625,1114.853515625,166.125,1115.853515625,157.29166666667,1121.1868489583,154.79166666667,1122.1868489583,148.625,1128.1868489583,145.125"></polygon></svg>