<svg preserveAspectRatio="xMidYMid slice" id="floor--svg" viewBox="0 0 1440 810" version="1.0"
     xmlns="http://www.w3.org/2000/svg">
    <polygon data-section_name="7" data-section="7" data-build="2" data-build_name="5" data-floor="2" data-type="floor"
             class="s3d-svg__build js-s3d-svg__build"
             points="637.33138020833,415.16666666667,626.81888961792,410.81817626953,618.81888961792,413.31817626953,611.31888961792,412.06817626953,536.31888961792,381.31817626953,528.81888961792,381.31817626953,523.56888961792,378.31817626953,522.56888961792,371.56817626953,516.31888961792,369.56817626953,516.06888961792,385.06817626953,522.31888961792,388.81817626953,522.81888961792,395.31817626953,532.81888961792,398.81817626953,543.06888961792,401.31817626953,618.81888961792,431.31817626953,627.81888961792,429.06817626953,637.33138020833,433.5"></polygon>
    <polygon data-section_name="8" data-section="8" data-build="2" data-build_name="5" data-floor="2" data-type="floor"
             class="s3d-svg__build js-s3d-svg__build"
             points="637.33138020833,415.16666666667,637.33138020833,415.16666666667,646.498046875,418,646.498046875,418,648.33138020833,423.5,648.33138020833,423.5,651.33138020833,427,651.33138020833,427,655.498046875,428.33333333333,655.498046875,428.33333333333,661.498046875,429.16666666667,661.498046875,429.16666666667,741.498046875,459.33333333333,741.498046875,459.33333333333,745.33138020833,463.33333333333,745.33138020833,463.33333333333,751.33138020833,465.33333333333,751.33138020833,465.33333333333,758.66471354167,466.16666666667,758.66471354167,466.16666666667,766.498046875,463.66666666667,766.498046875,463.66666666667,780.73333231608,467.63334147135,780.73333231608,467.63334147135,780.5,488.33333333333,780.5,488.33333333333,766.66471354167,483.5,766.66471354167,483.5,758.83138020833,485,758.83138020833,485,649.998046875,445,649.998046875,445,647.998046875,437.83333333333,647.998046875,437.83333333333,637.33138020833,433.5,637.33138020833,433.5"></polygon>
    <polygon data-section_name="9" data-section="9" data-build="2" data-build_name="5" data-floor="2" data-type="floor"
             class="s3d-svg__build js-s3d-svg__build"
             points="780.73333231608,467.63334147135,780.73333231608,467.63334147135,793.73333231608,472.80000813802,793.73333231608,472.80000813802,795.56666564941,479.80000813802,795.56666564941,479.80000813802,798.39999898275,482.96667480469,798.39999898275,482.96667480469,803.23333231608,484.80000813802,803.23333231608,484.80000813802,808.39999898275,484.63334147135,808.39999898275,484.63334147135,845.73333231608,497.30000813802,845.73333231608,497.30000813802,845.33333333333,517.94445800781,845.33333333333,517.94445800781,794.33333333333,499.77779134115,794.33333333333,499.77779134115,793.66666666667,493.16666666667,793.66666666667,493.16666666667,780.5,488.33333333333,780.5,488.33333333333"></polygon>
    <polygon data-section_name="10" data-section="10" data-build="2" data-build_name="5" data-floor="2"
             data-type="floor" class="s3d-svg__build js-s3d-svg__build"
             points="842.66435241699,606.88891601562,842.66435241699,606.88891601562,868.66435241699,617.38891601562,868.66435241699,617.38891601562,868.83101908366,621.88891601562,868.83101908366,621.88891601562,872.83101908366,623.22224934896,872.83101908366,623.22224934896,875.99768575033,627.55558268229,875.99768575033,627.55558268229,883.83101908366,631.55558268229,883.83101908366,631.55558268229,889.49768575033,630.88891601562,889.49768575033,630.88891601562,895.66435241699,633.05558268229,895.66435241699,633.05558268229,902.83101908366,629.05558268229,902.83101908366,629.05558268229,935.49768575033,640.05558268229,935.49768575033,640.05558268229,954.66435241699,629.55558268229,954.66435241699,629.55558268229,958.49768575033,631.38891601562,958.49768575033,631.38891601562,975.33101908366,620.72224934896,975.33101908366,620.72224934896,982.83101908366,620.05558268229,982.83101908366,620.05558268229,989.66435241699,617.05558268229,989.66435241699,617.05558268229,990.66435241699,611.81481933594,990.66435241699,611.81481933594,1035.164352417,584.4814860026,1035.164352417,584.4814860026,1042.164352417,584.14815266927,1042.164352417,584.14815266927,1048.4976857503,579.9814860026,1048.4976857503,579.9814860026,1047.9976857503,576.14815266927,1047.9976857503,576.14815266927,1063.3310190837,566.64815266927,1063.3310190837,566.64815266927,1063.3310190837,562.64815266927,1063.3310190837,562.64815266927,1073.664352417,557.4814860026,1073.664352417,557.4814860026,1072.164352417,575.33333333333,1072.164352417,575.33333333333,1060.664352417,581.83333333333,1060.664352417,581.83333333333,1061.164352417,587.83333333333,1061.164352417,587.83333333333,1047.3310190837,595.33333333333,1047.3310190837,595.33333333333,1047.3310190837,600.16666666667,1047.3310190837,600.16666666667,1041.9976857503,603.66666666667,1041.9976857503,603.66666666667,1034.9976857503,604.5,1034.9976857503,604.5,988.83101908366,633.66666666667,988.83101908366,633.66666666667,988.49768575033,637.16666666667,988.49768575033,637.16666666667,982.16435241699,641.16666666667,982.16435241699,641.16666666667,975.49768575033,641.33333333333,975.49768575033,641.33333333333,956.99768575033,653.33333333333,956.99768575033,653.33333333333,951.83101908366,651,951.83101908366,651,934.49768575033,661.03702799479,934.49768575033,661.03702799479,901.66435241699,650.20369466146,901.66435241699,650.20369466146,893.99768575033,654.53702799479,893.99768575033,654.53702799479,888.33101908366,651.53702799479,888.33101908366,651.53702799479,882.33101908366,651.87036132812,882.33101908366,651.87036132812,873.66435241699,648.53702799479,873.66435241699,648.53702799479,872.99768575033,646.37036132812,872.99768575033,646.37036132812,867.83101908366,644.37036132812,867.83101908366,644.37036132812,867.83101908366,639.03702799479,867.83101908366,639.03702799479,841.83101908366,627.87036132812,841.83101908366,627.87036132812"></polygon>
    <polygon data-section_name="8" data-section="8" data-build="2" data-build_name="5" data-floor="3" data-type="floor"
             class="s3d-svg__build js-s3d-svg__build"
             points="636.998046875,399.16666666667,636.998046875,399.16666666667,647.83138020833,403.83333333333,647.83138020833,403.83333333333,649.498046875,408.5,649.498046875,408.5,652.16471354167,411.66666666667,652.16471354167,411.66666666667,656.16471354167,412.83333333333,656.16471354167,412.83333333333,660.33138020833,413,660.33138020833,413,741.998046875,442.5,741.998046875,442.5,745.498046875,446.33333333333,745.498046875,446.33333333333,751.498046875,448,751.498046875,448,758.998046875,449.33333333333,758.998046875,449.33333333333,766.998046875,447.16666666667,766.998046875,447.16666666667,780.16435241699,450.9814860026,780.16435241699,450.9814860026,780.73333231608,467.63334147135,780.73333231608,467.63334147135,766.498046875,463.66666666667,766.498046875,463.66666666667,758.66471354167,466.16666666667,758.66471354167,466.16666666667,751.33138020833,465.33333333333,751.33138020833,465.33333333333,745.33138020833,463.33333333333,745.33138020833,463.33333333333,741.498046875,459.33333333333,741.498046875,459.33333333333,661.498046875,429.16666666667,661.498046875,429.16666666667,655.498046875,428.33333333333,655.498046875,428.33333333333,651.33138020833,427,651.33138020833,427,648.33138020833,423.5,648.33138020833,423.5,646.498046875,418,646.498046875,418,637.33138020833,415.16666666667,637.33138020833,415.16666666667"></polygon>
    <polygon data-section_name="9" data-section="9" data-build="2" data-build_name="5" data-floor="3" data-type="floor"
             class="s3d-svg__build js-s3d-svg__build"
             points="846.16435241699,480.14815266927,846.16435241699,480.14815266927,845.73333231608,497.30000813802,845.73333231608,497.30000813802,808.39999898275,484.63334147135,808.39999898275,484.63334147135,803.23333231608,484.80000813802,803.23333231608,484.80000813802,798.39999898275,482.96667480469,798.39999898275,482.96667480469,795.56666564941,479.80000813802,795.56666564941,479.80000813802,793.73333231608,472.80000813802,793.73333231608,472.80000813802,780.73333231608,467.63334147135,780.73333231608,467.63334147135,780.16435241699,450.9814860026,780.16435241699,450.9814860026,792.66435241699,456.14815266927,792.66435241699,456.14815266927,794.66435241699,461.9814860026,794.66435241699,461.9814860026,798.16435241699,465.81481933594,798.16435241699,465.81481933594,803.16435241699,466.9814860026,803.16435241699,466.9814860026,807.99768575033,466.9814860026,807.99768575033,466.9814860026"></polygon>
    <polygon data-section_name="10" data-section="10" data-build="2" data-build_name="5" data-floor="3"
             data-type="floor" class="s3d-svg__build js-s3d-svg__build"
             points="842.83101908366,587.16666666667,842.83101908366,587.16666666667,869.66435241699,597,869.66435241699,597,870.33101908366,602.16666666667,870.33101908366,602.16666666667,873.99768575033,603.66666666667,873.99768575033,603.66666666667,875.16435241699,607,875.16435241699,607,883.99768575033,610.5,883.99768575033,610.5,890.16435241699,609.33333333333,890.16435241699,609.33333333333,896.33101908366,612.83333333333,896.33101908366,612.83333333333,903.33101908366,608.33333333333,903.33101908366,608.33333333333,936.83101908366,620.16666666667,936.83101908366,620.16666666667,955.16435241699,609.16666666667,955.16435241699,609.16666666667,959.49768575033,611.16666666667,959.49768575033,611.16666666667,976.99768575033,600.16666666667,976.99768575033,600.16666666667,983.99768575033,601,983.99768575033,601,991.33101908366,597.5,991.33101908366,597.5,991.66435241699,591.29630533854,991.66435241699,591.29630533854,1036.4976857503,564.96297200521,1036.4976857503,564.96297200521,1042.3310190837,565.29630533854,1042.3310190837,565.29630533854,1049.8310190837,561.12963867188,1049.8310190837,561.12963867188,1050.3310190837,556.46297200521,1050.3310190837,556.46297200521,1063.9976857503,549.12963867188,1063.9976857503,549.12963867188,1063.664352417,544.46297200521,1063.664352417,544.46297200521,1075.3310190837,538.12963867188,1075.3310190837,538.12963867188,1073.664352417,557.4814860026,1073.664352417,557.4814860026,1063.3310190837,562.64815266927,1063.3310190837,562.64815266927,1063.3310190837,566.64815266927,1063.3310190837,566.64815266927,1047.9976857503,576.14815266927,1047.9976857503,576.14815266927,1048.4976857503,579.9814860026,1048.4976857503,579.9814860026,1042.164352417,584.14815266927,1042.164352417,584.14815266927,1035.164352417,584.4814860026,1035.164352417,584.4814860026,990.66435241699,611.81481933594,990.66435241699,611.81481933594,989.66435241699,617.05558268229,989.66435241699,617.05558268229,982.83101908366,620.05558268229,982.83101908366,620.05558268229,975.33101908366,620.72224934896,975.33101908366,620.72224934896,958.49768575033,631.38891601562,958.49768575033,631.38891601562,954.66435241699,629.55558268229,954.66435241699,629.55558268229,935.49768575033,640.05558268229,935.49768575033,640.05558268229,902.83101908366,629.05558268229,902.83101908366,629.05558268229,895.66435241699,633.05558268229,895.66435241699,633.05558268229,889.49768575033,630.88891601562,889.49768575033,630.88891601562,883.83101908366,631.55558268229,883.83101908366,631.55558268229,875.99768575033,627.55558268229,875.99768575033,627.55558268229,872.83101908366,623.22224934896,872.83101908366,623.22224934896,868.83101908366,621.88891601562,868.83101908366,621.88891601562,868.66435241699,617.38891601562,868.66435241699,617.38891601562,842.66435241699,606.88891601562,842.66435241699,606.88891601562"></polygon>
    <polygon data-section_name="8" data-section="8" data-build="2" data-build_name="5" data-floor="4" data-type="floor"
             class="s3d-svg__build js-s3d-svg__build"
             points="637.16471354167,382.16666666667,637.16471354167,382.16666666667,646.998046875,385.83333333333,646.998046875,385.83333333333,649.998046875,392,649.998046875,392,652.83138020833,395,652.83138020833,395,655.66471354167,396.16666666667,655.66471354167,396.16666666667,661.498046875,396.66666666667,661.498046875,396.66666666667,740.33138020833,424.33333333333,740.33138020833,424.33333333333,744.83138020833,428.66666666667,744.83138020833,428.66666666667,751.16471354167,430.83333333333,751.16471354167,430.83333333333,759.83138020833,431.16666666667,759.83138020833,431.16666666667,767.33138020833,428.83333333333,767.33138020833,428.83333333333,780.33101908366,433.27779134115,780.33101908366,433.27779134115,780.16435241699,450.9814860026,780.16435241699,450.9814860026,766.998046875,447.16666666667,766.998046875,447.16666666667,758.998046875,449.33333333333,758.998046875,449.33333333333,751.498046875,448,751.498046875,448,745.498046875,446.33333333333,745.498046875,446.33333333333,741.998046875,442.5,741.998046875,442.5,660.33138020833,413,660.33138020833,413,656.16471354167,412.83333333333,656.16471354167,412.83333333333,652.16471354167,411.66666666667,652.16471354167,411.66666666667,649.498046875,408.5,649.498046875,408.5,647.83138020833,403.83333333333,647.83138020833,403.83333333333,636.998046875,399.16666666667,636.998046875,399.16666666667"></polygon>
    <polygon data-section_name="9" data-section="9" data-build="2" data-build_name="5" data-floor="4" data-type="floor"
             class="s3d-svg__build js-s3d-svg__build"
             points="780.33101908366,433.27779134115,780.33101908366,433.27779134115,793.49768575033,438.44445800781,793.49768575033,438.44445800781,795.66435241699,445.94445800781,795.66435241699,445.94445800781,798.49768575033,448.44445800781,798.49768575033,448.44445800781,803.16435241699,449.61112467448,803.16435241699,449.61112467448,807.83101908366,449.27779134115,807.83101908366,449.27779134115,847.16666666667,465.83333333333,847.16666666667,465.83333333333,846.16435241699,480.14815266927,846.16435241699,480.14815266927,807.99768575033,466.9814860026,807.99768575033,466.9814860026,803.16435241699,466.9814860026,803.16435241699,466.9814860026,798.16435241699,465.81481933594,798.16435241699,465.81481933594,794.66435241699,461.9814860026,794.66435241699,461.9814860026,792.66435241699,456.14815266927,792.66435241699,456.14815266927,780.16435241699,450.9814860026,780.16435241699,450.9814860026"></polygon>
    <polygon data-section_name="10" data-section="10" data-build="2" data-build_name="5" data-floor="4"
             data-type="floor" class="s3d-svg__build js-s3d-svg__build"
             points="843.83101908366,567.66666666667,843.83101908366,567.66666666667,870.66435241699,578.5,870.66435241699,578.5,870.66435241699,582.83333333333,870.66435241699,582.83333333333,874.66435241699,584.83333333333,874.66435241699,584.83333333333,876.83101908366,587.83333333333,876.83101908366,587.83333333333,884.83101908366,590.83333333333,884.83101908366,590.83333333333,891.49768575033,590.5,891.49768575033,590.5,897.33101908366,592.66666666667,897.33101908366,592.66666666667,903.99768575033,589.16666666667,903.99768575033,589.16666666667,937.83101908366,600.33333333333,937.83101908366,600.33333333333,956.66435241699,589.33333333333,956.66435241699,589.33333333333,960.99768575033,591,960.99768575033,591,978.33101908366,580.16666666667,978.33101908366,580.16666666667,985.33101908366,580.16666666667,985.33101908366,580.16666666667,992.33101908366,577.16666666667,992.33101908366,577.16666666667,993.33101908366,570.94445800781,993.33101908366,570.94445800781,1037.9976857503,545.27779134115,1037.9976857503,545.27779134115,1045.3310190837,545.94445800781,1045.3310190837,545.94445800781,1050.664352417,542.77779134115,1050.664352417,542.77779134115,1050.9976857503,538.27779134115,1050.9976857503,538.27779134115,1065.9976857503,528.44445800781,1065.9976857503,528.44445800781,1066.164352417,524.44445800781,1066.164352417,524.44445800781,1077.164352417,519.61112467448,1077.164352417,519.61112467448,1075.3310190837,538.12963867188,1075.3310190837,538.12963867188,1063.664352417,544.46297200521,1063.664352417,544.46297200521,1063.9976857503,549.12963867188,1063.9976857503,549.12963867188,1050.3310190837,556.46297200521,1050.3310190837,556.46297200521,1049.8310190837,561.12963867188,1049.8310190837,561.12963867188,1042.3310190837,565.29630533854,1042.3310190837,565.29630533854,1036.4976857503,564.96297200521,1036.4976857503,564.96297200521,991.66435241699,591.29630533854,991.66435241699,591.29630533854,991.33101908366,597.5,991.33101908366,597.5,983.99768575033,601,983.99768575033,601,976.99768575033,600.16666666667,976.99768575033,600.16666666667,959.49768575033,611.16666666667,959.49768575033,611.16666666667,955.16435241699,609.16666666667,955.16435241699,609.16666666667,936.83101908366,620.16666666667,936.83101908366,620.16666666667,903.33101908366,608.33333333333,903.33101908366,608.33333333333,896.33101908366,612.83333333333,896.33101908366,612.83333333333,890.16435241699,609.33333333333,890.16435241699,609.33333333333,883.99768575033,610.5,883.99768575033,610.5,875.16435241699,607,875.16435241699,607,873.99768575033,603.66666666667,873.99768575033,603.66666666667,870.33101908366,602.16666666667,870.33101908366,602.16666666667,869.66435241699,597,869.66435241699,597,842.83101908366,587.16666666667,842.83101908366,587.16666666667"></polygon>
    <polygon data-section_name="8" data-section="8" data-build="2" data-build_name="5" data-floor="5" data-type="floor"
             class="s3d-svg__build js-s3d-svg__build"
             points="636.498046875,366,636.498046875,366,646.66471354167,369.66666666667,646.66471354167,369.66666666667,649.498046875,376.16666666667,649.498046875,376.16666666667,651.998046875,378.5,651.998046875,378.5,655.33138020833,379.66666666667,655.33138020833,379.66666666667,660.66471354167,379.33333333333,660.66471354167,379.33333333333,742.16471354167,408.5,742.16471354167,408.5,745.66471354167,411.16666666667,745.66471354167,411.16666666667,751.66471354167,413,751.66471354167,413,760.33138020833,413.83333333333,760.33138020833,413.83333333333,767.83138020833,412.16666666667,767.83138020833,412.16666666667,780.33101908366,416.09261067708,780.33101908366,416.09261067708,780.33101908366,433.27779134115,780.33101908366,433.27779134115,767.33138020833,428.83333333333,767.33138020833,428.83333333333,759.83138020833,431.16666666667,759.83138020833,431.16666666667,751.16471354167,430.83333333333,751.16471354167,430.83333333333,744.83138020833,428.66666666667,744.83138020833,428.66666666667,740.33138020833,424.33333333333,740.33138020833,424.33333333333,661.498046875,396.66666666667,661.498046875,396.66666666667,655.66471354167,396.16666666667,655.66471354167,396.16666666667,652.83138020833,395,652.83138020833,395,649.998046875,392,649.998046875,392,646.998046875,385.83333333333,646.998046875,385.83333333333,637.16471354167,382.16666666667,637.16471354167,382.16666666667"></polygon>
    <polygon data-section_name="9" data-section="9" data-build="2" data-build_name="5" data-floor="5" data-type="floor"
             class="s3d-svg__build js-s3d-svg__build"
             points="780.33101908366,416.09261067708,780.33101908366,416.09261067708,793.66435241699,421.09261067708,793.66435241699,421.09261067708,796.33101908366,428.25927734375,796.33101908366,428.25927734375,799.99768575033,430.42594401042,799.99768575033,430.42594401042,804.83101908366,432.09261067708,804.83101908366,432.09261067708,809.83101908366,431.59261067708,809.83101908366,431.59261067708,847.5,445,847.5,445,847.16666666667,465.83333333333,847.16666666667,465.83333333333,807.83101908366,449.27779134115,807.83101908366,449.27779134115,803.16435241699,449.61112467448,803.16435241699,449.61112467448,798.49768575033,448.44445800781,798.49768575033,448.44445800781,795.66435241699,445.94445800781,795.66435241699,445.94445800781,793.49768575033,438.44445800781,793.49768575033,438.44445800781,780.33101908366,433.27779134115,780.33101908366,433.27779134115"></polygon>
    <polygon data-section_name="10" data-section="10" data-build="2" data-build_name="5" data-floor="5"
             data-type="floor" class="s3d-svg__build js-s3d-svg__build"
             points="844.49768575033,546.64815266927,844.49768575033,546.64815266927,871.66435241699,557.4814860026,871.66435241699,557.4814860026,871.66435241699,562.64815266927,871.66435241699,562.64815266927,876.99768575033,564.4814860026,876.99768575033,564.4814860026,878.33101908366,567.81481933594,878.33101908366,567.81481933594,885.66435241699,569.64815266927,885.66435241699,569.64815266927,892.83101908366,569.64815266927,892.83101908366,569.64815266927,897.33101908366,572.4814860026,897.33101908366,572.4814860026,905.99768575033,568.14815266927,905.99768575033,568.14815266927,938.49768575033,579.64815266927,938.49768575033,579.64815266927,957.33101908366,569.14815266927,957.33101908366,569.14815266927,961.99768575033,570.4814860026,961.99768575033,570.4814860026,980.16435241699,559.61112467448,980.16435241699,559.61112467448,987.16435241699,560.94445800781,987.16435241699,560.94445800781,993.83101908366,556.44445800781,993.83101908366,556.44445800781,993.83101908366,551.77779134115,993.83101908366,551.77779134115,1039.9976857503,525.77779134115,1039.9976857503,525.77779134115,1046.3310190837,525.94445800781,1046.3310190837,525.94445800781,1052.3310190837,523.27779134115,1052.3310190837,523.27779134115,1053.3310190837,517.61112467448,1053.3310190837,517.61112467448,1067.164352417,509.61112467448,1067.164352417,509.61112467448,1067.164352417,505.77779134115,1067.164352417,505.77779134115,1078.164352417,500.44445800781,1078.164352417,500.44445800781,1077.164352417,519.61112467448,1077.164352417,519.61112467448,1066.164352417,524.44445800781,1066.164352417,524.44445800781,1065.9976857503,528.44445800781,1065.9976857503,528.44445800781,1050.9976857503,538.27779134115,1050.9976857503,538.27779134115,1050.664352417,542.77779134115,1050.664352417,542.77779134115,1045.3310190837,545.94445800781,1045.3310190837,545.94445800781,1037.9976857503,545.27779134115,1037.9976857503,545.27779134115,993.33101908366,570.94445800781,993.33101908366,570.94445800781,992.33101908366,577.16666666667,992.33101908366,577.16666666667,985.33101908366,580.16666666667,985.33101908366,580.16666666667,978.33101908366,580.16666666667,978.33101908366,580.16666666667,960.99768575033,591,960.99768575033,591,956.66435241699,589.33333333333,956.66435241699,589.33333333333,937.83101908366,600.33333333333,937.83101908366,600.33333333333,903.99768575033,589.16666666667,903.99768575033,589.16666666667,897.33101908366,592.66666666667,897.33101908366,592.66666666667,891.49768575033,590.5,891.49768575033,590.5,884.83101908366,590.83333333333,884.83101908366,590.83333333333,876.83101908366,587.83333333333,876.83101908366,587.83333333333,874.66435241699,584.83333333333,874.66435241699,584.83333333333,870.66435241699,582.83333333333,870.66435241699,582.83333333333,870.66435241699,578.5,870.66435241699,578.5,843.83101908366,567.66666666667,843.83101908366,567.66666666667"></polygon>
    <polygon data-section_name="7" data-section="7" data-build="2" data-build_name="5" data-floor="6" data-type="floor"
             class="s3d-svg__build js-s3d-svg__build"
             points="636.498046875,349.5,625.81888961792,345.81817626953,616.56888961792,347.06817626953,609.81888961792,346.56817626953,533.31888961792,318.36361694336,521.06888961792,315.86361694336,520.06888961792,310.15908813477,512.56888961792,306.65908813477,513.31888961792,323.15908813477,520.31888961792,324.65908813477,520.81888961792,332.15908813477,532.81888961792,333.40908813477,601.81888961792,358.90908813477,610.56888961792,363.36361694336,618.31888961792,363.11361694336,626.31888961792,361.61361694336,636.498046875,366"></polygon>
    <polygon data-section_name="8" data-section="8" data-build="2" data-build_name="5" data-floor="6" data-type="floor"
             class="s3d-svg__build js-s3d-svg__build"
             points="636.498046875,349.5,636.498046875,349.5,646.16471354167,353,646.16471354167,353,648.33138020833,356.66666666667,648.33138020833,356.66666666667,651.16471354167,361,651.16471354167,361,656.16471354167,363.33333333333,656.16471354167,363.33333333333,661.66471354167,363.66666666667,661.66471354167,363.66666666667,742.33138020833,390,742.33138020833,390,746.66471354167,394.16666666667,746.66471354167,394.16666666667,752.83138020833,396.16666666667,752.83138020833,396.16666666667,759.998046875,396.16666666667,759.998046875,396.16666666667,767.998046875,394.5,767.998046875,394.5,781,398.55554199219,781,398.55554199219,780.33101908366,416.09261067708,780.33101908366,416.09261067708,767.83138020833,412.16666666667,767.83138020833,412.16666666667,760.33138020833,413.83333333333,760.33138020833,413.83333333333,751.66471354167,413,751.66471354167,413,745.66471354167,411.16666666667,745.66471354167,411.16666666667,742.16471354167,408.5,742.16471354167,408.5,660.66471354167,379.33333333333,660.66471354167,379.33333333333,655.33138020833,379.66666666667,655.33138020833,379.66666666667,651.998046875,378.5,651.998046875,378.5,649.498046875,376.16666666667,649.498046875,376.16666666667,646.66471354167,369.66666666667,646.66471354167,369.66666666667,636.498046875,366,636.498046875,366"></polygon>
    <polygon data-section_name="9" data-section="9" data-build="2" data-build_name="5" data-floor="6" data-type="floor"
             class="s3d-svg__build js-s3d-svg__build"
             points="781,398.55554199219,781,398.55554199219,794.33333333333,403.05554199219,794.33333333333,403.05554199219,796.33333333333,410.05554199219,796.33333333333,410.05554199219,799,412.72220865885,799,412.72220865885,805.16666666667,414.05554199219,805.16666666667,414.05554199219,810.5,414.38887532552,810.5,414.38887532552,848.83333333333,423.66666666667,848.83333333333,423.66666666667,847.5,445,847.5,445,809.83101908366,431.59261067708,809.83101908366,431.59261067708,804.83101908366,432.09261067708,804.83101908366,432.09261067708,799.99768575033,430.42594401042,799.99768575033,430.42594401042,796.33101908366,428.25927734375,796.33101908366,428.25927734375,793.66435241699,421.09261067708,793.66435241699,421.09261067708,780.33101908366,416.09261067708,780.33101908366,416.09261067708"></polygon>
    <polygon data-section_name="10" data-section="10" data-build="2" data-build_name="5" data-floor="6"
             data-type="floor" class="s3d-svg__build js-s3d-svg__build"
             points="845.66435241699,525.96297200521,845.66435241699,525.96297200521,871.99768575033,536.46297200521,871.99768575033,536.46297200521,871.99768575033,540.96297200521,871.99768575033,540.96297200521,876.16435241699,542.79630533854,876.16435241699,542.79630533854,877.99768575033,547.62963867188,877.99768575033,547.62963867188,886.66435241699,549.46297200521,886.66435241699,549.46297200521,892.99768575033,548.46297200521,892.99768575033,548.46297200521,898.33101908366,550.96297200521,898.33101908366,550.96297200521,906.66435241699,547.46297200521,906.66435241699,547.46297200521,939.99768575033,559.12963867188,939.99768575033,559.12963867188,958.16435241699,548.29630533854,958.16435241699,548.29630533854,963.16435241699,550.12963867188,963.16435241699,550.12963867188,980.49768575033,539.92594401042,980.49768575033,539.92594401042,988.66435241699,539.75927734375,988.66435241699,539.75927734375,994.49768575033,537.42594401042,994.49768575033,537.42594401042,995.49768575033,532.09261067708,995.49768575033,532.09261067708,1040.3310190837,506.0370686849,1040.3310190837,506.0370686849,1048.164352417,506.37040201823,1048.164352417,506.37040201823,1053.664352417,503.0370686849,1053.664352417,503.0370686849,1054.664352417,498.5370686849,1054.664352417,498.5370686849,1068.3310190837,491.70373535156,1068.3310190837,491.70373535156,1069.3310190837,486.37040201823,1069.3310190837,486.37040201823,1080.3310190837,480.70373535156,1080.3310190837,480.70373535156,1078.164352417,500.44445800781,1078.164352417,500.44445800781,1067.164352417,505.77779134115,1067.164352417,505.77779134115,1067.164352417,509.61112467448,1067.164352417,509.61112467448,1053.3310190837,517.61112467448,1053.3310190837,517.61112467448,1052.3310190837,523.27779134115,1052.3310190837,523.27779134115,1046.3310190837,525.94445800781,1046.3310190837,525.94445800781,1039.9976857503,525.77779134115,1039.9976857503,525.77779134115,993.83101908366,551.77779134115,993.83101908366,551.77779134115,993.83101908366,556.44445800781,993.83101908366,556.44445800781,987.16435241699,560.94445800781,987.16435241699,560.94445800781,980.16435241699,559.61112467448,980.16435241699,559.61112467448,961.99768575033,570.4814860026,961.99768575033,570.4814860026,957.33101908366,569.14815266927,957.33101908366,569.14815266927,938.49768575033,579.64815266927,938.49768575033,579.64815266927,905.99768575033,568.14815266927,905.99768575033,568.14815266927,897.33101908366,572.4814860026,897.33101908366,572.4814860026,892.83101908366,569.64815266927,892.83101908366,569.64815266927,885.66435241699,569.64815266927,885.66435241699,569.64815266927,878.33101908366,567.81481933594,878.33101908366,567.81481933594,876.99768575033,564.4814860026,876.99768575033,564.4814860026,871.66435241699,562.64815266927,871.66435241699,562.64815266927,871.66435241699,557.4814860026,871.66435241699,557.4814860026,844.49768575033,546.64815266927,844.49768575033,546.64815266927"></polygon>
    <polygon data-section_name="5" data-section="5" data-build="2" data-build_name="5" data-floor="7" data-type="floor"
             class="s3d-svg__build js-s3d-svg__build"
             points="309.81888961792,315.75,346.06888961792,329,360.56888961792,325.25,373.81888961792,329.02270507812,482.81888961792,295.77270507812,494.81888961792,293.02270507812,509.56888961792,292.27270507812,512.56888961792,306.65908813477,495.06888961792,308.9772644043,483.56888961792,311.7272644043,374.31888961792,345.45452880859,361.81888961792,340.95452880859,347.31888961792,345.45452880859,311.56888961792,330.70452880859"></polygon>
    <polygon data-section_name="8" data-section="8" data-build="2" data-build_name="5" data-floor="7" data-type="floor"
             class="s3d-svg__build js-s3d-svg__build"
             points="636.498046875,332.66666666667,636.498046875,332.66666666667,644.83138020833,335.33333333333,644.83138020833,335.33333333333,648.33138020833,340.5,648.33138020833,340.5,650.498046875,344.16666666667,650.498046875,344.16666666667,654.998046875,345.5,654.998046875,345.5,659.83138020833,345.83333333333,659.83138020833,345.83333333333,742.16471354167,372,742.16471354167,372,746.33138020833,376.16666666667,746.33138020833,376.16666666667,752.498046875,378,752.498046875,378,760.498046875,378.33333333333,760.498046875,378.33333333333,767.498046875,376.16666666667,767.498046875,376.16666666667,780.73333231608,380.60001627604,780.73333231608,380.60001627604,781,398.55554199219,781,398.55554199219,767.998046875,394.5,767.998046875,394.5,759.998046875,396.16666666667,759.998046875,396.16666666667,752.83138020833,396.16666666667,752.83138020833,396.16666666667,746.66471354167,394.16666666667,746.66471354167,394.16666666667,742.33138020833,390,742.33138020833,390,661.66471354167,363.66666666667,661.66471354167,363.66666666667,656.16471354167,363.33333333333,656.16471354167,363.33333333333,651.16471354167,361,651.16471354167,361,648.33138020833,356.66666666667,648.33138020833,356.66666666667,646.16471354167,353,646.16471354167,353,636.498046875,349.5,636.498046875,349.5"></polygon>
    <polygon data-section_name="9" data-section="9" data-build="2" data-build_name="5" data-floor="7" data-type="floor"
             class="s3d-svg__build js-s3d-svg__build"
             points="780.73333231608,380.60001627604,780.73333231608,380.60001627604,795.56666564941,385.10001627604,795.56666564941,385.10001627604,797.39999898275,391.60001627604,797.39999898275,391.60001627604,800.39999898275,394.60001627604,800.39999898275,394.60001627604,805.73333231608,396.10001627604,805.73333231608,396.10001627604,811.89999898275,395.93334960938,811.89999898275,395.93334960938,849.06666564941,409.43334960938,849.06666564941,409.43334960938,848.83333333333,423.66666666667,848.83333333333,423.66666666667,810.5,414.38887532552,810.5,414.38887532552,805.16666666667,414.05554199219,805.16666666667,414.05554199219,799,412.72220865885,799,412.72220865885,796.33333333333,410.05554199219,796.33333333333,410.05554199219,794.33333333333,403.05554199219,794.33333333333,403.05554199219,781,398.55554199219,781,398.55554199219"></polygon>
    <polygon data-section_name="10" data-section="10" data-build="2" data-build_name="5" data-floor="7"
             data-type="floor" class="s3d-svg__build js-s3d-svg__build"
             points="845.63588968913,506.21211751302,845.63588968913,506.21211751302,872.63588968913,517.04545084635,872.63588968913,517.04545084635,872.80255635579,521.21211751302,872.80255635579,521.21211751302,877.13588968913,522.87878417969,877.13588968913,522.87878417969,879.46922302246,526.87878417969,879.46922302246,526.87878417969,886.96922302246,529.54545084635,886.96922302246,529.54545084635,894.13588968913,528.54545084635,894.13588968913,528.54545084635,899.63588968913,531.37878417969,899.63588968913,531.37878417969,907.46922302246,527.04545084635,907.46922302246,527.04545084635,940.96922302246,537.87878417969,940.96922302246,537.87878417969,960.30255635579,527.57576497396,960.30255635579,527.57576497396,964.63588968913,530.07576497396,964.63588968913,530.07576497396,981.96922302246,519.40909830729,981.96922302246,519.40909830729,990.13588968913,519.24243164062,990.13588968913,519.24243164062,996.96922302246,516.74243164062,996.96922302246,516.74243164062,996.96922302246,510.74243164062,996.96922302246,510.74243164062,1042.9692230225,486.57576497396,1042.9692230225,486.57576497396,1049.6358896891,486.40909830729,1049.6358896891,486.40909830729,1056.3025563558,483.07576497396,1056.3025563558,483.07576497396,1056.3025563558,479.57576497396,1056.3025563558,479.57576497396,1070.4692230225,470.90909830729,1070.4692230225,470.90909830729,1070.6358896891,467.40909830729,1070.6358896891,467.40909830729,1081.9692230225,462.07576497396,1081.9692230225,462.07576497396,1080.3310190837,480.70373535156,1080.3310190837,480.70373535156,1069.3310190837,486.37040201823,1069.3310190837,486.37040201823,1068.3310190837,491.70373535156,1068.3310190837,491.70373535156,1054.664352417,498.5370686849,1054.664352417,498.5370686849,1053.664352417,503.0370686849,1053.664352417,503.0370686849,1048.164352417,506.37040201823,1048.164352417,506.37040201823,1040.3310190837,506.0370686849,1040.3310190837,506.0370686849,995.49768575033,532.09261067708,995.49768575033,532.09261067708,994.49768575033,537.42594401042,994.49768575033,537.42594401042,988.66435241699,539.75927734375,988.66435241699,539.75927734375,980.49768575033,539.92594401042,980.49768575033,539.92594401042,963.16435241699,550.12963867188,963.16435241699,550.12963867188,958.16435241699,548.29630533854,958.16435241699,548.29630533854,939.99768575033,559.12963867188,939.99768575033,559.12963867188,906.66435241699,547.46297200521,906.66435241699,547.46297200521,898.33101908366,550.96297200521,898.33101908366,550.96297200521,892.99768575033,548.46297200521,892.99768575033,548.46297200521,886.66435241699,549.46297200521,886.66435241699,549.46297200521,877.99768575033,547.62963867188,877.99768575033,547.62963867188,876.16435241699,542.79630533854,876.16435241699,542.79630533854,871.99768575033,540.96297200521,871.99768575033,540.96297200521,871.99768575033,536.46297200521,871.99768575033,536.46297200521,845.66435241699,525.96297200521,845.66435241699,525.96297200521"></polygon>
    <polygon data-section_name="5" data-section="5" data-build="2" data-build_name="5" data-floor="8" data-type="floor"
             class="s3d-svg__build js-s3d-svg__build"
             points="308.56888961792,298.52270507812,343.06888961792,311.77270507812,359.06888961792,307.77270507812,371.56888961792,312.27270507812,480.81888961792,280.02270507812,493.81888961792,276.27270507812,509.06888961792,275.52270507812,509.56888961792,292.27270507812,494.81888961792,293.02270507812,482.81888961792,295.77270507812,373.81888961792,329.02270507812,360.56888961792,325.25,346.06888961792,329,309.81888961792,315.75"></polygon>
    <polygon data-section_name="8" data-section="8" data-build="2" data-build_name="5" data-floor="8" data-type="floor"
             class="s3d-svg__build js-s3d-svg__build"
             points="636.16471354167,315.33333333333,636.16471354167,315.33333333333,645.66471354167,319.33333333333,645.66471354167,319.33333333333,649.16471354167,325.33333333333,649.16471354167,325.33333333333,650.83138020833,327.66666666667,650.83138020833,327.66666666667,655.66471354167,329.16666666667,655.66471354167,329.16666666667,661.16471354167,328.83333333333,661.16471354167,328.83333333333,741.998046875,355,741.998046875,355,745.498046875,358.5,745.498046875,358.5,753.16471354167,360.5,753.16471354167,360.5,759.998046875,361,759.998046875,361,768.66471354167,358.83333333333,768.66471354167,358.83333333333,780.96922302246,362.89392089844,780.96922302246,362.89392089844,780.73333231608,380.60001627604,780.73333231608,380.60001627604,767.498046875,376.16666666667,767.498046875,376.16666666667,760.498046875,378.33333333333,760.498046875,378.33333333333,752.498046875,378,752.498046875,378,746.33138020833,376.16666666667,746.33138020833,376.16666666667,742.16471354167,372,742.16471354167,372,659.83138020833,345.83333333333,659.83138020833,345.83333333333,654.998046875,345.5,654.998046875,345.5,650.498046875,344.16666666667,650.498046875,344.16666666667,648.33138020833,340.5,648.33138020833,340.5,644.83138020833,335.33333333333,644.83138020833,335.33333333333,636.498046875,332.66666666667,636.498046875,332.66666666667"></polygon>
    <polygon data-section_name="9" data-section="9" data-build="2" data-build_name="5" data-floor="8" data-type="floor"
             class="s3d-svg__build js-s3d-svg__build"
             points="780.96922302246,362.89392089844,780.96922302246,362.89392089844,794.96922302246,367.22725423177,794.96922302246,367.22725423177,796.80255635579,372.72725423177,796.80255635579,372.72725423177,798.96922302246,376.0605875651,798.96922302246,376.0605875651,805.46922302246,378.39392089844,805.46922302246,378.39392089844,812.13588968913,378.72725423177,812.13588968913,378.72725423177,848.96922302246,390.39392089844,848.96922302246,390.39392089844,849.06666564941,409.43334960938,849.06666564941,409.43334960938,811.89999898275,395.93334960938,811.89999898275,395.93334960938,805.73333231608,396.10001627604,805.73333231608,396.10001627604,800.39999898275,394.60001627604,800.39999898275,394.60001627604,797.39999898275,391.60001627604,797.39999898275,391.60001627604,795.56666564941,385.10001627604,795.56666564941,385.10001627604,780.73333231608,380.60001627604,780.73333231608,380.60001627604"></polygon>
    <polygon data-section_name="10" data-section="10" data-build="2" data-build_name="5" data-floor="8"
             data-type="floor" class="s3d-svg__build js-s3d-svg__build"
             points="846.30255635579,486.90909830729,846.30255635579,486.90909830729,873.96922302246,496.24243164062,873.96922302246,496.24243164062,874.13588968913,500.57576497396,874.13588968913,500.57576497396,877.96922302246,501.90909830729,877.96922302246,501.90909830729,880.46922302246,505.57576497396,880.46922302246,505.57576497396,887.96922302246,508.07576497396,887.96922302246,508.07576497396,895.80255635579,507.74243164062,895.80255635579,507.74243164062,900.96922302246,509.90909830729,900.96922302246,509.90909830729,908.13588968913,506.24243164062,908.13588968913,506.24243164062,942.30255635579,517.24243164062,942.30255635579,517.24243164062,961.30255635579,507.43937174479,961.30255635579,507.43937174479,965.63588968913,508.77270507812,965.63588968913,508.77270507812,983.46922302246,498.77270507812,983.46922302246,498.77270507812,990.80255635579,498.93937174479,990.80255635579,498.93937174479,997.96922302246,494.77270507812,997.96922302246,494.77270507812,998.13588968913,489.43937174479,998.13588968913,489.43937174479,1044.4692230225,465.60603841146,1044.4692230225,465.60603841146,1051.1358896891,466.43937174479,1051.1358896891,466.43937174479,1056.6358896891,463.27270507812,1056.6358896891,463.27270507812,1056.8025563558,459.27270507812,1056.8025563558,459.27270507812,1072.4692230225,451.43937174479,1072.4692230225,451.43937174479,1072.4692230225,447.60603841146,1072.4692230225,447.60603841146,1083.8025563558,442.10603841146,1083.8025563558,442.10603841146,1081.9692230225,462.07576497396,1081.9692230225,462.07576497396,1070.6358896891,467.40909830729,1070.6358896891,467.40909830729,1070.4692230225,470.90909830729,1070.4692230225,470.90909830729,1056.3025563558,479.57576497396,1056.3025563558,479.57576497396,1056.3025563558,483.07576497396,1056.3025563558,483.07576497396,1049.6358896891,486.40909830729,1049.6358896891,486.40909830729,1042.9692230225,486.57576497396,1042.9692230225,486.57576497396,996.96922302246,510.74243164062,996.96922302246,510.74243164062,996.96922302246,516.74243164062,996.96922302246,516.74243164062,990.13588968913,519.24243164062,990.13588968913,519.24243164062,981.96922302246,519.40909830729,981.96922302246,519.40909830729,964.63588968913,530.07576497396,964.63588968913,530.07576497396,960.30255635579,527.57576497396,960.30255635579,527.57576497396,940.96922302246,537.87878417969,940.96922302246,537.87878417969,907.46922302246,527.04545084635,907.46922302246,527.04545084635,899.63588968913,531.37878417969,899.63588968913,531.37878417969,894.13588968913,528.54545084635,894.13588968913,528.54545084635,886.96922302246,529.54545084635,886.96922302246,529.54545084635,879.46922302246,526.87878417969,879.46922302246,526.87878417969,877.13588968913,522.87878417969,877.13588968913,522.87878417969,872.80255635579,521.21211751302,872.80255635579,521.21211751302,872.63588968913,517.04545084635,872.63588968913,517.04545084635,845.63588968913,506.21211751302,845.63588968913,506.21211751302"></polygon>
    <polygon data-section_name="8" data-section="8" data-build="2" data-build_name="5" data-floor="9" data-type="floor"
             class="s3d-svg__build js-s3d-svg__build"
             points="635.66471354167,299.16666666667,635.66471354167,299.16666666667,645.33138020833,301.83333333333,645.33138020833,301.83333333333,647.998046875,306.16666666667,647.998046875,306.16666666667,649.66471354167,309.5,649.66471354167,309.5,654.998046875,311.16666666667,654.998046875,311.16666666667,659.66471354167,311.66666666667,659.66471354167,311.66666666667,742.83138020833,336.83333333333,742.83138020833,336.83333333333,745.66471354167,340.5,745.66471354167,340.5,752.33138020833,342.5,752.33138020833,342.5,760.66471354167,342.5,760.66471354167,342.5,768.83138020833,341,768.83138020833,341,781.498046875,345.04166666667,781.498046875,345.04166666667,780.96922302246,362.89392089844,780.96922302246,362.89392089844,768.66471354167,358.83333333333,768.66471354167,358.83333333333,759.998046875,361,759.998046875,361,753.16471354167,360.5,753.16471354167,360.5,745.498046875,358.5,745.498046875,358.5,741.998046875,355,741.998046875,355,661.16471354167,328.83333333333,661.16471354167,328.83333333333,655.66471354167,329.16666666667,655.66471354167,329.16666666667,650.83138020833,327.66666666667,650.83138020833,327.66666666667,649.16471354167,325.33333333333,649.16471354167,325.33333333333,645.66471354167,319.33333333333,645.66471354167,319.33333333333,636.16471354167,315.33333333333,636.16471354167,315.33333333333"></polygon>
    <polygon data-section_name="9" data-section="9" data-build="2" data-build_name="5" data-floor="9" data-type="floor"
             class="s3d-svg__build js-s3d-svg__build"
             points="781.498046875,345.04166666667,781.498046875,345.04166666667,795.83138020833,350.04166666667,795.83138020833,350.04166666667,796.998046875,355.04166666667,796.998046875,355.04166666667,799.998046875,358.375,799.998046875,358.375,805.83138020833,359.20833333333,805.83138020833,359.20833333333,812.16471354167,359.54166666667,812.16471354167,359.54166666667,849.16471354167,370.20833333333,849.16471354167,370.20833333333,848.96922302246,390.39392089844,848.96922302246,390.39392089844,812.13588968913,378.72725423177,812.13588968913,378.72725423177,805.46922302246,378.39392089844,805.46922302246,378.39392089844,798.96922302246,376.0605875651,798.96922302246,376.0605875651,796.80255635579,372.72725423177,796.80255635579,372.72725423177,794.96922302246,367.22725423177,794.96922302246,367.22725423177,780.96922302246,362.89392089844,780.96922302246,362.89392089844"></polygon>
    <polygon data-section_name="10" data-section="10" data-build="2" data-build_name="5" data-floor="9"
             data-type="floor" class="s3d-svg__build js-s3d-svg__build"
             points="847.16666666667,465.83333333333,847.16666666667,465.83333333333,874.83333333333,475.83333333333,874.83333333333,475.83333333333,874.16666666667,479.33333333333,874.16666666667,479.33333333333,878.5,480.5,878.5,480.5,880.33333333333,484.16666666667,880.33333333333,484.16666666667,888.66666666667,486.83333333333,888.66666666667,486.83333333333,895.33333333333,485.5,895.33333333333,485.5,901.33333333333,488.66666666667,901.33333333333,488.66666666667,909.83333333333,484.66666666667,909.83333333333,484.66666666667,943.83333333333,495,943.83333333333,495,962.5,485.66666666667,962.5,485.66666666667,967,487.16666666667,967,487.16666666667,984.83333333333,477.5,984.83333333333,477.5,992.33333333333,477.83333333333,992.33333333333,477.83333333333,999.66666666667,474.33333333333,999.66666666667,474.33333333333,1000.1666666667,469,1000.1666666667,469,1046.3333333333,446.33333333333,1046.3333333333,446.33333333333,1052.5,446.16666666667,1052.5,446.16666666667,1058.8333333333,442.83333333333,1058.8333333333,442.83333333333,1059.3333333333,438.83333333333,1059.3333333333,438.83333333333,1073.5,431.5,1073.5,431.5,1074.1666666667,427.16666666667,1074.1666666667,427.16666666667,1085.1666666667,422.66666666667,1085.1666666667,422.66666666667,1083.8025563558,442.10603841146,1083.8025563558,442.10603841146,1072.4692230225,447.60603841146,1072.4692230225,447.60603841146,1072.4692230225,451.43937174479,1072.4692230225,451.43937174479,1056.8025563558,459.27270507812,1056.8025563558,459.27270507812,1056.6358896891,463.27270507812,1056.6358896891,463.27270507812,1051.1358896891,466.43937174479,1051.1358896891,466.43937174479,1044.4692230225,465.60603841146,1044.4692230225,465.60603841146,998.13588968913,489.43937174479,998.13588968913,489.43937174479,997.96922302246,494.77270507812,997.96922302246,494.77270507812,990.80255635579,498.93937174479,990.80255635579,498.93937174479,983.46922302246,498.77270507812,983.46922302246,498.77270507812,965.63588968913,508.77270507812,965.63588968913,508.77270507812,961.30255635579,507.43937174479,961.30255635579,507.43937174479,942.30255635579,517.24243164062,942.30255635579,517.24243164062,908.13588968913,506.24243164062,908.13588968913,506.24243164062,900.96922302246,509.90909830729,900.96922302246,509.90909830729,895.80255635579,507.74243164062,895.80255635579,507.74243164062,887.96922302246,508.07576497396,887.96922302246,508.07576497396,880.46922302246,505.57576497396,880.46922302246,505.57576497396,877.96922302246,501.90909830729,877.96922302246,501.90909830729,874.13588968913,500.57576497396,874.13588968913,500.57576497396,873.96922302246,496.24243164062,873.96922302246,496.24243164062,846.30255635579,486.90909830729,846.30255635579,486.90909830729"></polygon>
    <polygon data-section_name="5" data-section="5" data-build="2" data-build_name="5" data-floor="10" data-type="floor"
             class="s3d-svg__build js-s3d-svg__build"
             points="304.56888961792,264.79544067383,341.81888961792,277.54544067383,356.06888961792,273.54544067383,370.56888961792,277.79544067383,479.81888961792,247.54544067383,492.31888961792,244.29544067383,507.81888961792,243.54544067383,508.06888961792,260.31817626953,492.81888961792,260.56817626953,479.81888961792,263.56817626953,370.81888961792,295.02270507812,357.81888961792,291.02270507812,342.31888961792,295.02270507812,306.31888961792,281.77270507812"></polygon>
    <polygon data-section_name="8" data-section="8" data-build="2" data-build_name="5" data-floor="10" data-type="floor"
             class="s3d-svg__build js-s3d-svg__build"
             points="634.66471354167,281.83333333333,634.66471354167,281.83333333333,646.16471354167,285,646.16471354167,285,647.83138020833,290,647.83138020833,290,650.498046875,292.66666666667,650.498046875,292.66666666667,655.33138020833,293.83333333333,655.33138020833,293.83333333333,661.16471354167,294.16666666667,661.16471354167,294.16666666667,742.498046875,318.66666666667,742.498046875,318.66666666667,744.83138020833,322.5,744.83138020833,322.5,751.66471354167,324.66666666667,751.66471354167,324.66666666667,760.83138020833,325.33333333333,760.83138020833,325.33333333333,769.498046875,323.33333333333,769.498046875,323.33333333333,781.16536458333,326.66666666667,781.16536458333,326.66666666667,781.498046875,345.04166666667,781.498046875,345.04166666667,768.83138020833,341,768.83138020833,341,760.66471354167,342.5,760.66471354167,342.5,752.33138020833,342.5,752.33138020833,342.5,745.66471354167,340.5,745.66471354167,340.5,742.83138020833,336.83333333333,742.83138020833,336.83333333333,659.66471354167,311.66666666667,659.66471354167,311.66666666667,654.998046875,311.16666666667,654.998046875,311.16666666667,649.66471354167,309.5,649.66471354167,309.5,647.998046875,306.16666666667,647.998046875,306.16666666667,645.33138020833,301.83333333333,645.33138020833,301.83333333333,635.66471354167,299.16666666667,635.66471354167,299.16666666667"></polygon>
    <polygon data-section_name="9" data-section="9" data-build="2" data-build_name="5" data-floor="10" data-type="floor"
             class="s3d-svg__build js-s3d-svg__build"
             points="781.16536458333,326.66666666667,781.16536458333,326.66666666667,795.99869791667,330.83333333333,795.99869791667,330.83333333333,798.66536458333,338.16666666667,798.66536458333,338.16666666667,806.49869791667,340.66666666667,806.49869791667,340.66666666667,813.49869791667,341.33333333333,813.49869791667,341.33333333333,848.99869791667,351.16666666667,848.99869791667,351.16666666667,849.16471354167,370.20833333333,849.16471354167,370.20833333333,812.16471354167,359.54166666667,812.16471354167,359.54166666667,805.83138020833,359.20833333333,805.83138020833,359.20833333333,799.998046875,358.375,799.998046875,358.375,796.998046875,355.04166666667,796.998046875,355.04166666667,795.83138020833,350.04166666667,795.83138020833,350.04166666667,781.498046875,345.04166666667,781.498046875,345.04166666667"></polygon>
    <polygon data-section_name="10" data-section="10" data-build="2" data-build_name="5" data-floor="10"
             data-type="floor" class="s3d-svg__build js-s3d-svg__build"
             points="847.5,445,847.5,445,875.16666666667,454.33333333333,875.16666666667,454.33333333333,875.16666666667,458,875.16666666667,458,879.33333333333,459.33333333333,879.33333333333,459.33333333333,882,462.83333333333,882,462.83333333333,890.66666666667,465.33333333333,890.66666666667,465.33333333333,897,465,897,465,902.33333333333,467.5,902.33333333333,467.5,910,463.83333333333,910,463.83333333333,944.5,474,944.5,474,963.5,464,963.5,464,968.5,465.5,968.5,465.5,985.83333333333,456.33333333333,985.83333333333,456.33333333333,994,456.66666666667,994,456.66666666667,1001.3333333333,453.16666666667,1001.3333333333,453.16666666667,1001.3333333333,448.83333333333,1001.3333333333,448.83333333333,1047.3333333333,425,1047.3333333333,425,1054.3333333333,425.5,1054.3333333333,425.5,1060.1666666667,422.66666666667,1060.1666666667,422.66666666667,1060.8333333333,418.5,1060.8333333333,418.5,1075.1666666667,412.16666666667,1075.1666666667,412.16666666667,1075.1666666667,407.83333333333,1075.1666666667,407.83333333333,1087,402.16666666667,1087,402.16666666667,1085.1666666667,422.66666666667,1085.1666666667,422.66666666667,1074.1666666667,427.16666666667,1074.1666666667,427.16666666667,1073.5,431.5,1073.5,431.5,1059.3333333333,438.83333333333,1059.3333333333,438.83333333333,1058.8333333333,442.83333333333,1058.8333333333,442.83333333333,1052.5,446.16666666667,1052.5,446.16666666667,1046.3333333333,446.33333333333,1046.3333333333,446.33333333333,1000.1666666667,469,1000.1666666667,469,999.66666666667,474.33333333333,999.66666666667,474.33333333333,992.33333333333,477.83333333333,992.33333333333,477.83333333333,984.83333333333,477.5,984.83333333333,477.5,967,487.16666666667,967,487.16666666667,962.5,485.66666666667,962.5,485.66666666667,943.83333333333,495,943.83333333333,495,909.83333333333,484.66666666667,909.83333333333,484.66666666667,901.33333333333,488.66666666667,901.33333333333,488.66666666667,895.33333333333,485.5,895.33333333333,485.5,888.66666666667,486.83333333333,888.66666666667,486.83333333333,880.33333333333,484.16666666667,880.33333333333,484.16666666667,878.5,480.5,878.5,480.5,874.16666666667,479.33333333333,874.16666666667,479.33333333333,874.83333333333,475.83333333333,874.83333333333,475.83333333333,847.16666666667,465.83333333333,847.16666666667,465.83333333333"></polygon>
    <polygon data-section_name="5" data-section="5" data-build="2" data-build_name="5" data-floor="11" data-type="floor"
             class="s3d-svg__build js-s3d-svg__build"
             points="303.06888961792,248.31817626953,338.81888961792,260.56817626953,354.81888961792,256.56817626953,368.56888961792,260.31817626953,478.81888961792,231.06817626953,491.31888961792,227.81817626953,507.31888961792,227.06817626953,507.81888961792,243.54544067383,492.31888961792,244.29544067383,479.81888961792,247.54544067383,370.56888961792,277.79544067383,356.06888961792,273.54544067383,341.81888961792,277.54544067383,304.56888961792,264.79544067383"></polygon>
    <polygon data-section_name="8" data-section="8" data-build="2" data-build_name="5" data-floor="11" data-type="floor"
             class="s3d-svg__build js-s3d-svg__build"
             points="634.66471354167,265,634.66471354167,265,644.998046875,268,644.998046875,268,647.16471354167,272.16666666667,647.16471354167,272.16666666667,649.66471354167,275.16666666667,649.66471354167,275.16666666667,654.16471354167,276.33333333333,654.16471354167,276.33333333333,659.998046875,276.33333333333,659.998046875,276.33333333333,742.998046875,301.16666666667,742.998046875,301.16666666667,748.66471354167,305,748.66471354167,305,753.66471354167,305.5,753.66471354167,305.5,761.33138020833,306.66666666667,761.33138020833,306.66666666667,769.16471354167,305.16666666667,769.16471354167,305.16666666667,781.16536458333,307.83333333333,781.16536458333,307.83333333333,781.16536458333,326.66666666667,781.16536458333,326.66666666667,769.498046875,323.33333333333,769.498046875,323.33333333333,760.83138020833,325.33333333333,760.83138020833,325.33333333333,751.66471354167,324.66666666667,751.66471354167,324.66666666667,744.83138020833,322.5,744.83138020833,322.5,742.498046875,318.66666666667,742.498046875,318.66666666667,661.16471354167,294.16666666667,661.16471354167,294.16666666667,655.33138020833,293.83333333333,655.33138020833,293.83333333333,650.498046875,292.66666666667,650.498046875,292.66666666667,647.83138020833,290,647.83138020833,290,646.16471354167,285,646.16471354167,285,634.66471354167,281.83333333333,634.66471354167,281.83333333333"></polygon>
    <polygon data-section_name="9" data-section="9" data-build="2" data-build_name="5" data-floor="11" data-type="floor"
             class="s3d-svg__build js-s3d-svg__build"
             points="781.16536458333,307.83333333333,781.16536458333,307.83333333333,797.16536458333,313.16666666667,797.16536458333,313.16666666667,799.49869791667,319.66666666667,799.49869791667,319.66666666667,805.66536458333,322.16666666667,805.66536458333,322.16666666667,812.16536458333,323.16666666667,812.16536458333,323.16666666667,842.16536458333,332.83333333333,842.16536458333,332.83333333333,849.49768575033,335.31481933594,849.49768575033,335.31481933594,848.99869791667,351.16666666667,848.99869791667,351.16666666667,813.49869791667,341.33333333333,813.49869791667,341.33333333333,806.49869791667,340.66666666667,806.49869791667,340.66666666667,798.66536458333,338.16666666667,798.66536458333,338.16666666667,795.99869791667,330.83333333333,795.99869791667,330.83333333333,781.16536458333,326.66666666667,781.16536458333,326.66666666667"></polygon>
    <polygon data-section_name="10" data-section="10" data-build="2" data-build_name="5" data-floor="11"
             data-type="floor" class="s3d-svg__build js-s3d-svg__build"
             points="848.83333333333,423.66666666667,848.83333333333,423.66666666667,875.83333333333,433.83333333333,875.83333333333,433.83333333333,879.5,437.66666666667,879.5,437.66666666667,882.33333333333,441.66666666667,882.33333333333,441.66666666667,890.16666666667,443.66666666667,890.16666666667,443.66666666667,898.16666666667,443.66666666667,898.16666666667,443.66666666667,903.5,445.5,903.5,445.5,911.33333333333,442,911.33333333333,442,945.33333333333,452.16666666667,945.33333333333,452.16666666667,964.33333333333,442.66666666667,964.33333333333,442.66666666667,969.5,444.5,969.5,444.5,987.83333333333,433.5,987.83333333333,433.5,995.66666666667,434.66666666667,995.66666666667,434.66666666667,1001.6666666667,431,1001.6666666667,431,1003,426.5,1003,426.5,1049.3333333333,404.16666666667,1049.3333333333,404.16666666667,1055.8333333333,404.16666666667,1055.8333333333,404.16666666667,1061.6666666667,402,1061.6666666667,402,1062.1666666667,397.66666666667,1062.1666666667,397.66666666667,1077.1666666667,390.5,1077.1666666667,390.5,1077.6666666667,386.33333333333,1077.6666666667,386.33333333333,1088.6666666667,382.5,1088.6666666667,382.5,1087,402.16666666667,1087,402.16666666667,1075.1666666667,407.83333333333,1075.1666666667,407.83333333333,1075.1666666667,412.16666666667,1075.1666666667,412.16666666667,1060.8333333333,418.5,1060.8333333333,418.5,1060.1666666667,422.66666666667,1060.1666666667,422.66666666667,1054.3333333333,425.5,1054.3333333333,425.5,1047.3333333333,425,1047.3333333333,425,1001.3333333333,448.83333333333,1001.3333333333,448.83333333333,1001.3333333333,453.16666666667,1001.3333333333,453.16666666667,994,456.66666666667,994,456.66666666667,985.83333333333,456.33333333333,985.83333333333,456.33333333333,968.5,465.5,968.5,465.5,963.5,464,963.5,464,944.5,474,944.5,474,910,463.83333333333,910,463.83333333333,902.33333333333,467.5,902.33333333333,467.5,897,465,897,465,890.66666666667,465.33333333333,890.66666666667,465.33333333333,882,462.83333333333,882,462.83333333333,879.33333333333,459.33333333333,879.33333333333,459.33333333333,875.16666666667,458,875.16666666667,458,875.16666666667,454.33333333333,875.16666666667,454.33333333333,847.5,445,847.5,445"></polygon>
    <polygon data-section_name="5" data-section="5" data-build="2" data-build_name="5" data-floor="12" data-type="floor"
             class="s3d-svg__build js-s3d-svg__build"
             points="302.06888961792,231.31817626953,338.06888961792,243.06817626953,353.31888961792,241.31817626953,367.31888961792,245.06817626953,477.31888961792,214.06817626953,490.06888961792,211.06817626953,506.48125076294,211.20001220703,507.31888961792,227.06817626953,491.31888961792,227.81817626953,478.81888961792,231.06817626953,368.56888961792,260.31817626953,354.81888961792,256.56817626953,338.81888961792,260.56817626953,303.06888961792,248.31817626953"></polygon>
    <polygon data-section_name="8" data-section="8" data-build="2" data-build_name="5" data-floor="12" data-type="floor"
             class="s3d-svg__build js-s3d-svg__build"
             points="633.66471354167,247.66666666667,633.66471354167,247.66666666667,643.66471354167,251.66666666667,643.66471354167,251.66666666667,645.66471354167,255,645.66471354167,255,648.66471354167,257,648.66471354167,257,653.33138020833,258.66666666667,653.33138020833,258.66666666667,661.33138020833,258.83333333333,661.33138020833,258.83333333333,742.16471354167,281.83333333333,742.16471354167,281.83333333333,745.498046875,285.5,745.498046875,285.5,751.33138020833,287.5,751.33138020833,287.5,757.498046875,288,757.498046875,288,762.16471354167,289.33333333333,762.16471354167,289.33333333333,769.66471354167,287.66666666667,769.66471354167,287.66666666667,781.16536458333,291.16666666667,781.16536458333,291.16666666667,781.16536458333,307.83333333333,781.16536458333,307.83333333333,769.16471354167,305.16666666667,769.16471354167,305.16666666667,761.33138020833,306.66666666667,761.33138020833,306.66666666667,753.66471354167,305.5,753.66471354167,305.5,748.66471354167,305,748.66471354167,305,742.998046875,301.16666666667,742.998046875,301.16666666667,659.998046875,276.33333333333,659.998046875,276.33333333333,654.16471354167,276.33333333333,654.16471354167,276.33333333333,649.66471354167,275.16666666667,649.66471354167,275.16666666667,647.16471354167,272.16666666667,647.16471354167,272.16666666667,644.998046875,268,644.998046875,268,634.66471354167,265,634.66471354167,265"></polygon>
    <polygon data-section_name="9" data-section="9" data-build="2" data-build_name="5" data-floor="12" data-type="floor"
             class="s3d-svg__build js-s3d-svg__build"
             points="781.16536458333,291.16666666667,781.16536458333,291.16666666667,796.49869791667,294.83333333333,796.49869791667,294.83333333333,798.16536458333,300.66666666667,798.16536458333,300.66666666667,806.66536458333,303.16666666667,806.66536458333,303.16666666667,812.16536458333,303.33333333333,812.16536458333,303.33333333333,836.16536458333,309.33333333333,836.16536458333,309.33333333333,842.49869791667,311.66666666667,842.49869791667,311.66666666667,842.16536458333,332.83333333333,842.16536458333,332.83333333333,812.16536458333,323.16666666667,812.16536458333,323.16666666667,805.66536458333,322.16666666667,805.66536458333,322.16666666667,799.49869791667,319.66666666667,799.49869791667,319.66666666667,797.16536458333,313.16666666667,797.16536458333,313.16666666667,781.16536458333,307.83333333333,781.16536458333,307.83333333333"></polygon>
    <polygon data-section_name="10" data-section="10" data-build="2" data-build_name="5" data-floor="12"
             data-type="floor" class="s3d-svg__build js-s3d-svg__build"
             points="849.13588968913,403.27270507812,849.13588968913,403.27270507812,876.30255635579,412.43937174479,876.30255635579,412.43937174479,876.30255635579,416.93937174479,876.30255635579,416.93937174479,882.63588968913,417.60603841146,882.63588968913,417.60603841146,883.13588968913,420.43937174479,883.13588968913,420.43937174479,890.80255635579,422.60603841146,890.80255635579,422.60603841146,898.46922302246,422.10603841146,898.46922302246,422.10603841146,903.63588968913,425.93937174479,903.63588968913,425.93937174479,912.96922302246,422.27270507812,912.96922302246,422.27270507812,946.63588968913,430.93937174479,946.63588968913,430.93937174479,965.30255635579,420.90909830729,965.30255635579,420.90909830729,970.96922302246,423.90909830729,970.96922302246,423.90909830729,987.96922302246,414.24243164062,987.96922302246,414.24243164062,996.30255635579,412.93937174479,996.30255635579,412.93937174479,1003.8025563558,409.77270507812,1003.8025563558,409.77270507812,1003.9692230225,405.93937174479,1003.9692230225,405.93937174479,1051.3025563558,383.93937174479,1051.3025563558,383.93937174479,1057.6358896891,383.60603841146,1057.6358896891,383.60603841146,1063.9692230225,381.27270507812,1063.9692230225,381.27270507812,1064.3025563558,377.93937174479,1064.3025563558,377.93937174479,1078.4692230225,372.10603841146,1078.4692230225,372.10603841146,1079.1358896891,367.10603841146,1079.1358896891,367.10603841146,1090.1358896891,362.10603841146,1090.1358896891,362.10603841146,1088.6666666667,382.5,1088.6666666667,382.5,1077.6666666667,386.33333333333,1077.6666666667,386.33333333333,1077.1666666667,390.5,1077.1666666667,390.5,1062.1666666667,397.66666666667,1062.1666666667,397.66666666667,1061.6666666667,402,1061.6666666667,402,1055.8333333333,404.16666666667,1055.8333333333,404.16666666667,1049.3333333333,404.16666666667,1049.3333333333,404.16666666667,1003,426.5,1003,426.5,1001.6666666667,431,1001.6666666667,431,995.66666666667,434.66666666667,995.66666666667,434.66666666667,987.83333333333,433.5,987.83333333333,433.5,969.5,444.5,969.5,444.5,964.33333333333,442.66666666667,964.33333333333,442.66666666667,945.33333333333,452.16666666667,945.33333333333,452.16666666667,911.33333333333,442,911.33333333333,442,903.5,445.5,903.5,445.5,898.16666666667,443.66666666667,898.16666666667,443.66666666667,890.16666666667,443.66666666667,890.16666666667,443.66666666667,882.33333333333,441.66666666667,882.33333333333,441.66666666667,879.5,437.66666666667,879.5,437.66666666667,875.83333333333,433.83333333333,875.83333333333,433.83333333333,848.83333333333,423.66666666667,848.83333333333,423.66666666667"></polygon>
    <polygon data-section_name="5" data-section="5" data-build="2" data-build_name="5" data-floor="13" data-type="floor"
             class="s3d-svg__build js-s3d-svg__build"
             points="300.90104293823,214.41665649414,335.65104293823,225.91665649414,352.40104293823,221.91665649414,366.40104293823,225.41665649414,476.90104293823,197.91665649414,489.90104293823,194.41665649414,505.48125076294,194.20001220703,506.48125076294,211.20001220703,490.06888961792,211.06817626953,477.31888961792,214.06817626953,367.31888961792,245.06817626953,353.31888961792,241.31817626953,338.06888961792,243.06817626953,302.06888961792,231.31817626953"></polygon>
    <polygon data-section_name="7" data-section="7" data-build="2" data-build_name="5" data-floor="13" data-type="floor"
             class="s3d-svg__build js-s3d-svg__build"
             points="632.998046875,229.33333333333,623.23125076294,226.70001220703,614.23125076294,228.70001220703,604.48125076294,226.45001220703,538.23125076294,205.70001220703,524.48125076294,202.20001220703,514.73125076294,200.20001220703,514.23125076294,194.45001220703,505.48125076294,194.20001220703,506.48125076294,211.20001220703,513.48125076294,212.20001220703,514.48125076294,216.70001220703,525.98125076294,220.70001220703,556.48125076294,227.95001220703,587.48125076294,236.95001220703,605.23125076294,243.95001220703,616.48125076294,245.95001220703,623.73125076294,244.20001220703,633.66471354167,247.66666666667"></polygon>
    <polygon data-section_name="8" data-section="8" data-build="2" data-build_name="5" data-floor="13" data-type="floor"
             class="s3d-svg__build js-s3d-svg__build"
             points="632.998046875,229.33333333333,632.998046875,229.33333333333,644.16471354167,231.83333333333,644.16471354167,231.83333333333,646.33138020833,235.16666666667,646.33138020833,235.16666666667,648.33138020833,239.33333333333,648.33138020833,239.33333333333,653.83138020833,241.16666666667,653.83138020833,241.16666666667,659.498046875,240.83333333333,659.498046875,240.83333333333,741.33138020833,264.16666666667,741.33138020833,264.16666666667,744.998046875,266.66666666667,744.998046875,266.66666666667,751.498046875,268.83333333333,751.498046875,268.83333333333,762.498046875,269.33333333333,762.498046875,269.33333333333,770.498046875,267.66666666667,770.498046875,267.66666666667,780.66536458333,270.66666666667,780.66536458333,270.66666666667,781.16536458333,291.16666666667,781.16536458333,291.16666666667,769.66471354167,287.66666666667,769.66471354167,287.66666666667,762.16471354167,289.33333333333,762.16471354167,289.33333333333,757.498046875,288,757.498046875,288,751.33138020833,287.5,751.33138020833,287.5,745.498046875,285.5,745.498046875,285.5,742.16471354167,281.83333333333,742.16471354167,281.83333333333,661.33138020833,258.83333333333,661.33138020833,258.83333333333,653.33138020833,258.66666666667,653.33138020833,258.66666666667,648.66471354167,257,648.66471354167,257,645.66471354167,255,645.66471354167,255,643.66471354167,251.66666666667,643.66471354167,251.66666666667,633.66471354167,247.66666666667,633.66471354167,247.66666666667"></polygon>
    <polygon data-section_name="9" data-section="9" data-build="2" data-build_name="5" data-floor="13" data-type="floor"
             class="s3d-svg__build js-s3d-svg__build"
             points="780.66536458333,270.66666666667,780.66536458333,270.66666666667,796.49869791667,275.66666666667,796.49869791667,275.66666666667,798.99869791667,282.33333333333,798.99869791667,282.33333333333,805.49869791667,284.66666666667,805.49869791667,284.66666666667,812.16536458333,284.33333333333,812.16536458333,284.33333333333,850.66536458333,293.16666666667,850.66536458333,293.16666666667,835.66536458333,298.16666666667,835.66536458333,298.16666666667,836.16536458333,309.33333333333,836.16536458333,309.33333333333,812.16536458333,303.33333333333,812.16536458333,303.33333333333,806.66536458333,303.16666666667,806.66536458333,303.16666666667,798.16536458333,300.66666666667,798.16536458333,300.66666666667,796.49869791667,294.83333333333,796.49869791667,294.83333333333,781.16536458333,291.16666666667,781.16536458333,291.16666666667"></polygon>
    <polygon data-section_name="10" data-section="10" data-build="2" data-build_name="5" data-floor="13"
             data-type="floor" class="s3d-svg__build js-s3d-svg__build"
             points="849.13588968913,380.48482259115,849.13588968913,380.48482259115,877.63588968913,389.15148925781,877.63588968913,389.15148925781,881.80255635579,393.48482259115,881.80255635579,393.48482259115,883.80255635579,397.48482259115,883.80255635579,397.48482259115,892.46922302246,399.65148925781,892.46922302246,399.65148925781,899.46922302246,399.65148925781,899.46922302246,399.65148925781,905.46922302246,401.31815592448,905.46922302246,401.31815592448,913.30255635579,398.15148925781,913.30255635579,398.15148925781,948.46922302246,407.81815592448,948.46922302246,407.81815592448,966.80255635579,398.65148925781,966.80255635579,398.65148925781,971.80255635579,400.31815592448,971.80255635579,400.31815592448,991.13588968913,391.48482259115,991.13588968913,391.48482259115,999.13588968913,391.48482259115,999.13588968913,391.48482259115,1004.9692230225,388.81815592448,1004.9692230225,388.81815592448,1004.6358896891,384.04545084635,1004.6358896891,384.04545084635,1052.6358896891,362.71211751302,1052.6358896891,362.71211751302,1061.4692230225,362.71211751302,1061.4692230225,362.71211751302,1066.3025563558,359.21211751302,1066.3025563558,359.21211751302,1066.4692230225,355.71211751302,1066.4692230225,355.71211751302,1080.6358896891,350.21211751302,1080.6358896891,350.21211751302,1080.8025563558,345.54545084635,1080.8025563558,345.54545084635,1091.6358896891,340.87878417969,1091.6358896891,340.87878417969,1090.1358896891,362.10603841146,1090.1358896891,362.10603841146,1079.1358896891,367.10603841146,1079.1358896891,367.10603841146,1078.4692230225,372.10603841146,1078.4692230225,372.10603841146,1064.3025563558,377.93937174479,1064.3025563558,377.93937174479,1063.9692230225,381.27270507812,1063.9692230225,381.27270507812,1057.6358896891,383.60603841146,1057.6358896891,383.60603841146,1051.3025563558,383.93937174479,1051.3025563558,383.93937174479,1003.9692230225,405.93937174479,1003.9692230225,405.93937174479,1003.8025563558,409.77270507812,1003.8025563558,409.77270507812,996.30255635579,412.93937174479,996.30255635579,412.93937174479,987.96922302246,414.24243164062,987.96922302246,414.24243164062,970.96922302246,423.90909830729,970.96922302246,423.90909830729,965.30255635579,420.90909830729,965.30255635579,420.90909830729,946.63588968913,430.93937174479,946.63588968913,430.93937174479,912.96922302246,422.27270507812,912.96922302246,422.27270507812,903.63588968913,425.93937174479,903.63588968913,425.93937174479,898.46922302246,422.10603841146,898.46922302246,422.10603841146,890.80255635579,422.60603841146,890.80255635579,422.60603841146,883.13588968913,420.43937174479,883.13588968913,420.43937174479,882.63588968913,417.60603841146,882.63588968913,417.60603841146,876.30255635579,416.93937174479,876.30255635579,416.93937174479,876.30255635579,412.43937174479,876.30255635579,412.43937174479,849.13588968913,403.27270507812,849.13588968913,403.27270507812"></polygon>
    <polygon data-section_name="5" data-section="5" data-build="2" data-build_name="5" data-floor="14" data-type="floor"
             class="s3d-svg__build js-s3d-svg__build"
             points="298.81888961792,195.70452880859,313.31888961792,200.20452880859,334.56888961792,206.70452880859,351.06888961792,204.45452880859,363.81888961792,208.20452880859,440.56888961792,189.20452880859,475.81888961792,180.70452880859,489.06888961792,178.20452880859,505.86328125,178,505.48125076294,194.20001220703,489.90104293823,194.41665649414,476.90104293823,197.91665649414,366.40104293823,225.41665649414,352.40104293823,221.91665649414,335.65104293823,225.91665649414,300.90104293823,214.41665649414"></polygon>
    <polygon data-section_name="8" data-section="8" data-build="2" data-build_name="5" data-floor="14" data-type="floor"
             class="s3d-svg__build js-s3d-svg__build"
             points="632.33138020833,211.66666666667,632.33138020833,211.66666666667,645.498046875,216,645.498046875,216,647.83138020833,221,647.83138020833,221,653.33138020833,222.66666666667,653.33138020833,222.66666666667,659.998046875,223,659.998046875,223,741.66471354167,245.83333333333,741.66471354167,245.83333333333,745.498046875,248.5,745.498046875,248.5,751.998046875,250.16666666667,751.998046875,250.16666666667,762.998046875,251,762.998046875,251,769.998046875,249.16666666667,769.998046875,249.16666666667,781.16536458333,252.41666666667,781.16536458333,252.41666666667,780.66536458333,270.66666666667,780.66536458333,270.66666666667,770.498046875,267.66666666667,770.498046875,267.66666666667,762.498046875,269.33333333333,762.498046875,269.33333333333,751.498046875,268.83333333333,751.498046875,268.83333333333,744.998046875,266.66666666667,744.998046875,266.66666666667,741.33138020833,264.16666666667,741.33138020833,264.16666666667,659.498046875,240.83333333333,659.498046875,240.83333333333,653.83138020833,241.16666666667,653.83138020833,241.16666666667,648.33138020833,239.33333333333,648.33138020833,239.33333333333,646.33138020833,235.16666666667,646.33138020833,235.16666666667,644.16471354167,231.83333333333,644.16471354167,231.83333333333,632.998046875,229.33333333333,632.998046875,229.33333333333"></polygon>
    <polygon data-section_name="9" data-section="9" data-build="2" data-build_name="5" data-floor="14" data-type="floor"
             class="s3d-svg__build js-s3d-svg__build"
             points="781.16536458333,252.41666666667,781.16536458333,252.41666666667,797.49869791667,255.91666666667,797.49869791667,255.91666666667,799.49869791667,262.75,799.49869791667,262.75,807.49869791667,265.75,807.49869791667,265.75,813.49869791667,265.41666666667,813.49869791667,265.41666666667,878.49869791667,282.75,878.49869791667,282.75,870.99869791667,283.66666666667,870.99869791667,283.66666666667,855.99869791667,289.66666666667,855.99869791667,289.66666666667,858.66536458333,290.83333333333,858.66536458333,290.83333333333,850.66536458333,293.16666666667,850.66536458333,293.16666666667,812.16536458333,284.33333333333,812.16536458333,284.33333333333,805.49869791667,284.66666666667,805.49869791667,284.66666666667,798.99869791667,282.33333333333,798.99869791667,282.33333333333,796.49869791667,275.66666666667,796.49869791667,275.66666666667,780.66536458333,270.66666666667,780.66536458333,270.66666666667"></polygon>
    <polygon data-section_name="10" data-section="10" data-build="2" data-build_name="5" data-floor="14"
             data-type="floor" class="s3d-svg__build js-s3d-svg__build"
             points="849.33101908366,358.68518066406,849.33101908366,358.68518066406,878.33101908366,367.68518066406,878.33101908366,367.68518066406,882.33101908366,371.35184733073,882.33101908366,371.35184733073,884.66435241699,375.35184733073,884.66435241699,375.35184733073,892.99768575033,377.35184733073,892.99768575033,377.35184733073,900.16435241699,377.35184733073,900.16435241699,377.35184733073,905.66435241699,379.35184733073,905.66435241699,379.35184733073,913.66435241699,376.0185139974,913.66435241699,376.0185139974,949.33101908366,385.68518066406,949.33101908366,385.68518066406,967.99768575033,376.5185139974,967.99768575033,376.5185139974,972.66435241699,378.35184733073,972.66435241699,378.35184733073,991.66435241699,369.4814860026,991.66435241699,369.4814860026,999.99768575033,369.81481933594,999.99768575033,369.81481933594,1006.3310190837,366.31481933594,1006.3310190837,366.31481933594,1006.164352417,362.64815266927,1006.164352417,362.64815266927,1053.664352417,341.31481933594,1053.664352417,341.31481933594,1060.664352417,341.31481933594,1060.664352417,341.31481933594,1067.664352417,338.14815266927,1067.664352417,338.14815266927,1067.3310190837,334.31481933594,1067.3310190837,334.31481933594,1081.664352417,328.31481933594,1081.664352417,328.31481933594,1081.664352417,325.14815266927,1081.664352417,325.14815266927,1093.4976857503,320.4814860026,1093.4976857503,320.4814860026,1091.6358896891,340.87878417969,1091.6358896891,340.87878417969,1080.8025563558,345.54545084635,1080.8025563558,345.54545084635,1080.6358896891,350.21211751302,1080.6358896891,350.21211751302,1066.4692230225,355.71211751302,1066.4692230225,355.71211751302,1066.3025563558,359.21211751302,1066.3025563558,359.21211751302,1061.4692230225,362.71211751302,1061.4692230225,362.71211751302,1052.6358896891,362.71211751302,1052.6358896891,362.71211751302,1004.6358896891,384.04545084635,1004.6358896891,384.04545084635,1004.9692230225,388.81815592448,1004.9692230225,388.81815592448,999.13588968913,391.48482259115,999.13588968913,391.48482259115,991.13588968913,391.48482259115,991.13588968913,391.48482259115,971.80255635579,400.31815592448,971.80255635579,400.31815592448,966.80255635579,398.65148925781,966.80255635579,398.65148925781,948.46922302246,407.81815592448,948.46922302246,407.81815592448,913.30255635579,398.15148925781,913.30255635579,398.15148925781,905.46922302246,401.31815592448,905.46922302246,401.31815592448,899.46922302246,399.65148925781,899.46922302246,399.65148925781,892.46922302246,399.65148925781,892.46922302246,399.65148925781,883.80255635579,397.48482259115,883.80255635579,397.48482259115,881.80255635579,393.48482259115,881.80255635579,393.48482259115,877.63588968913,389.15148925781,877.63588968913,389.15148925781,849.13588968913,380.48482259115,849.13588968913,380.48482259115"></polygon>
    <polygon data-section_name="5" data-section="5" data-build="2" data-build_name="5" data-floor="15" data-type="floor"
             class="s3d-svg__build js-s3d-svg__build"
             points="505.7265625,161,487.90104293823,161.25,474.15104293823,163,363.40104293823,191.5,349.65104293823,187.5,333.40104293823,189.25,312.40104293823,182.5,297.40104293823,177.5,298.81888961792,195.70452880859,313.31888961792,200.20452880859,334.56888961792,206.70452880859,351.06888961792,204.45452880859,363.81888961792,208.20452880859,440.56888961792,189.20452880859,475.81888961792,180.70452880859,489.06888961792,178.20452880859,505.86328125,178"></polygon>
    <polygon data-section_name="7" data-section="7" data-build="2" data-build_name="5" data-floor="15" data-type="floor"
             class="s3d-svg__build js-s3d-svg__build"
             points="505.7265625,161,512.9765625,162.25,512.9765625,168.25,538.4765625,173,583.9765625,185.75,603.9765625,193.25,615.7265625,193.25,622.2265625,192,631.66435241699,194.09259033203,632.33138020833,211.66666666667,622.4765625,208.75,613.9765625,210,602.9765625,208.25,536.7265625,189.5,515.11328125,184.5,514.11328125,178.5,505.86328125,178"></polygon>
    <polygon data-section_name="8" data-section="8" data-build="2" data-build_name="5" data-floor="15" data-type="floor"
             class="s3d-svg__build js-s3d-svg__build"
             points="631.66435241699,194.09259033203,631.66435241699,194.09259033203,642.99768575033,196.7592569987,642.99768575033,196.7592569987,643.49768575033,201.2592569987,643.49768575033,201.2592569987,646.83101908366,203.59259033203,646.83101908366,203.59259033203,652.99768575033,204.59259033203,652.99768575033,204.59259033203,659.99768575033,204.59259033203,659.99768575033,204.59259033203,743.16435241699,226.59259033203,743.16435241699,226.59259033203,746.16435241699,229.92592366536,746.16435241699,229.92592366536,751.66435241699,231.09259033203,751.66435241699,231.09259033203,757.66435241699,231.7592569987,757.66435241699,231.7592569987,762.33101908366,231.7592569987,762.33101908366,231.7592569987,768.83101908366,229.59259033203,768.83101908366,229.59259033203,781.33333333333,233.55556233724,781.33333333333,233.55556233724,781.16536458333,252.41666666667,781.16536458333,252.41666666667,769.998046875,249.16666666667,769.998046875,249.16666666667,762.998046875,251,762.998046875,251,751.998046875,250.16666666667,751.998046875,250.16666666667,745.498046875,248.5,745.498046875,248.5,741.66471354167,245.83333333333,741.66471354167,245.83333333333,659.998046875,223,659.998046875,223,653.33138020833,222.66666666667,653.33138020833,222.66666666667,647.83138020833,221,647.83138020833,221,645.498046875,216,645.498046875,216,632.33138020833,211.66666666667,632.33138020833,211.66666666667"></polygon>
    <polygon data-section_name="9" data-section="9" data-build="2" data-build_name="5" data-floor="15" data-type="floor"
             class="s3d-svg__build js-s3d-svg__build"
             points="781.33333333333,233.55556233724,781.33333333333,233.55556233724,796.5,237.72222900391,796.5,237.72222900391,799,243.22222900391,799,243.22222900391,807.66666666667,246.22222900391,807.66666666667,246.22222900391,813.66666666667,245.55556233724,813.66666666667,245.55556233724,832.5,251.05556233724,832.5,251.05556233724,909.83333333333,271.72222900391,909.83333333333,271.72222900391,902.66536458333,273.25,902.66536458333,273.25,901.66536458333,285.75,901.66536458333,285.75,909.16536458333,286.75,909.16536458333,286.75,908.49869791667,290.91666666667,908.49869791667,290.91666666667,878.49869791667,282.75,878.49869791667,282.75,813.49869791667,265.41666666667,813.49869791667,265.41666666667,807.49869791667,265.75,807.49869791667,265.75,799.49869791667,262.75,799.49869791667,262.75,797.49869791667,255.91666666667,797.49869791667,255.91666666667,781.16536458333,252.41666666667,781.16536458333,252.41666666667"></polygon>
    <polygon data-section_name="10" data-section="10" data-build="2" data-build_name="5" data-floor="15"
             data-type="floor" class="s3d-svg__build js-s3d-svg__build"
             points="849.49768575033,335.31481933594,849.49768575033,335.31481933594,879.16536458333,345.16666666667,879.16536458333,345.16666666667,879.66536458333,348.66666666667,879.66536458333,348.66666666667,883.99869791667,350.33333333333,883.99869791667,350.33333333333,885.66536458333,352.16666666667,885.66536458333,352.16666666667,894.66536458333,355.83333333333,894.66536458333,355.83333333333,901.99869791667,354.83333333333,901.99869791667,354.83333333333,906.66536458333,356.66666666667,906.66536458333,356.66666666667,915.66536458333,353.83333333333,915.66536458333,353.83333333333,950.49869791667,362.83333333333,950.49869791667,362.83333333333,969.99869791667,354.33333333333,969.99869791667,354.33333333333,974.66536458333,355.16666666667,974.66536458333,355.16666666667,994.16536458333,346.66666666667,994.16536458333,346.66666666667,1000.4986979167,347.33333333333,1000.4986979167,347.33333333333,1008.4986979167,344.16666666667,1008.4986979167,344.16666666667,1008.6653645833,340.33333333333,1008.6653645833,340.33333333333,1055.9986979167,320.33333333333,1055.9986979167,320.33333333333,1063.1653645833,320.16666666667,1063.1653645833,320.16666666667,1068.6653645833,317.16666666667,1068.6653645833,317.16666666667,1069.1653645833,313.33333333333,1069.1653645833,313.33333333333,1092.8310190837,303.81481933594,1092.8310190837,303.81481933594,1093.4976857503,320.4814860026,1093.4976857503,320.4814860026,1081.664352417,325.14815266927,1081.664352417,325.14815266927,1081.664352417,328.31481933594,1081.664352417,328.31481933594,1067.3310190837,334.31481933594,1067.3310190837,334.31481933594,1067.664352417,338.14815266927,1067.664352417,338.14815266927,1060.664352417,341.31481933594,1060.664352417,341.31481933594,1053.664352417,341.31481933594,1053.664352417,341.31481933594,1006.164352417,362.64815266927,1006.164352417,362.64815266927,1006.3310190837,366.31481933594,1006.3310190837,366.31481933594,999.99768575033,369.81481933594,999.99768575033,369.81481933594,991.66435241699,369.4814860026,991.66435241699,369.4814860026,972.66435241699,378.35184733073,972.66435241699,378.35184733073,967.99768575033,376.5185139974,967.99768575033,376.5185139974,949.33101908366,385.68518066406,949.33101908366,385.68518066406,913.66435241699,376.0185139974,913.66435241699,376.0185139974,905.66435241699,379.35184733073,905.66435241699,379.35184733073,900.16435241699,377.35184733073,900.16435241699,377.35184733073,892.99768575033,377.35184733073,892.99768575033,377.35184733073,884.66435241699,375.35184733073,884.66435241699,375.35184733073,882.33101908366,371.35184733073,882.33101908366,371.35184733073,878.33101908366,367.68518066406,878.33101908366,367.68518066406,849.33101908366,358.68518066406,849.33101908366,358.68518066406"></polygon>
    <polygon data-section_name="5" data-section="5" data-build="2" data-build_name="5" data-floor="16" data-type="floor"
             class="s3d-svg__build js-s3d-svg__build"
             points="505.2265625,149.25,504.36328125,143,489.11328125,144.25,472.11328125,148.25,410.61328125,162.75,388.86328125,167.5,362.11328125,173.25,346.86328125,170.25,329.86328125,173.5,314.36328125,169,296.90104293823,165.75,297.40104293823,177.5,312.40104293823,182.5,333.40104293823,189.25,349.65104293823,187.5,363.40104293823,191.5,474.15104293823,163,487.90104293823,161.25,505.7265625,161"></polygon>
    <polygon data-section_name="7" data-section="7" data-build="2" data-build_name="5" data-floor="16" data-type="floor"
             class="s3d-svg__build js-s3d-svg__build"
             points="631.83101908366,176.59259033203,622.4765625,174,613.2265625,176.25,524.2265625,152.25,520.2265625,153.5,505.2265625,149.25,505.7265625,161,512.9765625,162.25,512.9765625,168.25,538.4765625,173,583.9765625,185.75,603.9765625,193.25,615.7265625,193.25,622.2265625,192,631.66435241699,194.09259033203"></polygon>
    <polygon data-section_name="8" data-section="8" data-build="2" data-build_name="5" data-floor="16" data-type="floor"
             class="s3d-svg__build js-s3d-svg__build"
             points="781.16666666667,214.22222900391,781.16666666667,214.22222900391,768.83101908366,210.77779134115,768.83101908366,210.77779134115,762.83101908366,213.44445800781,762.83101908366,213.44445800781,755.66435241699,212.77779134115,755.66435241699,212.77779134115,723.16435241699,203.11112467448,723.16435241699,203.11112467448,722.83101908366,198.77779134115,722.83101908366,198.77779134115,677.66435241699,187.44445800781,677.66435241699,187.44445800781,677.33101908366,190.11112467448,677.33101908366,190.11112467448,658.66435241699,187.44445800781,658.66435241699,187.44445800781,655.16435241699,187.94445800781,655.16435241699,187.94445800781,637.99768575033,182.92592366536,637.99768575033,182.92592366536,637.33101908366,177.7592569987,637.33101908366,177.7592569987,631.83101908366,176.59259033203,631.83101908366,176.59259033203,631.66435241699,194.09259033203,631.66435241699,194.09259033203,642.99768575033,196.7592569987,642.99768575033,196.7592569987,643.49768575033,201.2592569987,643.49768575033,201.2592569987,646.83101908366,203.59259033203,646.83101908366,203.59259033203,652.99768575033,204.59259033203,652.99768575033,204.59259033203,659.99768575033,204.59259033203,659.99768575033,204.59259033203,743.16435241699,226.59259033203,743.16435241699,226.59259033203,746.16435241699,229.92592366536,746.16435241699,229.92592366536,751.66435241699,231.09259033203,751.66435241699,231.09259033203,757.66435241699,231.7592569987,757.66435241699,231.7592569987,762.33101908366,231.7592569987,762.33101908366,231.7592569987,768.83101908366,229.59259033203,768.83101908366,229.59259033203,781.33333333333,233.55556233724,781.33333333333,233.55556233724"></polygon>
    <polygon data-section_name="9" data-section="9" data-build="2" data-build_name="5" data-floor="16" data-type="floor"
             class="s3d-svg__build js-s3d-svg__build"
             points="781.16666666667,214.22222900391,781.16666666667,214.22222900391,792,217.05556233724,792,217.05556233724,791.83333333333,222.88889567057,791.83333333333,222.88889567057,812.66666666667,227.72222900391,812.66666666667,227.72222900391,815.16666666667,226.88889567057,815.16666666667,226.88889567057,834.33333333333,231.22222900391,834.33333333333,231.22222900391,836.66666666667,229.88889567057,836.66666666667,229.88889567057,890,244.88889567057,890,244.88889567057,905.83333333333,249.72222900391,905.83333333333,249.72222900391,907.16666666667,252.38889567057,907.16666666667,252.38889567057,929.16666666667,257.55556233724,929.16666666667,257.55556233724,935.16666666667,259.05556233724,935.16666666667,259.05556233724,919.66666666667,264.38889567057,919.66666666667,264.38889567057,919,267.55556233724,919,267.55556233724,909.83333333333,271.72222900391,909.83333333333,271.72222900391,832.5,251.05556233724,832.5,251.05556233724,813.66666666667,245.55556233724,813.66666666667,245.55556233724,807.66666666667,246.22222900391,807.66666666667,246.22222900391,799,243.22222900391,799,243.22222900391,796.5,237.72222900391,796.5,237.72222900391,781.33333333333,233.55556233724,781.33333333333,233.55556233724"></polygon>
    <polygon data-section_name="10" data-section="10" data-build="2" data-build_name="5" data-floor="16"
             data-type="floor" class="s3d-svg__build js-s3d-svg__build"
             points="842.49869791667,311.66666666667,842.49869791667,311.66666666667,876.16536458333,321.66666666667,876.16536458333,321.66666666667,875.99869791667,326.66666666667,875.99869791667,326.66666666667,901.49869791667,333.83333333333,901.49869791667,333.83333333333,904.49869791667,332.33333333333,904.49869791667,332.33333333333,907.49869791667,333.83333333333,907.49869791667,333.83333333333,916.99869791667,331.33333333333,916.99869791667,331.33333333333,956.16536458333,342.16666666667,956.16536458333,342.16666666667,995.66536458333,325.16666666667,995.66536458333,325.16666666667,1000.6653645833,326.66666666667,1000.6653645833,326.66666666667,1019.6653645833,318.16666666667,1019.6653645833,318.16666666667,1019.6653645833,312.33333333333,1019.6653645833,312.33333333333,1053.6653645833,298.16666666667,1053.6653645833,298.16666666667,1062.9986979167,299.66666666667,1062.9986979167,299.66666666667,1079.1653645833,293.66666666667,1079.1653645833,293.66666666667,1079.1653645833,289.66666666667,1079.1653645833,289.66666666667,1085.1653645833,288.16666666667,1085.1653645833,288.16666666667,1090.9986979167,285.16666666667,1090.9986979167,285.16666666667,1108.4986979167,287.83333333333,1108.4986979167,287.83333333333,1107.6653645833,297.16666666667,1107.6653645833,297.16666666667,1069.1653645833,313.33333333333,1069.1653645833,313.33333333333,1068.6653645833,317.16666666667,1068.6653645833,317.16666666667,1063.1653645833,320.16666666667,1063.1653645833,320.16666666667,1055.9986979167,320.33333333333,1055.9986979167,320.33333333333,1008.6653645833,340.33333333333,1008.6653645833,340.33333333333,1008.4986979167,344.16666666667,1008.4986979167,344.16666666667,1000.4986979167,347.33333333333,1000.4986979167,347.33333333333,994.16536458333,346.66666666667,994.16536458333,346.66666666667,974.66536458333,355.16666666667,974.66536458333,355.16666666667,969.99869791667,354.33333333333,969.99869791667,354.33333333333,950.49869791667,362.83333333333,950.49869791667,362.83333333333,915.66536458333,353.83333333333,915.66536458333,353.83333333333,906.66536458333,356.66666666667,906.66536458333,356.66666666667,901.99869791667,354.83333333333,901.99869791667,354.83333333333,894.66536458333,355.83333333333,894.66536458333,355.83333333333,885.66536458333,352.16666666667,885.66536458333,352.16666666667,883.99869791667,350.33333333333,883.99869791667,350.33333333333,879.66536458333,348.66666666667,879.66536458333,348.66666666667,879.16536458333,345.16666666667,879.16536458333,345.16666666667,842.16536458333,332.83333333333,842.16536458333,332.83333333333"></polygon>
</svg>