<svg preserveAspectRatio="xMidYMid slice" id="floor--svg"  viewBox="0 0 1440 810" version="1.0" xmlns="http://www.w3.org/2000/svg"><polygon  data-section_name="7" data-section="7" data-build="2" data-build_name="5" data-floor="2" data-type="floor" class="s3d-svg__build js-s3d-svg__build" points="863.33333333333,466.27779134115,874.63588968913,460.04545084635,882.13588968913,461.54545084635,897.46922302246,453.21211751302,902.80255635579,452.71211751302,907.96922302246,450.71211751302,907.9285736084,447.33333333333,943.9285736084,425,948.4285736084,425.83333333333,953.76190694173,423.16666666667,953.76190694173,419.66666666667,965.09524027507,412.59525553385,963.9285736084,428.26192220052,953.59524027507,435.09525553385,953.09524027507,439.59525553385,948.59524027507,441.92858886719,943.09524027507,443.33333333333,907.09524027507,465.66666666667,907.26190694173,468.5,903.4285736084,470.66666666667,897.09524027507,471.1904703776,882.26190694173,481.02380371094,873.59524027507,478.35713704427,863.89999898275,484.30000813802"></polygon><polygon  data-section_name="8" data-section="8" data-build="2" data-build_name="5" data-floor="2" data-type="floor" class="s3d-svg__build js-s3d-svg__build" points="739.06666564941,539.69999186198,751.66666666667,531.55554199219,761.5,533.72220865885,778.33333333333,524.22220865885,784.33333333333,524.38887532552,790.33333333333,520.72220865885,790.16666666667,516.05554199219,833.83333333333,491.44445800781,838.66666666667,491.61112467448,843.83333333333,488.94445800781,845.16666666667,483.77779134115,857.33333333333,476.27779134115,852,472.94445800781,863.33333333333,466.27779134115,863.89999898275,484.30000813802,851.73333231608,491.63334147135,857.73333231608,492.30000813802,858.23333231608,495.13334147135,844.56666564941,504.46667480469,843.73333231608,507.63334147135,839.06666564941,509.80000813802,833.06666564941,511.13334147135,790.56666564941,536.46667480469,790.39999898275,539.63334147135,784.39999898275,542.80000813802,778.06666564941,543.46667480469,761.06666564941,555.13334147135,751.56666564941,552.46667480469,739.23333231608,561.33333333333"></polygon><polygon  data-section_name="9" data-section="9" data-build="2" data-build_name="5" data-floor="2" data-type="floor" class="s3d-svg__build js-s3d-svg__build" points="550.66536458333,613.33333333333,588.39999898275,628.20003255208,605.73333231608,617.03336588542,614.73333231608,621.03336588542,635.23333231608,609.03336588542,642.56666564941,608.86665852865,649.56666564941,604.53332519531,649.73333231608,599.69999186198,701.89999898275,569.69999186198,707.73333231608,569.86665852865,714.89999898275,565.69999186198,714.73333231608,562.69999186198,732.06666564941,551.53332519531,725.06666564941,547.69999186198,739.06666564941,539.69999186198,739.23333231608,561.33333333333,729.06666564941,567,731.56666564941,568.66666666667,732.23333231608,573.16666666667,715.73333231608,582.33333333333,714.39999898275,585.83333333333,709.06666564941,589.66666666667,701.73333231608,590.33333333333,650.39999898275,623,650.23333231608,625.66666666667,643.06666564941,629.5,636.39999898275,629.5,615.56666564941,642.16666666667,607.23333231608,639.5,588.56666564941,650,551.49869791667,635.66666666667"></polygon><polygon  data-section_name="10" data-section="10" data-build="2" data-build_name="5" data-floor="2" data-type="floor" class="s3d-svg__build js-s3d-svg__build" points="284.16536458333,592.83333333333,288.66536458333,593.83333333333,289.16536458333,599.16666666667,307.16536458333,607.66666666667,308.16536458333,610.66666666667,315.49869791667,613.33333333333,322.16536458333,613.16666666667,378.16536458333,639.66666666667,378.99869791667,643.33333333333,386.99869791667,646.33333333333,394.16536458333,645.33333333333,415.49869791667,655.83333333333,418.99869791667,654.33333333333,442.16536458333,663.83333333333,451.66536458333,658.83333333333,460.66536458333,663.83333333333,481.16536458333,651.83333333333,486.99869791667,654.33333333333,491.16536458333,650.16666666667,498.49869791667,649.83333333333,505.99869791667,645.83333333333,510.16536458333,640.83333333333,510.49869791667,635.66666666667,550.66536458333,613.33333333333,551.49869791667,635.66666666667,512.16536458333,657.16666666667,512.16536458333,663.33333333333,505.49869791667,669.16666666667,499.99869791667,672.16666666667,492.99869791667,673.16666666667,487.99869791667,677.16666666667,482.99869791667,674.16666666667,461.99869791667,685.33333333333,452.16536458333,681.33333333333,443.66536458333,684.33333333333,422.66536458333,674.66666666667,417.66536458333,677.83333333333,395.99869791667,666.83333333333,387.66536458333,667.66666666667,379.99869791667,664.33333333333,379.66536458333,660.66666666667,323.49869791667,634.33333333333,316.49869791667,634.33333333333,309.66536458333,631.66666666667,309.16536458333,627.33333333333,289.66536458333,618.83333333333,289.66536458333,614.33333333333,285.16536458333,611.83333333333"></polygon><polygon  data-section_name="8" data-section="8" data-build="2" data-build_name="5" data-floor="3" data-type="floor" class="s3d-svg__build js-s3d-svg__build" points="739.13588968913,521.48482259115,751.66666666667,512.94445800781,760.33333333333,515.61112467448,778,505.61112467448,784.16666666667,505.61112467448,790.16666666667,502.61112467448,791.16666666667,498.94445800781,833.66666666667,473.88887532552,840,473.38887532552,845.16666666667,470.05554199219,846.33333333333,465.88887532552,858,458.55554199219,853,455.72220865885,864.33333333333,449.38887532552,863.33333333333,466.27779134115,852,472.94445800781,857.33333333333,476.27779134115,845.16666666667,483.77779134115,843.83333333333,488.94445800781,838.66666666667,491.61112467448,833.83333333333,491.44445800781,790.16666666667,516.05554199219,790.33333333333,520.72220865885,784.33333333333,524.38887532552,778.33333333333,524.22220865885,761.5,533.72220865885,751.66666666667,531.55554199219,739.06666564941,539.69999186198"></polygon><polygon  data-section_name="9" data-section="9" data-build="2" data-build_name="5" data-floor="3" data-type="floor" class="s3d-svg__build js-s3d-svg__build" points="549.99869791667,593.33333333333,586.46922302246,608.39396158854,604.63588968913,597.56062825521,613.63588968913,601.22729492188,635.13588968913,589.39396158854,641.13588968913,589.22729492188,648.30255635579,586.06062825521,649.30255635579,581.31815592448,701.13588968913,550.65148925781,707.96922302246,549.98482259115,714.63588968913,545.98482259115,714.96922302246,542.65148925781,730.96922302246,532.81815592448,724.63588968913,528.81815592448,739.13588968913,521.48482259115,739.06666564941,539.69999186198,725.06666564941,547.69999186198,732.06666564941,551.53332519531,714.73333231608,562.69999186198,714.89999898275,565.69999186198,707.73333231608,569.86665852865,701.89999898275,569.69999186198,649.73333231608,599.69999186198,649.56666564941,604.53332519531,642.56666564941,608.86665852865,635.23333231608,609.03336588542,614.73333231608,621.03336588542,605.73333231608,617.03336588542,588.39999898275,628.20003255208,550.66536458333,613.33333333333"></polygon><polygon  data-section_name="10" data-section="10" data-build="2" data-build_name="5" data-floor="3" data-type="floor" class="s3d-svg__build js-s3d-svg__build" points="281.49869791667,573.16666666667,285.99869791667,573.83333333333,286.66536458333,578.83333333333,305.49869791667,587.83333333333,305.99869791667,591.16666666667,313.16536458333,593.66666666667,320.49869791667,594.16666666667,376.99869791667,620.16666666667,377.49869791667,623.33333333333,385.66536458333,626.16666666667,391.66536458333,625.83333333333,414.16536458333,635.33333333333,417.99869791667,633.33333333333,440.66536458333,642.83333333333,449.49869791667,638.16666666667,459.16536458333,642.33333333333,479.99869791667,630.83333333333,485.99869791667,633.33333333333,489.99869791667,630.33333333333,497.16536458333,630.33333333333,504.99869791667,626.66666666667,509.49869791667,620.33333333333,509.49869791667,615.33333333333,549.99869791667,593.33333333333,550.66536458333,613.33333333333,510.49869791667,635.66666666667,510.16536458333,640.83333333333,505.99869791667,645.83333333333,498.49869791667,649.83333333333,491.16536458333,650.16666666667,486.99869791667,654.33333333333,481.16536458333,651.83333333333,460.66536458333,663.83333333333,451.66536458333,658.83333333333,442.16536458333,663.83333333333,418.99869791667,654.33333333333,415.49869791667,655.83333333333,394.16536458333,645.33333333333,386.99869791667,646.33333333333,378.99869791667,643.33333333333,378.16536458333,639.66666666667,322.16536458333,613.16666666667,315.49869791667,613.33333333333,308.16536458333,610.66666666667,307.16536458333,607.66666666667,289.16536458333,599.16666666667,288.66536458333,593.83333333333,284.16536458333,592.83333333333"></polygon><polygon  data-section_name="8" data-section="8" data-build="2" data-build_name="5" data-floor="4" data-type="floor" class="s3d-svg__build js-s3d-svg__build" points="738.83101908366,502.40743001302,752.33333333333,494.25,760.33333333333,496.41666666667,778.66666666667,487.08333333333,784.5,487.25,790.33333333333,484.25,790.5,480.58333333333,834.16666666667,455.58333333333,839.5,455.75,845.5,453.08333333333,845.83333333333,448.41666666667,859.16666666667,440.91666666667,853.5,437.75,864.66666666667,431.55554199219,864.33333333333,449.38887532552,853,455.72220865885,858,458.55554199219,846.33333333333,465.88887532552,845.16666666667,470.05554199219,840,473.38887532552,833.66666666667,473.88887532552,791.16666666667,498.94445800781,790.16666666667,502.61112467448,784.16666666667,505.61112467448,778,505.61112467448,760.33333333333,515.61112467448,751.66666666667,512.94445800781,739.13588968913,521.48482259115"></polygon><polygon  data-section_name="9" data-section="9" data-build="2" data-build_name="5" data-floor="4" data-type="floor" class="s3d-svg__build js-s3d-svg__build" points="548.99869791667,573.33333333333,586.16435241699,587.74076334635,604.99768575033,576.40743001302,613.16435241699,580.40743001302,634.33101908366,569.74076334635,641.49768575033,568.24076334635,648.16435241699,565.24076334635,649.49768575033,561.07409667969,701.33101908366,531.07409667969,708.16435241699,531.07409667969,714.33101908366,527.74076334635,715.33101908366,522.90743001302,730.49768575033,514.07409667969,724.33101908366,510.90743001302,738.83101908366,502.40743001302,739.13588968913,521.48482259115,724.63588968913,528.81815592448,730.96922302246,532.81815592448,714.96922302246,542.65148925781,714.63588968913,545.98482259115,707.96922302246,549.98482259115,701.13588968913,550.65148925781,649.30255635579,581.31815592448,648.30255635579,586.06062825521,641.13588968913,589.22729492188,635.13588968913,589.39396158854,613.63588968913,601.22729492188,604.63588968913,597.56062825521,586.46922302246,608.39396158854,549.99869791667,593.33333333333"></polygon><polygon  data-section_name="10" data-section="10" data-build="2" data-build_name="5" data-floor="4" data-type="floor" class="s3d-svg__build js-s3d-svg__build" points="279.99869791667,553.66666666667,284.16536458333,554.33333333333,285.16536458333,559.16666666667,303.16536458333,567.16666666667,304.49869791667,571.16666666667,311.66536458333,573.83333333333,318.16536458333,573.33333333333,374.16536458333,598.33333333333,375.66536458333,602.16666666667,383.66536458333,604.83333333333,390.66536458333,604.66666666667,413.16536458333,614.83333333333,415.99869791667,612.66666666667,438.66536458333,622.33333333333,448.16536458333,617.66666666667,457.99869791667,622.33333333333,478.99869791667,610.83333333333,483.99869791667,613.66666666667,488.99869791667,609.83333333333,495.99869791667,609.66666666667,503.49869791667,605.66666666667,507.99869791667,599.66666666667,507.66536458333,595.16666666667,548.99869791667,573.33333333333,549.99869791667,593.33333333333,509.49869791667,615.33333333333,509.49869791667,620.33333333333,504.99869791667,626.66666666667,497.16536458333,630.33333333333,489.99869791667,630.33333333333,485.99869791667,633.33333333333,479.99869791667,630.83333333333,459.16536458333,642.33333333333,449.49869791667,638.16666666667,440.66536458333,642.83333333333,417.99869791667,633.33333333333,414.16536458333,635.33333333333,391.66536458333,625.83333333333,385.66536458333,626.16666666667,377.49869791667,623.33333333333,376.99869791667,620.16666666667,320.49869791667,594.16666666667,313.16536458333,593.66666666667,305.99869791667,591.16666666667,305.49869791667,587.83333333333,286.66536458333,578.83333333333,285.99869791667,573.83333333333,281.49869791667,573.16666666667"></polygon><polygon  data-section_name="8" data-section="8" data-build="2" data-build_name="5" data-floor="5" data-type="floor" class="s3d-svg__build js-s3d-svg__build" points="738.83138020833,482.875,753.59524027507,474.92858886719,761.76190694173,477.59525553385,778.76190694173,468.26192220052,785.09524027507,468.59525553385,790.9285736084,465.26192220052,791.26190694173,461.76192220052,834.76190694173,437.6904703776,840.59524027507,437.33333333333,845.59524027507,434.66666666667,845.76190694173,430.33333333333,859.09524027507,423,853.26190694173,419.66666666667,865.26190694173,413.66666666667,864.66666666667,431.55554199219,853.5,437.75,859.16666666667,440.91666666667,845.83333333333,448.41666666667,845.5,453.08333333333,839.5,455.75,834.16666666667,455.58333333333,790.5,480.58333333333,790.33333333333,484.25,784.5,487.25,778.66666666667,487.08333333333,760.33333333333,496.41666666667,752.33333333333,494.25,738.83101908366,502.40743001302"></polygon><polygon  data-section_name="9" data-section="9" data-build="2" data-build_name="5" data-floor="5" data-type="floor" class="s3d-svg__build js-s3d-svg__build" points="548.49869791667,553.33333333333,586.33138020833,567.54166666667,603.83138020833,556.875,612.998046875,560.54166666667,634.498046875,548.54166666667,641.16471354167,549.20833333333,648.83138020833,544.54166666667,648.998046875,540.875,701.16471354167,511.875,707.83138020833,511.875,714.498046875,508.875,714.998046875,503.70833333333,731.16471354167,494.54166666667,723.998046875,491.20833333333,738.83138020833,482.875,738.83101908366,502.40743001302,724.33101908366,510.90743001302,730.49768575033,514.07409667969,715.33101908366,522.90743001302,714.33101908366,527.74076334635,708.16435241699,531.07409667969,701.33101908366,531.07409667969,649.49768575033,561.07409667969,648.16435241699,565.24076334635,641.49768575033,568.24076334635,634.33101908366,569.74076334635,613.16435241699,580.40743001302,604.99768575033,576.40743001302,586.16435241699,587.74076334635,548.99869791667,573.33333333333"></polygon><polygon  data-section_name="10" data-section="10" data-build="2" data-build_name="5" data-floor="5" data-type="floor" class="s3d-svg__build js-s3d-svg__build" points="277.16536458333,532.83333333333,281.99869791667,533.66666666667,282.49869791667,539.33333333333,300.16536458333,545.83333333333,301.49869791667,550.33333333333,309.66536458333,552.83333333333,316.49869791667,553.33333333333,372.66536458333,577.16666666667,373.49869791667,580.66666666667,381.49869791667,584.33333333333,387.99869791667,584.16666666667,410.66536458333,593.66666666667,414.66536458333,591.33333333333,437.16536458333,601.66666666667,447.16536458333,596.16666666667,456.66536458333,600.33333333333,477.49869791667,590.16666666667,483.49869791667,591.83333333333,487.49869791667,589.16666666667,495.49869791667,588.33333333333,501.49869791667,585.66666666667,507.16536458333,578.66666666667,507.49869791667,574.33333333333,548.49869791667,553.33333333333,548.99869791667,573.33333333333,507.66536458333,595.16666666667,507.99869791667,599.66666666667,503.49869791667,605.66666666667,495.99869791667,609.66666666667,488.99869791667,609.83333333333,483.99869791667,613.66666666667,478.99869791667,610.83333333333,457.99869791667,622.33333333333,448.16536458333,617.66666666667,438.66536458333,622.33333333333,415.99869791667,612.66666666667,413.16536458333,614.83333333333,390.66536458333,604.66666666667,383.66536458333,604.83333333333,375.66536458333,602.16666666667,374.16536458333,598.33333333333,318.16536458333,573.33333333333,311.66536458333,573.83333333333,304.49869791667,571.16666666667,303.16536458333,567.16666666667,285.16536458333,559.16666666667,284.16536458333,554.33333333333,279.99869791667,553.66666666667"></polygon><polygon  data-section_name="7" data-section="7" data-build="2" data-build_name="5" data-floor="6" data-type="floor" class="s3d-svg__build js-s3d-svg__build" points="865.83333333333,395.94445800781,878,390.11112467448,885.5,391.61112467448,900.33333333333,383.77779134115,906,383.61112467448,911.33333333333,381.61112467448,911.33333333333,377.94445800781,947.83333333333,357.94445800781,952,358.44445800781,957.33333333333,356.44445800781,958,352.27779134115,968.16666666667,346.38887532552,966.9285736084,364.35713704427,956.9285736084,369.1904703776,956.4285736084,372.85713704427,951.9285736084,375.02380371094,947.26190694173,374.35713704427,910.59524027507,394.76192220052,910.4285736084,398.26192220052,905.76190694173,401.09525553385,899.76190694173,401.09525553385,885.09524027507,408.92858886719,877.09524027507,406.76192220052,865.26190694173,413.66666666667"></polygon><polygon  data-section_name="8" data-section="8" data-build="2" data-build_name="5" data-floor="6" data-type="floor" class="s3d-svg__build js-s3d-svg__build" points="738.83138020833,464.70833333333,752.16666666667,456.66666666667,761,458.91666666667,779.33333333333,449.75,786.33333333333,449.41666666667,791.16666666667,446.75,791.83333333333,442.41666666667,835,419.41666666667,840.66666666667,419.58333333333,846.5,416.75,847.33333333333,411.91666666667,859.66666666667,405.41666666667,854.33333333333,402.75,865.83333333333,395.94445800781,865.26190694173,413.66666666667,853.26190694173,419.66666666667,859.09524027507,423,845.76190694173,430.33333333333,845.59524027507,434.66666666667,840.59524027507,437.33333333333,834.76190694173,437.6904703776,791.26190694173,461.76192220052,790.9285736084,465.26192220052,785.09524027507,468.59525553385,778.76190694173,468.26192220052,761.76190694173,477.59525553385,753.59524027507,474.92858886719,738.83138020833,482.875"></polygon><polygon  data-section_name="9" data-section="9" data-build="2" data-build_name="5" data-floor="6" data-type="floor" class="s3d-svg__build js-s3d-svg__build" points="547.66536458333,533.33333333333,585.33138020833,547.20833333333,604.66471354167,536.375,612.498046875,540.04166666667,633.998046875,528.375,640.83138020833,528.375,646.66471354167,525.54166666667,648.16471354167,521.04166666667,701.16471354167,492.20833333333,707.498046875,492.04166666667,714.498046875,487.875,715.498046875,483.70833333333,731.16471354167,475.375,724.83138020833,471.70833333333,738.83138020833,464.70833333333,738.83138020833,482.875,723.998046875,491.20833333333,731.16471354167,494.54166666667,714.998046875,503.70833333333,714.498046875,508.875,707.83138020833,511.875,701.16471354167,511.875,648.998046875,540.875,648.83138020833,544.54166666667,641.16471354167,549.20833333333,634.498046875,548.54166666667,612.998046875,560.54166666667,603.83138020833,556.875,586.33138020833,567.54166666667,548.49869791667,553.33333333333"></polygon><polygon  data-section_name="10" data-section="10" data-build="2" data-build_name="5" data-floor="6" data-type="floor" class="s3d-svg__build js-s3d-svg__build" points="275.16536458333,513.16666666667,279.99869791667,514.16666666667,280.16536458333,518.66666666667,298.66536458333,526.33333333333,300.16536458333,530.16666666667,308.16536458333,532.83333333333,314.99869791667,533.16666666667,371.16536458333,556.66666666667,371.16536458333,560.33333333333,380.16536458333,563.83333333333,387.49869791667,562.66666666667,409.49869791667,572.66666666667,413.66536458333,570.16666666667,436.16536458333,579.33333333333,444.66536458333,574.83333333333,454.99869791667,579.16666666667,475.66536458333,568.33333333333,482.16536458333,571.16666666667,486.66536458333,567.83333333333,494.49869791667,567.33333333333,500.49869791667,565.33333333333,505.66536458333,558.66666666667,505.66536458333,553.33333333333,547.66536458333,533.33333333333,548.49869791667,553.33333333333,507.49869791667,574.33333333333,507.16536458333,578.66666666667,501.49869791667,585.66666666667,495.49869791667,588.33333333333,487.49869791667,589.16666666667,483.49869791667,591.83333333333,477.49869791667,590.16666666667,456.66536458333,600.33333333333,447.16536458333,596.16666666667,437.16536458333,601.66666666667,414.66536458333,591.33333333333,410.66536458333,593.66666666667,387.99869791667,584.16666666667,381.49869791667,584.33333333333,373.49869791667,580.66666666667,372.66536458333,577.16666666667,316.49869791667,553.33333333333,309.66536458333,552.83333333333,301.49869791667,550.33333333333,300.16536458333,545.83333333333,282.49869791667,539.33333333333,281.99869791667,533.66666666667,277.16536458333,532.83333333333"></polygon><polygon  data-section_name="5" data-section="5" data-build="2" data-build_name="5" data-floor="7" data-type="floor" class="s3d-svg__build js-s3d-svg__build" points="974.96922302246,294.27270507812,974.46922302246,310.10603841146,986.13588968913,304.43937174479,987.30255635579,288.27270507812"></polygon><polygon  data-section_name="8" data-section="8" data-build="2" data-build_name="5" data-floor="7" data-type="floor" class="s3d-svg__build js-s3d-svg__build" points="738.83138020833,444.54166666667,753.26190694173,436.95239257812,761.76190694173,439.28572591146,778.9285736084,431.11905924479,785.59524027507,430.61905924479,790.59524027507,427.95239257812,791.26190694173,424.09525553385,835.4285736084,400.71427408854,842.26190694173,400.54760742188,846.59524027507,398.21427408854,847.59524027507,394.38094075521,860.4285736084,387.16666666667,855.59524027507,384.66666666667,866.4285736084,378.66666666667,865.83333333333,395.94445800781,854.33333333333,402.75,859.66666666667,405.41666666667,847.33333333333,411.91666666667,846.5,416.75,840.66666666667,419.58333333333,835,419.41666666667,791.83333333333,442.41666666667,791.16666666667,446.75,786.33333333333,449.41666666667,779.33333333333,449.75,761,458.91666666667,752.16666666667,456.66666666667,738.83138020833,464.70833333333"></polygon><polygon  data-section_name="9" data-section="9" data-build="2" data-build_name="5" data-floor="7" data-type="floor" class="s3d-svg__build js-s3d-svg__build" points="546.49869791667,512.33333333333,584.998046875,526.20833333333,603.33138020833,515.54166666667,612.498046875,519.375,633.33138020833,508.70833333333,639.998046875,507.70833333333,646.66471354167,505.20833333333,648.16471354167,500.20833333333,701.16471354167,472.04166666667,707.998046875,472.04166666667,714.83138020833,468.70833333333,714.83138020833,465.04166666667,731.998046875,456.20833333333,724.498046875,451.70833333333,738.83138020833,444.54166666667,738.83138020833,464.70833333333,724.83138020833,471.70833333333,731.16471354167,475.375,715.498046875,483.70833333333,714.498046875,487.875,707.498046875,492.04166666667,701.16471354167,492.20833333333,648.16471354167,521.04166666667,646.66471354167,525.54166666667,640.83138020833,528.375,633.998046875,528.375,612.498046875,540.04166666667,604.66471354167,536.375,585.33138020833,547.20833333333,547.66536458333,533.33333333333"></polygon><polygon  data-section_name="10" data-section="10" data-build="2" data-build_name="5" data-floor="7" data-type="floor" class="s3d-svg__build js-s3d-svg__build" points="272.49869791667,492.16666666667,277.66536458333,494.83333333333,278.16536458333,498.66666666667,296.49869791667,506.33333333333,298.16536458333,509.83333333333,298.16536458333,509.83333333333,304.99869791667,512.16666666667,313.16536458333,511.83333333333,368.49869791667,535.33333333333,369.66536458333,539.66666666667,377.16536458333,542.33333333333,385.99869791667,542.33333333333,407.99869791667,551.16666666667,411.66536458333,549.33333333333,435.16536458333,558.66666666667,444.66536458333,554.33333333333,453.66536458333,558.33333333333,474.99869791667,547.33333333333,480.99869791667,549.83333333333,484.99869791667,546.66666666667,492.66536458333,546.66666666667,499.16536458333,544.16666666667,505.16536458333,538.33333333333,504.66536458333,532.83333333333,546.49869791667,512.33333333333,547.66536458333,533.33333333333,505.66536458333,553.33333333333,505.66536458333,558.66666666667,500.49869791667,565.33333333333,494.49869791667,567.33333333333,486.66536458333,567.83333333333,482.16536458333,571.16666666667,475.66536458333,568.33333333333,454.99869791667,579.16666666667,444.66536458333,574.83333333333,436.16536458333,579.33333333333,413.66536458333,570.16666666667,409.49869791667,572.66666666667,387.49869791667,562.66666666667,380.16536458333,563.83333333333,371.16536458333,560.33333333333,371.16536458333,556.66666666667,314.99869791667,533.16666666667,308.16536458333,532.83333333333,300.16536458333,530.16666666667,298.66536458333,526.33333333333,280.16536458333,518.66666666667,279.99869791667,514.16666666667,275.16536458333,513.16666666667"></polygon><polygon  data-section_name="5" data-section="5" data-build="2" data-build_name="5" data-floor="8" data-type="floor" class="s3d-svg__build js-s3d-svg__build" points="988.46922302246,271.43937174479,975.96922302246,276.93937174479,974.96922302246,294.27270507812,987.30255635579,288.27270507812"></polygon><polygon  data-section_name="8" data-section="8" data-build="2" data-build_name="5" data-floor="8" data-type="floor" class="s3d-svg__build js-s3d-svg__build" points="738.83138020833,425.20833333333,753.33333333333,417.27779134115,762,420.27779134115,779.83333333333,411.61112467448,786,411.27779134115,791,408.94445800781,792.33333333333,405.55554199219,836,382.27779134115,842,382.27779134115,847.66666666667,379.44445800781,848.33333333333,375.61112467448,861,368.61112467448,855.66666666667,366.11112467448,867,360.11112467448,866.4285736084,378.66666666667,855.59524027507,384.66666666667,860.4285736084,387.16666666667,847.59524027507,394.38094075521,846.59524027507,398.21427408854,842.26190694173,400.54760742188,835.4285736084,400.71427408854,791.26190694173,424.09525553385,790.59524027507,427.95239257812,785.59524027507,430.61905924479,778.9285736084,431.11905924479,761.76190694173,439.28572591146,753.26190694173,436.95239257812,738.83138020833,444.54166666667"></polygon><polygon  data-section_name="9" data-section="9" data-build="2" data-build_name="5" data-floor="8" data-type="floor" class="s3d-svg__build js-s3d-svg__build" points="545.49869791667,491.75,583.83138020833,504.70833333333,603.16471354167,494.54166666667,611.33138020833,498.54166666667,632.998046875,486.875,638.998046875,487.70833333333,646.998046875,483.54166666667,647.498046875,480.20833333333,700.83138020833,452.54166666667,707.998046875,453.04166666667,714.83138020833,449.54166666667,715.33138020833,445.20833333333,731.33138020833,435.54166666667,725.33138020833,431.70833333333,738.83138020833,425.20833333333,738.83138020833,444.54166666667,724.498046875,451.70833333333,731.998046875,456.20833333333,714.83138020833,465.04166666667,714.83138020833,468.70833333333,707.998046875,472.04166666667,701.16471354167,472.04166666667,648.16471354167,500.20833333333,646.66471354167,505.20833333333,639.998046875,507.70833333333,633.33138020833,508.70833333333,612.498046875,519.375,603.33138020833,515.54166666667,584.998046875,526.20833333333,546.49869791667,512.33333333333"></polygon><polygon  data-section_name="10" data-section="10" data-build="2" data-build_name="5" data-floor="8" data-type="floor" class="s3d-svg__build js-s3d-svg__build" points="270.49869791667,471.91666666667,275.16536458333,472.25,276.16536458333,478.75,294.49869791667,485.75,295.99869791667,489.75,302.99869791667,490.91666666667,310.99869791667,491.75,367.66536458333,514.75,369.16536458333,519.25,376.49869791667,521.75,383.49869791667,521.25,405.99869791667,529.91666666667,409.49869791667,527.75,433.16536458333,537.25,441.16536458333,532.25,452.49869791667,536.75,473.49869791667,526.75,479.99869791667,528.75,484.16536458333,524.91666666667,491.16536458333,524.41666666667,498.49869791667,521.25,503.66536458333,516.25,503.66536458333,511.75,545.49869791667,491.75,546.49869791667,512.33333333333,504.66536458333,532.83333333333,505.16536458333,538.33333333333,499.16536458333,544.16666666667,492.66536458333,546.66666666667,484.99869791667,546.66666666667,480.99869791667,549.83333333333,474.99869791667,547.33333333333,453.66536458333,558.33333333333,444.66536458333,554.33333333333,435.16536458333,558.66666666667,411.66536458333,549.33333333333,407.99869791667,551.16666666667,385.99869791667,542.33333333333,377.16536458333,542.33333333333,369.66536458333,539.66666666667,368.49869791667,535.33333333333,313.16536458333,511.83333333333,304.99869791667,512.16666666667,298.16536458333,509.83333333333,296.49869791667,506.33333333333,278.16536458333,498.66666666667,277.66536458333,494.83333333333,272.49869791667,492.16666666667"></polygon><polygon  data-section_name="8" data-section="8" data-build="2" data-build_name="5" data-floor="9" data-type="floor" class="s3d-svg__build js-s3d-svg__build" points="738.83138020833,406,754.23333231608,398.46667480469,762.23333231608,400.30000813802,779.89999898275,391.80000813802,786.39999898275,392.30000813802,791.73333231608,390.13334147135,793.39999898275,385.80000813802,837.06666564941,363.30000813802,843.73333231608,363.80000813802,848.39999898275,360.13334147135,849.06666564941,356.80000813802,862.23333231608,349.30000813802,857.06666564941,347.96667480469,867.39999898275,342.46667480469,867,360.11112467448,855.66666666667,366.11112467448,861,368.61112467448,848.33333333333,375.61112467448,847.66666666667,379.44445800781,842,382.27779134115,836,382.27779134115,792.33333333333,405.55554199219,791,408.94445800781,786,411.27779134115,779.83333333333,411.61112467448,762,420.27779134115,753.33333333333,417.27779134115,738.83138020833,425.20833333333"></polygon><polygon  data-section_name="9" data-section="9" data-build="2" data-build_name="5" data-floor="9" data-type="floor" class="s3d-svg__build js-s3d-svg__build" points="545.16666666667,470.83333333333,583.66471354167,483.5,600.83138020833,474.16666666667,610.66471354167,477.83333333333,632.498046875,466.66666666667,638.66471354167,466.83333333333,646.498046875,463.83333333333,647.33138020833,459.33333333333,700.83138020833,432.16666666667,707.33138020833,431.66666666667,714.498046875,429.33333333333,715.498046875,425.16666666667,731.33138020833,415.83333333333,725.33138020833,411.66666666667,738.83138020833,406,738.83138020833,425.20833333333,725.33138020833,431.70833333333,731.33138020833,435.54166666667,715.33138020833,445.20833333333,714.83138020833,449.54166666667,707.998046875,453.04166666667,700.83138020833,452.54166666667,647.498046875,480.20833333333,646.998046875,483.54166666667,638.998046875,487.70833333333,632.998046875,486.875,611.33138020833,498.54166666667,603.16471354167,494.54166666667,583.83138020833,504.70833333333,545.49869791667,491.75"></polygon><polygon  data-section_name="10" data-section="10" data-build="2" data-build_name="5" data-floor="9" data-type="floor" class="s3d-svg__build js-s3d-svg__build" points="269.16666666667,451.5,273.33333333333,453,274.66666666667,457.83333333333,293.16666666667,465,294.66666666667,468.16666666667,301.33333333333,470.16666666667,307.83333333333,469.5,366,493.5,366.5,497,374.66666666667,500.16666666667,381.33333333333,499.5,404,508.33333333333,408.5,505.66666666667,431.66666666667,514.83333333333,442,511,451.16666666667,514.83333333333,472.5,504.5,478.66666666667,506.83333333333,482.66666666667,503.66666666667,490,503.66666666667,498,500.5,503.16666666667,495,503,490.5,545.16666666667,470.83333333333,545.49869791667,491.75,503.66536458333,511.75,503.66536458333,516.25,498.49869791667,521.25,491.16536458333,524.41666666667,484.16536458333,524.91666666667,479.99869791667,528.75,473.49869791667,526.75,452.49869791667,536.75,441.16536458333,532.25,433.16536458333,537.25,409.49869791667,527.75,405.99869791667,529.91666666667,383.49869791667,521.25,376.49869791667,521.75,369.16536458333,519.25,367.66536458333,514.75,310.99869791667,491.75,302.99869791667,490.91666666667,295.99869791667,489.75,294.49869791667,485.75,276.16536458333,478.75,275.16536458333,472.25,270.49869791667,471.91666666667"></polygon><polygon  data-section_name="5" data-section="5" data-build="2" data-build_name="5" data-floor="10" data-type="floor" class="s3d-svg__build js-s3d-svg__build" points="977.30255635579,246.9848429362,989.96922302246,239.31817626953,989.13588968913,255.78788248698,977.30255635579,261.28788248698"></polygon><polygon  data-section_name="8" data-section="8" data-build="2" data-build_name="5" data-floor="10" data-type="floor" class="s3d-svg__build js-s3d-svg__build" points="738.49768575033,386.20373535156,753.23333231608,378.33333333333,762.56666564941,381,779.73333231608,373,786.56666564941,372.33333333333,792.89999898275,369.83333333333,793.23333231608,366.33333333333,837.56666564941,343.83333333333,843.39999898275,344.5,848.56666564941,342,849.73333231608,338.5,862.39999898275,331.16666666667,857.39999898275,328.33333333333,868.39999898275,323.16666666667,867.39999898275,342.46667480469,857.06666564941,347.96667480469,862.23333231608,349.30000813802,849.06666564941,356.80000813802,848.39999898275,360.13334147135,843.73333231608,363.80000813802,837.06666564941,363.30000813802,793.39999898275,385.80000813802,791.73333231608,390.13334147135,786.39999898275,392.30000813802,779.89999898275,391.80000813802,762.23333231608,400.30000813802,754.23333231608,398.46667480469,738.83138020833,406"></polygon><polygon  data-section_name="9" data-section="9" data-build="2" data-build_name="5" data-floor="10" data-type="floor" class="s3d-svg__build js-s3d-svg__build" points="543.66666666667,449.5,583.16435241699,461.40743001302,600.33101908366,452.90743001302,609.83101908366,455.74076334635,631.83101908366,444.70373535156,638.83101908366,444.87040201823,644.99768575033,442.0370686849,646.66435241699,438.0370686849,700.49768575033,412.0370686849,706.83101908366,411.37040201823,713.83101908366,407.87040201823,715.16435241699,404.20373535156,731.49768575033,395.87040201823,724.49768575033,392.37040201823,738.49768575033,386.20373535156,738.83138020833,406,725.33138020833,411.66666666667,731.33138020833,415.83333333333,715.498046875,425.16666666667,714.498046875,429.33333333333,707.33138020833,431.66666666667,700.83138020833,432.16666666667,647.33138020833,459.33333333333,646.498046875,463.83333333333,638.66471354167,466.83333333333,632.498046875,466.66666666667,610.66471354167,477.83333333333,600.83138020833,474.16666666667,583.66471354167,483.5,545.16666666667,470.83333333333"></polygon><polygon  data-section_name="10" data-section="10" data-build="2" data-build_name="5" data-floor="10" data-type="floor" class="s3d-svg__build js-s3d-svg__build" points="266.33333333333,430.44445800781,272,432.77779134115,272.66666666667,436.44445800781,290,442.77779134115,291.33333333333,446.11112467448,299.33333333333,449.44445800781,305.33333333333,448.27779134115,363.66666666667,470.94445800781,363.83333333333,474.77779134115,373.83333333333,477.61112467448,379.83333333333,476.44445800781,402.66666666667,485.77779134115,407,484.11112467448,429.16666666667,492.11112467448,438.33333333333,488.27779134115,449.66666666667,492.77779134115,471.33333333333,482.27779134115,477.33333333333,484.77779134115,481.33333333333,482.11112467448,489.33333333333,482.27779134115,497.16666666667,479.11112467448,502,473.11112467448,502.33333333333,468.27779134115,543.66666666667,449.5,545.16666666667,470.83333333333,503,490.5,503.16666666667,495,498,500.5,490,503.66666666667,482.66666666667,503.66666666667,478.66666666667,506.83333333333,472.5,504.5,451.16666666667,514.83333333333,442,511,431.66666666667,514.83333333333,408.5,505.66666666667,404,508.33333333333,381.33333333333,499.5,374.66666666667,500.16666666667,366.5,497,366,493.5,307.83333333333,469.5,301.33333333333,470.16666666667,294.66666666667,468.16666666667,293.16666666667,465,274.66666666667,457.83333333333,273.33333333333,453,269.16666666667,451.5"></polygon><polygon  data-section_name="5" data-section="5" data-build="2" data-build_name="5" data-floor="11" data-type="floor" class="s3d-svg__build js-s3d-svg__build" points="991.39999898275,223.09999593099,979.56666564941,230.43332926432,976.99768575033,223.79630533854,977.73333231608,240.76666259766,977.30255635579,246.9848429362,989.96922302246,239.31817626953"></polygon><polygon  data-section_name="8" data-section="8" data-build="2" data-build_name="5" data-floor="11" data-type="floor" class="s3d-svg__build js-s3d-svg__build" points="738.66435241699,366.66666666667,754.96922302246,359.24243164062,762.63588968913,360.74243164062,780.46922302246,353.40909830729,786.80255635579,352.57576497396,791.30255635579,350.90909830729,793.13588968913,346.77270507812,837.96922302246,325.27270507812,844.13588968913,325.43937174479,849.80255635579,322.77270507812,849.96922302246,319.77270507812,863.30255635579,312.60603841146,857.96922302246,309.27270507812,869.30255635579,304.60603841146,868.39999898275,323.16666666667,857.39999898275,328.33333333333,862.39999898275,331.16666666667,849.73333231608,338.5,848.56666564941,342,843.39999898275,344.5,837.56666564941,343.83333333333,793.23333231608,366.33333333333,792.89999898275,369.83333333333,786.56666564941,372.33333333333,779.73333231608,373,762.56666564941,381,753.23333231608,378.33333333333,738.49768575033,386.20373535156"></polygon><polygon  data-section_name="9" data-section="9" data-build="2" data-build_name="5" data-floor="11" data-type="floor" class="s3d-svg__build js-s3d-svg__build" points="543.33333333333,427.61112467448,581.49768575033,440.35184733073,599.83101908366,430.35184733073,609.83101908366,434.0185139974,630.66435241699,424.5185139974,638.16435241699,423.35184733073,642.83101908366,422.0185139974,644.99768575033,417.68518066406,699.99768575033,391.33333333333,706.99768575033,390.5,713.83101908366,387.83333333333,715.16435241699,383.66666666667,730.99768575033,375.33333333333,724.99768575033,370.83333333333,738.66435241699,366.66666666667,738.49768575033,386.20373535156,724.49768575033,392.37040201823,731.49768575033,395.87040201823,715.16435241699,404.20373535156,713.83101908366,407.87040201823,706.83101908366,411.37040201823,700.49768575033,412.0370686849,646.66435241699,438.0370686849,644.99768575033,442.0370686849,638.83101908366,444.87040201823,631.83101908366,444.70373535156,609.83101908366,455.74076334635,600.33101908366,452.90743001302,583.16435241699,461.40743001302,543.66666666667,449.5"></polygon><polygon  data-section_name="10" data-section="10" data-build="2" data-build_name="5" data-floor="11" data-type="floor" class="s3d-svg__build js-s3d-svg__build" points="263.16666666667,409.22220865885,269.66666666667,411.55554199219,269.83333333333,415.05554199219,288.33333333333,421.72220865885,289.66666666667,425.22220865885,296.5,428.22220865885,304.5,428.22220865885,361.16666666667,449.22220865885,363.16666666667,452.88887532552,371,455.55554199219,378,455.72220865885,401.33333333333,463.72220865885,404.66666666667,462.22220865885,428.5,469.72220865885,437.66666666667,465.88887532552,447.33333333333,470.22220865885,470,460.22220865885,476,462.88887532552,479.16666666667,459.88887532552,487.16666666667,459.72220865885,497,455.88887532552,500.5,451.88887532552,501,446.88887532552,543.33333333333,427.61112467448,543.66666666667,449.5,502.33333333333,468.27779134115,502,473.11112467448,497.16666666667,479.11112467448,489.33333333333,482.27779134115,481.33333333333,482.11112467448,477.33333333333,484.77779134115,471.33333333333,482.27779134115,449.66666666667,492.77779134115,438.33333333333,488.27779134115,429.16666666667,492.11112467448,407,484.11112467448,402.66666666667,485.77779134115,379.83333333333,476.44445800781,373.83333333333,477.61112467448,363.83333333333,474.77779134115,363.66666666667,470.94445800781,305.33333333333,448.27779134115,299.33333333333,449.44445800781,291.33333333333,446.11112467448,290,442.77779134115,272.66666666667,436.44445800781,272,432.77779134115,266.33333333333,430.44445800781"></polygon><polygon  data-section_name="5" data-section="5" data-build="2" data-build_name="5" data-floor="12" data-type="floor" class="s3d-svg__build js-s3d-svg__build" points="992.56666564941,207.76666259766,979.39999898275,213.09999593099,976.99768575033,223.79630533854,979.56666564941,230.43332926432,991.39999898275,223.09999593099"></polygon><polygon  data-section_name="8" data-section="8" data-build="2" data-build_name="5" data-floor="12" data-type="floor" class="s3d-svg__build js-s3d-svg__build" points="738.33333333333,347.66666666667,752.33333333333,340.5,762.63588968913,340.60603841146,780.30255635579,333.93937174479,786.46922302246,332.78788248698,792.46922302246,330.62121582031,793.46922302246,326.12121582031,838.30255635579,306.63635253906,843.13588968913,306.63635253906,849.80255635579,304.30301920573,850.46922302246,300.9696858724,863.63588968913,293.30301920573,857.80255635579,291.9696858724,869.80255635579,287.30301920573,869.30255635579,304.60603841146,857.96922302246,309.27270507812,863.30255635579,312.60603841146,849.96922302246,319.77270507812,849.80255635579,322.77270507812,844.13588968913,325.43937174479,837.96922302246,325.27270507812,793.13588968913,346.77270507812,791.30255635579,350.90909830729,786.80255635579,352.57576497396,780.46922302246,353.40909830729,762.63588968913,360.74243164062,754.96922302246,359.24243164062,738.66435241699,366.66666666667"></polygon><polygon  data-section_name="9" data-section="9" data-build="2" data-build_name="5" data-floor="12" data-type="floor" class="s3d-svg__build js-s3d-svg__build" points="541.66536458333,407.75,581.66666666667,419.83333333333,600.16666666667,411.33333333333,609,412.16666666667,631.33333333333,402.33333333333,638.16666666667,402.16666666667,645.5,398.83333333333,646.16666666667,395,701.33333333333,370.33333333333,706.33333333333,370.5,713.66666666667,367.16666666667,716.33333333333,363.66666666667,731.66666666667,355.33333333333,724.83333333333,353.33333333333,738.33333333333,347.66666666667,738.66435241699,366.66666666667,724.99768575033,370.83333333333,730.99768575033,375.33333333333,715.16435241699,383.66666666667,713.83101908366,387.83333333333,706.99768575033,390.5,699.99768575033,391.33333333333,644.99768575033,417.68518066406,642.83101908366,422.0185139974,638.16435241699,423.35184733073,630.66435241699,424.5185139974,609.83101908366,434.0185139974,599.83101908366,430.35184733073,581.49768575033,440.35184733073,543.33333333333,427.61112467448"></polygon><polygon  data-section_name="10" data-section="10" data-build="2" data-build_name="5" data-floor="12" data-type="floor" class="s3d-svg__build js-s3d-svg__build" points="261.49869791667,388.25,267.16536458333,389.75,268.49869791667,395.41666666667,286.16536458333,403.25,294.49869791667,406.41666666667,301.99869791667,405.91666666667,360.16536458333,426.25,362.16536458333,430.75,369.49869791667,433.41666666667,377.16536458333,432.91666666667,382.16536458333,435.91666666667,398.66536458333,442.41666666667,404.16536458333,439.75,426.49869791667,447.75,434.66536458333,444.75,446.49869791667,449.25,468.49869791667,439.91666666667,474.16536458333,441.25,478.99869791667,438.25,486.66536458333,437.41666666667,495.16536458333,432.91666666667,500.16536458333,430.91666666667,500.49869791667,426.41666666667,541.66536458333,407.75,543.33333333333,427.61112467448,501,446.88887532552,500.5,451.88887532552,497,455.88887532552,487.16666666667,459.72220865885,479.16666666667,459.88887532552,476,462.88887532552,470,460.22220865885,447.33333333333,470.22220865885,437.66666666667,465.88887532552,428.5,469.72220865885,404.66666666667,462.22220865885,401.33333333333,463.72220865885,378,455.72220865885,371,455.55554199219,363.16666666667,452.88887532552,361.16666666667,449.22220865885,304.5,428.22220865885,296.5,428.22220865885,289.66666666667,425.22220865885,288.33333333333,421.72220865885,269.83333333333,415.05554199219,269.66666666667,411.55554199219,263.16666666667,409.22220865885"></polygon><polygon  data-section_name="5" data-section="5" data-build="2" data-build_name="5" data-floor="13" data-type="floor" class="s3d-svg__build js-s3d-svg__build" points="994.39999898275,189.59999593099,992.56666564941,207.76666259766,979.39999898275,213.09999593099,978.33101908366,207.09259033203,978.56666564941,195.93332926432"></polygon><polygon  data-section_name="7" data-section="7" data-build="2" data-build_name="5" data-floor="13" data-type="floor" class="s3d-svg__build js-s3d-svg__build" points="870.16666666667,266.83333333333,881.66435241699,260.96297200521,889.49768575033,263.29630533854,906.16435241699,255.29630533854,907.16435241699,256.46297200521,912.16435241699,256.29630533854,916.33101908366,253.12963867188,916.49768575033,249.79630533854,953.99768575033,233.29630533854,954.99768575033,235.12963867188,959.66435241699,234.29630533854,964.66435241699,232.46297200521,964.49768575033,229.29630533854,976.99768575033,223.79630533854,977.73333231608,240.76666259766,964.89999898275,247.26666259766,963.39999898275,250.93332926432,959.06666564941,253.09999593099,953.56666564941,252.43332926432,915.73333231608,269.76666259766,915.06666564941,273.76666259766,910.89999898275,275.26666259766,904.39999898275,275.09999593099,889.73333231608,282.43332926432,879,282.5,869.80255635579,287.30301920573"></polygon><polygon  data-section_name="8" data-section="8" data-build="2" data-build_name="5" data-floor="13" data-type="floor" class="s3d-svg__build js-s3d-svg__build" points="738.49768575033,324.29630533854,753.16666666667,318.16666666667,763,320.33333333333,781,312.5,787.33333333333,312.5,792.5,311,794.5,306.33333333333,839.5,287,845.33333333333,287.5,851,283.66666666667,851.5,280.5,864.33333333333,274.33333333333,859.16666666667,272.33333333333,870.16666666667,266.83333333333,869.80255635579,287.30301920573,857.80255635579,291.9696858724,863.63588968913,293.30301920573,850.46922302246,300.9696858724,849.80255635579,304.30301920573,843.13588968913,306.63635253906,838.30255635579,306.63635253906,793.46922302246,326.12121582031,792.46922302246,330.62121582031,786.46922302246,332.78788248698,780.30255635579,333.93937174479,762.63588968913,340.60603841146,752.33333333333,340.5,738.33333333333,347.66666666667"></polygon><polygon  data-section_name="9" data-section="9" data-build="2" data-build_name="5" data-floor="13" data-type="floor" class="s3d-svg__build js-s3d-svg__build" points="540.99869791667,383.91666666667,580.498046875,395.25,600.66471354167,385.41666666667,608.998046875,389.58333333333,630.66471354167,380.25,638.16471354167,381.08333333333,643.66471354167,378.41666666667,643.83138020833,374.75,700.83138020833,348.91666666667,707.498046875,349.58333333333,713.83101908366,346.35184733073,714.49768575033,342.0185139974,731.66435241699,335.29630533854,724.33101908366,329.96297200521,738.49768575033,324.29630533854,738.33333333333,347.66666666667,724.83333333333,353.33333333333,731.66666666667,355.33333333333,716.33333333333,363.66666666667,713.66666666667,367.16666666667,706.33333333333,370.5,701.33333333333,370.33333333333,646.16666666667,395,645.5,398.83333333333,638.16666666667,402.16666666667,631.33333333333,402.33333333333,609,412.16666666667,600.16666666667,411.33333333333,581.66666666667,419.83333333333,541.66536458333,407.75"></polygon><polygon  data-section_name="10" data-section="10" data-build="2" data-build_name="5" data-floor="13" data-type="floor" class="s3d-svg__build js-s3d-svg__build" points="259.16536458333,366.41666666667,264.16536458333,367.41666666667,264.66536458333,371.75,284.16536458333,377.41666666667,284.66536458333,381.41666666667,292.16536458333,384.41666666667,300.49869791667,384.25,358.66536458333,404.41666666667,358.99869791667,408.41666666667,366.66536458333,410.75,374.16536458333,410.41666666667,397.49869791667,418.25,401.49869791667,416.75,444.99869791667,431.91666666667,452.66536458333,429.41666666667,451.99869791667,421.91666666667,467.16536458333,414.41666666667,473.16536458333,416.91666666667,477.16536458333,414.91666666667,484.99869791667,414.75,492.99869791667,411.91666666667,493.16536458333,408.75,498.99869791667,405.91666666667,498.49869791667,401.91666666667,540.99869791667,383.91666666667,541.66536458333,407.75,500.49869791667,426.41666666667,500.16536458333,430.91666666667,495.16536458333,432.91666666667,486.66536458333,437.41666666667,478.99869791667,438.25,474.16536458333,441.25,468.49869791667,439.91666666667,446.49869791667,449.25,434.66536458333,444.75,426.49869791667,447.75,404.16536458333,439.75,398.66536458333,442.41666666667,382.16536458333,435.91666666667,377.16536458333,432.91666666667,369.49869791667,433.41666666667,362.16536458333,430.75,360.16536458333,426.25,301.99869791667,405.91666666667,294.49869791667,406.41666666667,286.16536458333,403.25,268.49869791667,395.41666666667,267.16536458333,389.75,261.49869791667,388.25"></polygon><polygon  data-section_name="5" data-section="5" data-build="2" data-build_name="5" data-floor="14" data-type="floor" class="s3d-svg__build js-s3d-svg__build" points="995.33333333333,172.66666666667,983,180,978.06666564941,182.53332519531,978.56666564941,189.69999186198,978.56666564941,195.93332926432,994.39999898275,189.59999593099"></polygon><polygon  data-section_name="8" data-section="8" data-build="2" data-build_name="5" data-floor="14" data-type="floor" class="s3d-svg__build js-s3d-svg__build" points="738.83101908366,303.53702799479,752.99768575033,298.20369466146,761.49768575033,300.70369466146,788.49768575033,292.64815266927,793.83101908366,289.64815266927,793.66435241699,286.64815266927,839.49768575033,267.64815266927,846.49768575033,267.14815266927,851.33101908366,265.4814860026,851.33101908366,261.9814860026,865.16435241699,255.31481933594,858.33101908366,252.81481933594,870.16435241699,248.31481933594,870.16666666667,266.83333333333,859.16666666667,272.33333333333,864.33333333333,274.33333333333,851.5,280.5,851,283.66666666667,845.33333333333,287.5,839.5,287,794.5,306.33333333333,792.5,311,787.33333333333,312.5,781,312.5,763,320.33333333333,753.16666666667,318.16666666667,738.49768575033,324.29630533854"></polygon><polygon  data-section_name="9" data-section="9" data-build="2" data-build_name="5" data-floor="14" data-type="floor" class="s3d-svg__build js-s3d-svg__build" points="540.16536458333,361.41666666667,579.83101908366,372.55558268229,600.33101908366,363.55558268229,607.66435241699,367.88891601562,629.99768575033,358.22224934896,638.16435241699,358.22224934896,643.99768575033,355.88891601562,644.49768575033,351.55558268229,700.498046875,328.5,707.33138020833,328.33333333333,713.998046875,326.16666666667,713.998046875,321.66666666667,731.49869791667,314.33333333333,724.66536458333,308.83333333333,738.83101908366,303.53702799479,738.49768575033,324.29630533854,724.33101908366,329.96297200521,731.66435241699,335.29630533854,714.49768575033,342.0185139974,713.83101908366,346.35184733073,707.498046875,349.58333333333,700.83138020833,348.91666666667,643.83138020833,374.75,643.66471354167,378.41666666667,638.16471354167,381.08333333333,630.66471354167,380.25,608.998046875,389.58333333333,600.66471354167,385.41666666667,580.498046875,395.25,540.99869791667,383.91666666667"></polygon><polygon  data-section_name="10" data-section="10" data-build="2" data-build_name="5" data-floor="14" data-type="floor" class="s3d-svg__build js-s3d-svg__build" points="255.99869791667,342.75,261.99869791667,344.91666666667,262.49869791667,348.91666666667,282.16536458333,355.41666666667,282.66536458333,359.41666666667,289.66536458333,362.25,296.66536458333,361.25,356.49869791667,381.41666666667,356.66536458333,385.41666666667,364.99869791667,387.91666666667,371.99869791667,387.75,394.99869791667,395.75,399.16536458333,393.41666666667,443.99869791667,408.91666666667,451.49869791667,405.75,450.49869791667,398.91666666667,465.66536458333,392.25,470.99869791667,394.41666666667,476.66536458333,391.75,483.16536458333,392.41666666667,491.99869791667,389.41666666667,492.49869791667,385.75,497.66536458333,382.41666666667,497.66536458333,378.91666666667,540.16536458333,361.41666666667,540.99869791667,383.91666666667,498.49869791667,401.91666666667,498.99869791667,405.91666666667,493.16536458333,408.75,492.99869791667,411.91666666667,484.99869791667,414.75,477.16536458333,414.91666666667,473.16536458333,416.91666666667,467.16536458333,414.41666666667,451.99869791667,421.91666666667,452.66536458333,429.41666666667,444.99869791667,431.91666666667,401.49869791667,416.75,397.49869791667,418.25,374.16536458333,410.41666666667,366.66536458333,410.75,358.99869791667,408.41666666667,358.66536458333,404.41666666667,300.49869791667,384.25,292.16536458333,384.41666666667,284.66536458333,381.41666666667,284.16536458333,377.41666666667,264.66536458333,371.75,264.16536458333,367.41666666667,259.16536458333,366.41666666667"></polygon><polygon  data-section_name="5" data-section="5" data-build="2" data-build_name="5" data-floor="15" data-type="floor" class="s3d-svg__build js-s3d-svg__build" points="979.83333333333,164.33333333333,986.49768575033,159.22222900391,996.16435241699,155.72222900391,995.33333333333,172.66666666667,983,180,982.66666666667,174.33333333333,979.66666666667,174"></polygon><polygon  data-section_name="7" data-section="7" data-build="2" data-build_name="5" data-floor="15" data-type="floor" class="s3d-svg__build js-s3d-svg__build" points="870.66536458333,228.66666666667,883.56666564941,224.19999186198,892.73333231608,225.36665852865,907.23333231608,219.03332519531,913.06666564941,219.19999186198,917.89999898275,217.53332519531,918.56666564941,214.36665852865,956.23333231608,198.69999186198,962.06666564941,199.19999186198,966.89999898275,196.86665852865,967.06666564941,194.19999186198,978.56666564941,189.69999186198,978.33101908366,207.09259033203,965.33101908366,211.42592366536,965.16435241699,214.42592366536,960.49768575033,216.7592569987,954.66435241699,216.7592569987,918.16435241699,232.7592569987,917.16435241699,235.7592569987,912.66435241699,237.7592569987,906.16435241699,238.09259033203,890.49768575033,244.42592366536,882.83101908366,241.92592366536,870.16435241699,248.31481933594"></polygon><polygon  data-section_name="8" data-section="8" data-build="2" data-build_name="5" data-floor="15" data-type="floor" class="s3d-svg__build js-s3d-svg__build" points="738.5,284.83333333333,753.99869791667,277.83333333333,763.99869791667,279.83333333333,782.16536458333,271.83333333333,788.99869791667,271.83333333333,794.16536458333,269.83333333333,796.49869791667,266.83333333333,839.99869791667,248.16666666667,846.66536458333,247.66666666667,851.99869791667,245.83333333333,852.66536458333,243.16666666667,865.66536458333,236.66666666667,865.99869791667,231.33333333333,870.66536458333,228.66666666667,870.16435241699,248.31481933594,858.33101908366,252.81481933594,858.33101908366,254.9814860026,865.16435241699,255.31481933594,851.33101908366,261.9814860026,851.33101908366,265.4814860026,846.49768575033,267.14815266927,839.49768575033,267.64815266927,793.66435241699,286.64815266927,793.83101908366,289.64815266927,788.49768575033,292.64815266927,761.49768575033,300.70369466146,752.99768575033,298.20369466146,738.83101908366,303.53702799479"></polygon><polygon  data-section_name="9" data-section="9" data-build="2" data-build_name="5" data-floor="15" data-type="floor" class="s3d-svg__build js-s3d-svg__build" points="539.16471354167,339.79166666667,580,350.33333333333,598.5,343,608.33333333333,344.16666666667,628.66666666667,335.83333333333,637.83333333333,336.33333333333,645.33333333333,333.16666666667,645.16666666667,330.16666666667,700.5,307,707.33333333333,306.83333333333,714.5,304.5,714.5,299.83333333333,732.66666666667,293,732.66666666667,287,738.5,284.83333333333,738.83101908366,303.53702799479,724.66536458333,308.83333333333,731.49869791667,314.33333333333,713.998046875,321.66666666667,713.998046875,326.16666666667,707.33138020833,328.33333333333,700.498046875,328.5,644.49768575033,351.55558268229,643.99768575033,355.88891601562,638.16435241699,358.22224934896,629.99768575033,358.22224934896,607.66435241699,367.88891601562,600.33101908366,363.55558268229,579.83101908366,372.55558268229,540.16536458333,361.41666666667"></polygon><polygon  data-section_name="10" data-section="10" data-build="2" data-build_name="5" data-floor="15" data-type="floor" class="s3d-svg__build js-s3d-svg__build" points="253.83138020833,322.95833333333,260.33138020833,324.625,260.33138020833,328.125,278.83138020833,333.95833333333,280.498046875,337.79166666667,286.998046875,340.125,294.83138020833,339.45833333333,353.83138020833,357.95833333333,354.66471354167,362.29166666667,362.33138020833,364.79166666667,370.33138020833,365.29166666667,429.16471354167,384.29166666667,463.998046875,369.45833333333,470.33138020833,371.29166666667,474.66471354167,368.625,483.66471354167,368.79166666667,492.498046875,365.45833333333,492.16471354167,361.95833333333,496.498046875,360.125,496.33138020833,356.45833333333,539.16471354167,339.79166666667,540.16536458333,361.41666666667,497.66536458333,378.91666666667,497.66536458333,382.41666666667,492.49869791667,385.75,491.99869791667,389.41666666667,483.16536458333,392.41666666667,476.66536458333,391.75,470.99869791667,394.41666666667,465.66536458333,392.25,450.49869791667,398.91666666667,451.49869791667,405.75,443.99869791667,408.91666666667,399.16536458333,393.41666666667,394.99869791667,395.75,371.99869791667,387.75,364.99869791667,387.91666666667,356.66536458333,385.41666666667,356.49869791667,381.41666666667,296.66536458333,361.25,289.66536458333,362.25,282.66536458333,359.41666666667,282.16536458333,355.41666666667,262.49869791667,348.91666666667,261.99869791667,344.91666666667,255.99869791667,342.75"></polygon><polygon  data-section_name="5" data-section="5" data-build="2" data-build_name="5" data-floor="16" data-type="floor" class="s3d-svg__build js-s3d-svg__build" points="963.83101908366,151.22222900391,976.49768575033,145.88889567057,979.83101908366,147.38889567057,990.33101908366,142.72222900391,990.99768575033,139.55556233724,996.16435241699,138.55556233724,996.16435241699,155.72222900391,986.49768575033,159.22222900391,983.33101908366,157.55556233724,979.66435241699,157.88889567057,978.16435241699,153.72222900391"></polygon><polygon  data-section_name="7" data-section="7" data-build="2" data-build_name="5" data-floor="16" data-type="floor" class="s3d-svg__build js-s3d-svg__build" points="870.16536458333,206.83333333333,903.998046875,193.91666666667,917.33138020833,196.41666666667,960.66471354167,179.75,960.66471354167,170.91666666667,979.83333333333,164.33333333333,979.66666666667,174,982.66666666667,174.33333333333,983,180,978.06666564941,182.53332519531,978.56666564941,189.69999186198,967.06666564941,194.19999186198,966.89999898275,196.86665852865,962.06666564941,199.19999186198,956.23333231608,198.69999186198,918.56666564941,214.36665852865,917.89999898275,217.53332519531,913.06666564941,219.19999186198,907.23333231608,219.03332519531,892.73333231608,225.36665852865,883.56666564941,224.19999186198,870.66536458333,228.66666666667"></polygon><polygon  data-section_name="8" data-section="8" data-build="2" data-build_name="5" data-floor="16" data-type="floor" class="s3d-svg__build js-s3d-svg__build" points="738.16471354167,260.375,779.16536458333,243.66666666667,795.66536458333,247.33333333333,845.66536458333,226.83333333333,845.49869791667,217.33333333333,870.16536458333,206.83333333333,870.66536458333,228.66666666667,865.99869791667,231.33333333333,865.66536458333,236.66666666667,852.66536458333,243.16666666667,851.99869791667,245.83333333333,846.66536458333,247.66666666667,839.99869791667,248.16666666667,796.49869791667,266.83333333333,794.16536458333,269.83333333333,788.99869791667,271.83333333333,782.16536458333,271.83333333333,763.99869791667,279.83333333333,753.99869791667,277.83333333333,738.5,284.83333333333"></polygon><polygon  data-section_name="9" data-section="9" data-build="2" data-build_name="5" data-floor="16" data-type="floor" class="s3d-svg__build js-s3d-svg__build" points="538.16471354167,317.79166666667,577,324.5,628.66666666667,305.16666666667,644.66666666667,308.83333333333,705.33333333333,283.83333333333,704.66666666667,272.83333333333,738.16471354167,260.375,738.33138020833,273.54166666667,738.5,284.83333333333,732.66666666667,287,732.66666666667,293,714.5,299.83333333333,714.5,304.5,707.33333333333,306.83333333333,700.5,307,645.16666666667,330.16666666667,645.33333333333,333.16666666667,637.83333333333,336.33333333333,628.66666666667,335.83333333333,608.33333333333,344.16666666667,598.5,343,580,350.33333333333,539.16471354167,339.79166666667"></polygon><polygon  data-section_name="10" data-section="10" data-build="2" data-build_name="5" data-floor="16" data-type="floor" class="s3d-svg__build js-s3d-svg__build" points="251.16471354167,305.125,266.998046875,310.29166666667,266.998046875,312.79166666667,287.998046875,319.625,295.498046875,316.45833333333,341.16471354167,330.625,342.33138020833,336.125,364.16471354167,344.29166666667,369.16471354167,342.79166666667,392.33138020833,349.625,404.998046875,344.45833333333,409.66471354167,346.79166666667,434.16471354167,337.625,438.998046875,337.625,468.83138020833,326.45833333333,484.83138020833,331.45833333333,504.498046875,323.95833333333,512.998046875,327.29166666667,538.16471354167,317.79166666667,539.16471354167,339.79166666667,496.33138020833,356.45833333333,496.498046875,360.125,492.16471354167,361.95833333333,492.498046875,365.45833333333,483.66471354167,368.79166666667,474.66471354167,368.625,470.33138020833,371.29166666667,463.998046875,369.45833333333,429.16471354167,384.29166666667,370.33138020833,365.29166666667,362.33138020833,364.79166666667,354.66471354167,362.29166666667,353.83138020833,357.95833333333,294.83138020833,339.45833333333,286.998046875,340.125,280.498046875,337.79166666667,278.83138020833,333.95833333333,260.33138020833,328.125,260.33138020833,324.625,253.83138020833,322.95833333333"></polygon><polygon  data-section_name="1" data-section="1" data-build="4" data-build_name="1" data-floor="16" data-type="floor" class="s3d-svg__build js-s3d-svg__build" points="302.953125,225,302.953125,225,461.953125,217,461.953125,217,461.953125,258,461.953125,258,313.953125,260,313.953125,260"></polygon><polygon  data-section_name="2" data-section="2" data-build="4" data-build_name="1" data-floor="16" data-type="floor" class="s3d-svg__build js-s3d-svg__build" points="523.75,462,679.75,403,742.75,452,533.75,499"></polygon></svg>