<svg preserveAspectRatio="xMidYMid slice" id="floor--svg"  viewBox="0 0 1440 810" version="1.0" xmlns="http://www.w3.org/2000/svg"><polygon  data-section_name="7" data-section="7" data-build="2" data-build_name="5" data-floor="2" data-type="floor" class="s3d-svg__build js-s3d-svg__build" points="602.53472391764,541.66666666667,619.05859375,548.16666666667,612.55859375,552.16666666667,748.55859375,610.33333333333,756.55859375,606.16666666667,776.39192708333,614.16666666667,817.86805725098,590.88887532552,817.70139058431,613.05554199219,776.05859375,637.16666666667,755.89192708333,626.83333333333,749.39192708333,631.66666666667,611.89192708333,572.16666666667,620.05859375,567.33333333333,602.36805725098,561.83333333333"></polygon><polygon  data-section_name="8" data-section="8" data-build="2" data-build_name="5" data-floor="2" data-type="floor" class="s3d-svg__build js-s3d-svg__build" points="452.77662150065,476.81481933594,467.36805725098,483.16666666667,462.36805725098,488.33333333333,579.03472391764,537.16666666667,584.53472391764,533.66666666667,602.53472391764,541.66666666667,602.36805725098,561.83333333333,587.70139058431,555.16666666667,579.70139058431,557.66666666667,461.70139058431,507,462.03472391764,502.5,469.70139058431,499,453.27662150065,491.0185139974"></polygon><polygon  data-section_name="9" data-section="9" data-build="2" data-build_name="5" data-floor="2" data-type="floor" class="s3d-svg__build js-s3d-svg__build" points="331.27662150065,431.14815266927,432.44328816732,473.4814860026,437.44328816732,470.81481933594,452.77662150065,476.81481933594,453.27662150065,491.0185139974,453.27662150065,491.0185139974,441.44328816732,487.68518066406,434.44328816732,490.0185139974,331.44328816732,445.35184733073,337.44328816732,443.35184733073,330.77662150065,446.0185139974"></polygon><polygon  data-section_name="10" data-section="10" data-build="2" data-build_name="5" data-floor="2" data-type="floor" class="s3d-svg__build js-s3d-svg__build" points="297.65104166667,384.83333333333,305.65104166667,388.66666666667,306.984375,394,310.484375,397.16666666667,315.81770833333,397.66666666667,322.15104166667,398.33333333333,323.15104166667,416.5,315.65104166667,415.66666666667,311.15104166667,414.16666666667,308.15104166667,411.16666666667,307.15104166667,407.83333333333,299.31770833333,403.66666666667"></polygon><polygon  data-section_name="8" data-section="8" data-build="2" data-build_name="5" data-floor="3" data-type="floor" class="s3d-svg__build js-s3d-svg__build" points="451.77662150065,459.4814860026,466.36805725098,465.55554199219,461.70139058431,468.88887532552,577.86805725098,518.88887532552,584.03472391764,516.22220865885,601.70139058431,522.55554199219,602.53472391764,541.66666666667,584.53472391764,533.66666666667,579.03472391764,537.16666666667,462.36805725098,488.33333333333,467.36805725098,483.16666666667,452.77662150065,476.81481933594"></polygon><polygon  data-section_name="9" data-section="9" data-build="2" data-build_name="5" data-floor="3" data-type="floor" class="s3d-svg__build js-s3d-svg__build" points="323.60995483398,404.81481933594,334.60995483398,409.4814860026,329.27662150065,414.81481933594,431.44328816732,455.31481933594,436.77662150065,452.4814860026,451.77662150065,459.4814860026,452.77662150065,476.81481933594,437.44328816732,470.81481933594,432.44328816732,473.4814860026,331.27662150065,431.14815266927,336.94328816732,426.4814860026,325.77662150065,423.31481933594,323.15104166667,416.5"></polygon><polygon  data-section_name="10" data-section="10" data-build="2" data-build_name="5" data-floor="3" data-type="floor" class="s3d-svg__build js-s3d-svg__build" points="296.81770833333,370.83333333333,305.15104166667,374.66666666667,307.65104166667,380,312.81770833333,381.33333333333,319.65104166667,381.83333333333,322.15104166667,398.33333333333,315.81770833333,397.66666666667,310.484375,397.16666666667,306.984375,394,305.65104166667,388.66666666667,297.65104166667,384.83333333333"></polygon><polygon  data-section_name="8" data-section="8" data-build="2" data-build_name="5" data-floor="4" data-type="floor" class="s3d-svg__build js-s3d-svg__build" points="450.65104166667,440.83333333333,466.03472391764,448.38887532552,459.70139058431,452.22220865885,576.53472391764,500.22220865885,583.03472391764,497.05554199219,601.36805725098,503.22220865885,601.70139058431,522.55554199219,584.03472391764,516.22220865885,577.86805725098,518.88887532552,461.70139058431,468.88887532552,466.36805725098,465.55554199219,451.77662150065,459.4814860026"></polygon><polygon  data-section_name="9" data-section="9" data-build="2" data-build_name="5" data-floor="4" data-type="floor" class="s3d-svg__build js-s3d-svg__build" points="320.94328816732,387.96297200521,333.44328816732,391.9814860026,329.27662150065,396.81481933594,429.65104166667,439.5,435.65104166667,435.33333333333,450.65104166667,440.83333333333,451.77662150065,459.4814860026,436.77662150065,452.4814860026,431.44328816732,455.31481933594,329.27662150065,414.81481933594,334.60995483398,409.4814860026,323.60995483398,404.81481933594,322.15104166667,398.33333333333"></polygon><polygon  data-section_name="10" data-section="10" data-build="2" data-build_name="5" data-floor="4" data-type="floor" class="s3d-svg__build js-s3d-svg__build" points="295.31770833333,354.33333333333,303.15104166667,358.16666666667,306.15104166667,363.83333333333,311.484375,365.33333333333,317.984375,365.83333333333,319.65104166667,381.83333333333,312.81770833333,381.33333333333,307.65104166667,380,305.15104166667,374.66666666667,296.81770833333,370.83333333333"></polygon><polygon  data-section_name="8" data-section="8" data-build="2" data-build_name="5" data-floor="5" data-type="floor" class="s3d-svg__build js-s3d-svg__build" points="449.65104166667,423.5,464.70139058431,429,459.70139058431,434.16666666667,576.03472391764,481.16666666667,582.36805725098,478.33333333333,601.03472391764,484.5,601.36805725098,503.22220865885,583.03472391764,497.05554199219,576.53472391764,500.22220865885,459.70139058431,452.22220865885,466.03472391764,448.38887532552,450.65104166667,440.83333333333"></polygon><polygon  data-section_name="9" data-section="9" data-build="2" data-build_name="5" data-floor="5" data-type="floor" class="s3d-svg__build js-s3d-svg__build" points="317.984375,365.83333333333,330.984375,375.5,326.65104166667,380.16666666667,430.31770833333,420.83333333333,434.984375,418.16666666667,449.65104166667,423.5,450.65104166667,440.83333333333,435.65104166667,435.33333333333,429.65104166667,439.5,329.27662150065,396.81481933594,333.44328816732,391.9814860026,320.94328816732,387.96297200521,319.65104166667,381.83333333333"></polygon><polygon  data-section_name="10" data-section="10" data-build="2" data-build_name="5" data-floor="5" data-type="floor" class="s3d-svg__build js-s3d-svg__build" points="293.15104166667,337.66666666667,300.984375,340.83333333333,304.484375,346.66666666667,309.15104166667,348.33333333333,316.484375,349,317.984375,365.83333333333,311.484375,365.33333333333,306.15104166667,363.83333333333,303.15104166667,358.16666666667,295.31770833333,354.33333333333"></polygon><polygon  data-section_name="7" data-section="7" data-build="2" data-build_name="5" data-floor="6" data-type="floor" class="s3d-svg__build js-s3d-svg__build" points="600.70139058431,465.55554199219,617.89192708333,471.66666666667,610.39192708333,475.66666666667,750.89192708333,530.33333333333,756.05859375,525.16666666667,777.89192708333,533.33333333333,819.52018229167,513.41666666667,819.70139058431,532.88887532552,777.55859375,554.66666666667,756.55859375,545.83333333333,749.39192708333,550.66666666667,611.55859375,494.66666666667,617.55859375,491.16666666667,601.03472391764,484.5"></polygon><polygon  data-section_name="8" data-section="8" data-build="2" data-build_name="5" data-floor="6" data-type="floor" class="s3d-svg__build js-s3d-svg__build" points="448.484375,405.5,463.70139058431,411.05554199219,458.36805725098,415.22220865885,575.86805725098,461.22220865885,581.70139058431,457.88887532552,600.70139058431,465.55554199219,601.03472391764,484.5,582.36805725098,478.33333333333,576.03472391764,481.16666666667,459.70139058431,434.16666666667,464.70139058431,429,449.65104166667,423.5"></polygon><polygon  data-section_name="9" data-section="9" data-build="2" data-build_name="5" data-floor="6" data-type="floor" class="s3d-svg__build js-s3d-svg__build" points="316.484375,349,330.65104166667,358.33333333333,324.484375,362.5,427.31770833333,404,434.31770833333,400.16666666667,448.484375,405.5,449.65104166667,423.5,434.984375,418.16666666667,430.31770833333,420.83333333333,326.65104166667,380.16666666667,330.984375,375.5,317.984375,365.83333333333"></polygon><polygon  data-section_name="10" data-section="10" data-build="2" data-build_name="5" data-floor="6" data-type="floor" class="s3d-svg__build js-s3d-svg__build" points="291.484375,321.16666666667,299.15104166667,324.33333333333,301.81770833333,330.66666666667,306.984375,332.5,315.65104166667,332.33333333333,316.484375,349,309.15104166667,348.33333333333,304.484375,346.66666666667,300.984375,340.83333333333,293.15104166667,337.66666666667"></polygon><polygon  data-section_name="5" data-section="5" data-build="2" data-build_name="5" data-floor="7" data-type="floor" class="s3d-svg__build js-s3d-svg__build" points="820.03472391764,491.88887532552,849.70139058431,503.22220865885,844.03472391764,507.72220865885,918.36805725098,534.38887532552,927.70139058431,531.22220865885,936.36805725098,534.55554199219,972.03472391764,511.55554199219,979.70139058431,512.55554199219,986.53472391764,508.88887532552,986.70139058431,502.77779134115,1046.7013905843,468.44445800781,1053.868057251,467.44445800781,1058.7013905843,465.44445800781,1059.868057251,460.44445800781,1074.7013905843,451.44445800781,1074.0347239176,446.44445800781,1079.368057251,442.27779134115,1076.6868489583,463.91666666667,1072.5201822917,465.91666666667,1072.0201822917,472.08333333333,1057.853515625,480.58333333333,1058.353515625,484.41666666667,1052.5201822917,488.58333333333,1045.6868489583,488.58333333333,984.853515625,523.58333333333,985.68684895833,528.75,979.02018229167,532.08333333333,972.18684895833,533.41666666667,934.52018229167,554.75,925.853515625,551.08333333333,916.68684895833,556.08333333333,843.18684895833,528.58333333333,849.02018229167,523.41666666667,819.52018229167,513.41666666667"></polygon><polygon  data-section_name="8" data-section="8" data-build="2" data-build_name="5" data-floor="7" data-type="floor" class="s3d-svg__build js-s3d-svg__build" points="447.484375,388,461.70139058431,391.77779134115,456.70139058431,396.11112467448,573.86805725098,442.77779134115,581.20139058431,440.11112467448,600.70139058431,446.44445800781,600.70139058431,465.55554199219,581.70139058431,457.88887532552,575.86805725098,461.22220865885,458.36805725098,415.22220865885,463.70139058431,411.05554199219,448.484375,405.5"></polygon><polygon  data-section_name="9" data-section="9" data-build="2" data-build_name="5" data-floor="7" data-type="floor" class="s3d-svg__build js-s3d-svg__build" points="315.65104166667,332.33333333333,329.31770833333,341.83333333333,323.65104166667,346.16666666667,426.984375,385.5,432.31770833333,382,447.484375,388,448.484375,405.5,434.31770833333,400.16666666667,427.31770833333,404,324.484375,362.5,330.65104166667,358.33333333333,330.65104166667,358.33333333333,316.484375,349"></polygon><polygon  data-section_name="10" data-section="10" data-build="2" data-build_name="5" data-floor="7" data-type="floor" class="s3d-svg__build js-s3d-svg__build" points="289.81770833333,305,298.484375,308,300.15104166667,312.83333333333,305.65104166667,315,313.65104166667,316,315.65104166667,332.33333333333,306.984375,332.5,301.81770833333,330.66666666667,299.15104166667,324.33333333333,291.484375,321.16666666667"></polygon><polygon  data-section_name="5" data-section="5" data-build="2" data-build_name="5" data-floor="8" data-type="floor" class="s3d-svg__build js-s3d-svg__build" points="820.36805725098,471.22220865885,849.86805725098,481.72220865885,844.03472391764,486.88887532552,918.03472391764,512.88887532552,929.36805725098,507.72220865885,935.86805725098,512.55554199219,975.03472391764,491.05554199219,981.36805725098,491.22220865885,987.70139058431,487.88887532552,988.03472391764,482.22220865885,1048.7013905843,448.27779134115,1054.368057251,449.44445800781,1060.0347239176,446.77779134115,1061.2013905843,441.61112467448,1075.0347239176,432.44445800781,1074.7013905843,425.77779134115,1080.0347239176,424.44445800781,1079.368057251,442.27779134115,1074.0347239176,446.44445800781,1074.7013905843,451.44445800781,1059.868057251,460.44445800781,1058.7013905843,465.44445800781,1053.868057251,467.44445800781,1046.7013905843,468.44445800781,986.70139058431,502.77779134115,986.53472391764,508.88887532552,979.70139058431,512.55554199219,972.03472391764,511.55554199219,936.36805725098,534.55554199219,927.70139058431,531.22220865885,918.36805725098,534.38887532552,844.03472391764,507.72220865885,849.70139058431,503.22220865885,820.03472391764,491.88887532552"></polygon><polygon  data-section_name="8" data-section="8" data-build="2" data-build_name="5" data-floor="8" data-type="floor" class="s3d-svg__build js-s3d-svg__build" points="446.65104166667,368.83333333333,460.53472391764,373.88887532552,455.03472391764,378.22220865885,574.36805725098,423.22220865885,580.36805725098,419.05554199219,600.03472391764,426.38887532552,600.70139058431,446.44445800781,581.20139058431,440.11112467448,573.86805725098,442.77779134115,456.70139058431,396.11112467448,461.70139058431,391.77779134115,447.484375,388"></polygon><polygon  data-section_name="9" data-section="9" data-build="2" data-build_name="5" data-floor="8" data-type="floor" class="s3d-svg__build js-s3d-svg__build" points="313.65104166667,316,326.15104166667,324.66666666667,321.65104166667,328,424.984375,366.33333333333,430.15104166667,364.16666666667,446.65104166667,368.83333333333,447.484375,388,432.31770833333,382,426.984375,385.5,323.65104166667,346.16666666667,329.31770833333,341.83333333333,315.65104166667,332.33333333333"></polygon><polygon  data-section_name="10" data-section="10" data-build="2" data-build_name="5" data-floor="8" data-type="floor" class="s3d-svg__build js-s3d-svg__build" points="288.65104166667,288.33333333333,296.484375,292.16666666667,299.31770833333,296.66666666667,303.984375,298.66666666667,311.984375,298.66666666667,313.65104166667,316,305.65104166667,315,300.15104166667,312.83333333333,298.484375,308,289.81770833333,305"></polygon><polygon  data-section_name="8" data-section="8" data-build="2" data-build_name="5" data-floor="9" data-type="floor" class="s3d-svg__build js-s3d-svg__build" points="445.984375,350.66666666667,460.53472391764,355,454.70139058431,359.83333333333,574.03472391764,403.83333333333,580.70139058431,400.16666666667,599.03472391764,406.83333333333,600.03472391764,426.38887532552,580.36805725098,419.05554199219,574.36805725098,423.22220865885,455.03472391764,378.22220865885,460.53472391764,373.88887532552,446.65104166667,368.83333333333"></polygon><polygon  data-section_name="9" data-section="9" data-build="2" data-build_name="5" data-floor="9" data-type="floor" class="s3d-svg__build js-s3d-svg__build" points="311.984375,298.66666666667,325.984375,306.16666666667,319.81770833333,310,424.15104166667,348.83333333333,430.15104166667,345.5,445.984375,350.66666666667,446.65104166667,368.83333333333,430.15104166667,364.16666666667,424.984375,366.33333333333,321.65104166667,328,326.15104166667,324.66666666667,313.65104166667,316"></polygon><polygon  data-section_name="10" data-section="10" data-build="2" data-build_name="5" data-floor="9" data-type="floor" class="s3d-svg__build js-s3d-svg__build" points="286.81770833333,272.16666666667,295.65104166667,275.5,297.81770833333,280.33333333333,301.81770833333,281.33333333333,310.484375,282.16666666667,311.984375,298.66666666667,303.984375,298.66666666667,299.31770833333,296.66666666667,296.484375,292.16666666667,288.65104166667,288.33333333333"></polygon><polygon  data-section_name="5" data-section="5" data-build="2" data-build_name="5" data-floor="10" data-type="floor" class="s3d-svg__build js-s3d-svg__build" points="823.02018229167,430.91666666667,849.02018229167,440.08333333333,845.353515625,445.25,921.353515625,471.08333333333,931.18684895833,464.75,939.02018229167,468.58333333333,977.02018229167,448.08333333333,983.853515625,448.58333333333,990.52018229167,445.91666666667,991.18684895833,440.41666666667,1050.6868489583,407.75,1058.1868489583,407.08333333333,1064.1868489583,404.75,1064.1868489583,400.91666666667,1078.353515625,392.58333333333,1078.853515625,387.58333333333,1084.6868489583,383.75,1082.7013905843,404.33333333333,1077.7013905843,407,1077.2013905843,412.16666666667,1063.0347239176,420.33333333333,1062.7013905843,424.16666666667,1057.7013905843,427.5,1050.0347239176,428.83333333333,989.86805725098,461.5,988.70139058431,466.5,983.70139058431,469.66666666667,974.36805725098,471,938.70139058431,490.5,929.86805725098,486.16666666667,919.70139058431,491.66666666667,845.70139058431,466.16666666667,850.36805725098,460.83333333333,822.03472391764,451.83333333333"></polygon><polygon  data-section_name="8" data-section="8" data-build="2" data-build_name="5" data-floor="10" data-type="floor" class="s3d-svg__build js-s3d-svg__build" points="443.984375,331.33333333333,459.03472391764,336.33333333333,453.20139058431,341,573.20139058431,383.16666666667,579.86805725098,381,598.70139058431,387.88887532552,599.03472391764,406.83333333333,580.70139058431,400.16666666667,574.03472391764,403.83333333333,454.70139058431,359.83333333333,460.53472391764,355,445.984375,350.66666666667"></polygon><polygon  data-section_name="9" data-section="9" data-build="2" data-build_name="5" data-floor="10" data-type="floor" class="s3d-svg__build js-s3d-svg__build" points="310.484375,282.16666666667,323.81770833333,288,318.81770833333,292.16666666667,422.984375,329.33333333333,429.484375,326.33333333333,443.984375,331.33333333333,445.984375,350.66666666667,430.15104166667,345.5,424.15104166667,348.83333333333,319.81770833333,310,325.984375,306.16666666667,311.984375,298.66666666667"></polygon><polygon  data-section_name="10" data-section="10" data-build="2" data-build_name="5" data-floor="10" data-type="floor" class="s3d-svg__build js-s3d-svg__build" points="284.984375,254.66666666667,292.65104166667,257.33333333333,294.65104166667,261.83333333333,300.484375,264.16666666667,309.31770833333,264.66666666667,310.484375,282.16666666667,301.81770833333,281.33333333333,297.81770833333,280.33333333333,295.65104166667,275.5,286.81770833333,272.16666666667"></polygon><polygon  data-section_name="5" data-section="5" data-build="2" data-build_name="5" data-floor="11" data-type="floor" class="s3d-svg__build js-s3d-svg__build" points="822.853515625,409.25,851.18684895833,418.58333333333,845.52018229167,423.08333333333,922.02018229167,448.58333333333,931.52018229167,442.75,940.02018229167,447.08333333333,977.853515625,427.25,985.02018229167,426.91666666667,991.52018229167,424.25,992.02018229167,419.25,1051.5201822917,387.25,1059.6868489583,387.08333333333,1065.5201822917,385.08333333333,1066.5201822917,380.25,1080.6868489583,372.91666666667,1080.6868489583,366.75,1086.353515625,365.25,1084.6868489583,383.75,1078.853515625,387.58333333333,1078.353515625,392.58333333333,1064.1868489583,400.91666666667,1064.1868489583,404.75,1058.1868489583,407.08333333333,1050.6868489583,407.75,991.18684895833,440.41666666667,990.52018229167,445.91666666667,983.853515625,448.58333333333,977.02018229167,448.08333333333,939.02018229167,468.58333333333,931.18684895833,464.75,921.353515625,471.08333333333,845.353515625,445.25,849.02018229167,440.08333333333,823.02018229167,430.91666666667"></polygon><polygon  data-section_name="8" data-section="8" data-build="2" data-build_name="5" data-floor="11" data-type="floor" class="s3d-svg__build js-s3d-svg__build" points="442.484375,312.83333333333,457.86805725098,316.94445800781,452.53472391764,320.27779134115,574.36805725098,363.11112467448,578.70139058431,358.77779134115,598.03472391764,367,598.70139058431,387.88887532552,579.86805725098,381,573.20139058431,383.16666666667,453.20139058431,341,459.03472391764,336.33333333333,443.984375,331.33333333333"></polygon><polygon  data-section_name="9" data-section="9" data-build="2" data-build_name="5" data-floor="11" data-type="floor" class="s3d-svg__build js-s3d-svg__build" points="309.31770833333,264.66666666667,321.81770833333,271.66666666667,317.81770833333,274.16666666667,420.31770833333,310,427.484375,308.16666666667,442.484375,312.83333333333,443.984375,331.33333333333,429.484375,326.33333333333,422.984375,329.33333333333,318.81770833333,292.16666666667,323.81770833333,288,310.484375,282.16666666667"></polygon><polygon  data-section_name="10" data-section="10" data-build="2" data-build_name="5" data-floor="11" data-type="floor" class="s3d-svg__build js-s3d-svg__build" points="283.484375,237.16666666667,290.65104166667,239.66666666667,292.484375,244.83333333333,298.81770833333,246.66666666667,307.65104166667,247.5,309.31770833333,264.66666666667,300.484375,264.16666666667,294.65104166667,261.83333333333,292.65104166667,257.33333333333,284.984375,254.66666666667"></polygon><polygon  data-section_name="5" data-section="5" data-build="2" data-build_name="5" data-floor="12" data-type="floor" class="s3d-svg__build js-s3d-svg__build" points="824.18684895833,389.75,850.52018229167,397.75,846.52018229167,401.41666666667,922.02018229167,427.91666666667,935.853515625,422.08333333333,941.52018229167,424.58333333333,979.52018229167,406.41666666667,990.02018229167,404.25,993.68684895833,399.41666666667,1053.6868489583,367.91666666667,1060.5201822917,366.41666666667,1065.353515625,364.58333333333,1067.1868489583,361.08333333333,1082.353515625,353.75,1083.0201822917,348.58333333333,1088.6868489583,346.41666666667,1086.353515625,365.25,1080.6868489583,366.75,1080.6868489583,372.91666666667,1066.5201822917,380.25,1065.5201822917,385.08333333333,1059.6868489583,387.08333333333,1051.5201822917,387.25,992.02018229167,419.25,991.52018229167,424.25,985.02018229167,426.91666666667,977.853515625,427.25,940.02018229167,447.08333333333,931.52018229167,442.75,922.02018229167,448.58333333333,845.52018229167,423.08333333333,851.18684895833,418.58333333333,822.853515625,409.25"></polygon><polygon  data-section_name="8" data-section="8" data-build="2" data-build_name="5" data-floor="12" data-type="floor" class="s3d-svg__build js-s3d-svg__build" points="441.31770833333,294.83333333333,454.70139058431,297.83333333333,450.70139058431,301,572.36805725098,341.83333333333,578.53472391764,339,597.70139058431,346.33333333333,598.03472391764,367,578.70139058431,358.77779134115,574.36805725098,363.11112467448,452.53472391764,320.27779134115,457.86805725098,316.94445800781,442.484375,312.83333333333"></polygon><polygon  data-section_name="9" data-section="9" data-build="2" data-build_name="5" data-floor="12" data-type="floor" class="s3d-svg__build js-s3d-svg__build" points="307.65104166667,247.5,320.484375,252.33333333333,315.15104166667,255.33333333333,419.81770833333,290.5,425.31770833333,288.33333333333,441.31770833333,294.83333333333,442.484375,312.83333333333,427.484375,308.16666666667,420.31770833333,310,317.81770833333,274.16666666667,321.81770833333,271.66666666667,309.31770833333,264.66666666667"></polygon><polygon  data-section_name="10" data-section="10" data-build="2" data-build_name="5" data-floor="12" data-type="floor" class="s3d-svg__build js-s3d-svg__build" points="282.31770833333,221.16666666667,290.15104166667,223.83333333333,294.31770833333,229.16666666667,300.484375,229.66666666667,305.81770833333,231.33333333333,307.65104166667,247.5,298.81770833333,246.66666666667,292.484375,244.83333333333,290.65104166667,239.66666666667,283.484375,237.16666666667"></polygon><polygon  data-section_name="5" data-section="5" data-build="2" data-build_name="5" data-floor="13" data-type="floor" class="s3d-svg__build js-s3d-svg__build" points="823.39192708333,366.16666666667,852.05859375,373.33333333333,848.05859375,378.83333333333,924.89192708333,403.33333333333,935.05859375,396.83333333333,942.05859375,401.33333333333,981.05859375,382.66666666667,987.55859375,382.66666666667,991.89192708333,380.66666666667,994.05859375,376.33333333333,1057.8919270833,344.66666666667,1063.8919270833,344.66666666667,1068.3919270833,341.66666666667,1069.05859375,336.66666666667,1089.8919270833,325.66666666667,1088.6868489583,346.41666666667,1083.0201822917,348.58333333333,1082.353515625,353.75,1067.1868489583,361.08333333333,1065.353515625,364.58333333333,1060.5201822917,366.41666666667,1053.6868489583,367.91666666667,993.68684895833,399.41666666667,990.02018229167,404.25,979.52018229167,406.41666666667,941.52018229167,424.58333333333,935.853515625,422.08333333333,922.02018229167,427.91666666667,846.52018229167,401.41666666667,850.52018229167,397.75,850.52018229167,398.08333333333,824.18684895833,389.75"></polygon><polygon  data-section_name="7" data-section="7" data-build="2" data-build_name="5" data-floor="13" data-type="floor" class="s3d-svg__build js-s3d-svg__build" points="597.03472391764,326.11112467448,614.55859375,330.16666666667,606.89192708333,334.33333333333,750.89192708333,380.83333333333,756.55859375,376.33333333333,781.05859375,384.33333333333,823.39192708333,366.16666666667,824.18684895833,389.75,780.39192708333,408.66666666667,756.89192708333,399.16666666667,751.05859375,403.16666666667,608.39192708333,353.83333333333,614.89192708333,349.83333333333,597.70139058431,346.33333333333"></polygon><polygon  data-section_name="8" data-section="8" data-build="2" data-build_name="5" data-floor="13" data-type="floor" class="s3d-svg__build js-s3d-svg__build" points="440.984375,275.66666666667,456.53472391764,278.77779134115,449.70139058431,282.77779134115,572.03472391764,323.11112467448,577.20139058431,318.94445800781,597.03472391764,326.11112467448,597.70139058431,346.33333333333,578.53472391764,339,572.36805725098,341.83333333333,450.70139058431,301,454.70139058431,297.83333333333,441.31770833333,294.83333333333"></polygon><polygon  data-section_name="9" data-section="9" data-build="2" data-build_name="5" data-floor="13" data-type="floor" class="s3d-svg__build js-s3d-svg__build" points="305.81770833333,231.33333333333,319.65104166667,234.66666666667,313.81770833333,237.83333333333,418.65104166667,272.33333333333,424.984375,269.16666666667,440.984375,275.66666666667,441.31770833333,294.83333333333,425.31770833333,288.33333333333,419.81770833333,290.5,315.15104166667,255.33333333333,320.484375,252.33333333333,307.65104166667,247.5"></polygon><polygon  data-section_name="10" data-section="10" data-build="2" data-build_name="5" data-floor="13" data-type="floor" class="s3d-svg__build js-s3d-svg__build" points="279.7265625,201.5,288.7265625,205,289.9765625,209.75,295.7265625,212.25,304.7265625,211.5,305.81770833333,231.33333333333,300.484375,229.66666666667,294.31770833333,229.16666666667,290.15104166667,223.83333333333,282.31770833333,221.16666666667"></polygon><polygon  data-section_name="5" data-section="5" data-build="2" data-build_name="5" data-floor="14" data-type="floor" class="s3d-svg__build js-s3d-svg__build" points="823.55859375,343.33333333333,855.05859375,353.16666666667,848.05859375,356.83333333333,925.05859375,380.16666666667,937.89192708333,374.33333333333,943.89192708333,379.66666666667,983.89192708333,360.33333333333,989.55859375,360.33333333333,993.55859375,359.16666666667,997.39192708333,352.83333333333,1058.8919270833,322.83333333333,1065.3919270833,322.83333333333,1071.05859375,320.33333333333,1072.05859375,316.33333333333,1091.3919270833,307.66666666667,1089.8919270833,325.66666666667,1069.05859375,336.66666666667,1068.3919270833,341.66666666667,1063.8919270833,344.66666666667,1057.8919270833,344.66666666667,994.05859375,376.33333333333,991.89192708333,380.66666666667,987.55859375,382.66666666667,981.05859375,382.66666666667,942.05859375,401.33333333333,935.05859375,396.83333333333,924.89192708333,403.33333333333,848.05859375,378.83333333333,852.05859375,373.33333333333,823.39192708333,366.16666666667"></polygon><polygon  data-section_name="8" data-section="8" data-build="2" data-build_name="5" data-floor="14" data-type="floor" class="s3d-svg__build js-s3d-svg__build" points="440.31770833333,256.5,453.70139058431,259.55554199219,447.86805725098,262.55554199219,570.70139058431,301.55554199219,578.36805725098,298.22220865885,596.53472391764,304.88887532552,597.03472391764,326.11112467448,577.20139058431,318.94445800781,572.03472391764,323.11112467448,449.70139058431,282.77779134115,456.53472391764,278.77779134115,457.20139058431,278.77779134115,440.984375,275.66666666667"></polygon><polygon  data-section_name="9" data-section="9" data-build="2" data-build_name="5" data-floor="14" data-type="floor" class="s3d-svg__build js-s3d-svg__build" points="304.7265625,211.5,316.984375,216.5,311.984375,219.5,416.65104166667,252.5,422.984375,249.66666666667,440.31770833333,256.5,440.984375,275.66666666667,424.984375,269.16666666667,418.65104166667,272.33333333333,313.81770833333,237.83333333333,319.65104166667,234.66666666667,305.81770833333,231.33333333333"></polygon><polygon  data-section_name="10" data-section="10" data-build="2" data-build_name="5" data-floor="14" data-type="floor" class="s3d-svg__build js-s3d-svg__build" points="277.60995483398,185.05556233724,287.44328816732,187.55556233724,287.94328816732,192.38889567057,294.27662150065,194.22222900391,298.60995483398,193.38889567057,302.60995483398,193.38889567057,304.7265625,211.5,295.7265625,212.25,289.9765625,209.75,288.7265625,205,279.7265625,201.5"></polygon><polygon  data-section_name="5" data-section="5" data-build="2" data-build_name="5" data-floor="15" data-type="floor" class="s3d-svg__build js-s3d-svg__build" points="823.39192708333,320.83333333333,854.89192708333,329.83333333333,848.89192708333,334.33333333333,926.05859375,357.16666666667,937.55859375,352.66666666667,944.39192708333,356.33333333333,985.05859375,338.33333333333,991.05859375,337.66666666667,995.39192708333,335.16666666667,999.05859375,330.66666666667,1060.55859375,301.66666666667,1066.3919270833,302.66666666667,1071.8919270833,300.33333333333,1073.05859375,295.83333333333,1092.55859375,288.16666666667,1091.3919270833,307.66666666667,1072.05859375,316.33333333333,1071.05859375,320.33333333333,1065.3919270833,322.83333333333,1058.8919270833,322.83333333333,997.39192708333,352.83333333333,993.55859375,359.16666666667,989.55859375,360.33333333333,983.89192708333,360.33333333333,943.89192708333,379.66666666667,937.89192708333,374.33333333333,925.05859375,380.16666666667,848.05859375,356.83333333333,855.05859375,353.16666666667,823.55859375,343.33333333333"></polygon><polygon  data-section_name="7" data-section="7" data-build="2" data-build_name="5" data-floor="15" data-type="floor" class="s3d-svg__build js-s3d-svg__build" points="596.53472391764,284.22220865885,605.39192708333,286.66666666667,605.89192708333,292.16666666667,751.39192708333,337.16666666667,758.89192708333,334.16666666667,781.55859375,339.16666666667,823.39192708333,320.83333333333,823.55859375,343.33333333333,781.05859375,363.16666666667,757.55859375,355.33333333333,751.39192708333,358.83333333333,606.55859375,312.66666666667,612.05859375,309.33333333333,596.53472391764,304.88887532552"></polygon><polygon  data-section_name="8" data-section="8" data-build="2" data-build_name="5" data-floor="15" data-type="floor" class="s3d-svg__build js-s3d-svg__build" points="440.15104166667,236.5,446.53472391764,237.88887532552,445.03472391764,242.88887532552,570.03472391764,280.55554199219,577.86805725098,278.38887532552,596.53472391764,284.22220865885,596.53472391764,304.88887532552,578.36805725098,298.22220865885,570.70139058431,301.55554199219,447.86805725098,262.55554199219,453.70139058431,259.55554199219,440.31770833333,256.5"></polygon><polygon  data-section_name="9" data-section="9" data-build="2" data-build_name="5" data-floor="15" data-type="floor" class="s3d-svg__build js-s3d-svg__build" points="302.60995483398,193.38889567057,309.15104166667,196.16666666667,309.984375,201.83333333333,416.65104166667,234.5,423.484375,231.5,440.15104166667,236.5,440.31770833333,256.5,422.984375,249.66666666667,416.65104166667,252.5,311.984375,219.5,316.984375,216.5,304.7265625,211.5"></polygon><polygon  data-section_name="10" data-section="10" data-build="2" data-build_name="5" data-floor="15" data-type="floor" class="s3d-svg__build js-s3d-svg__build" points="303.27662150065,175.37038167318,303.27662150065,175.37038167318,297.77662150065,176.53704833984,297.77662150065,176.53704833984,286.60995483398,174.53704833984,286.60995483398,174.53704833984,285.77662150065,170.37038167318,285.77662150065,170.37038167318,276.10995483398,166.88889567057,276.10995483398,166.88889567057,277.60995483398,185.05556233724,277.60995483398,185.05556233724,287.44328816732,187.55556233724,287.44328816732,187.55556233724,287.94328816732,192.38889567057,287.94328816732,192.38889567057,294.27662150065,194.22222900391,294.27662150065,194.22222900391,298.60995483398,193.38889567057,298.60995483398,193.38889567057,302.60995483398,193.38889567057,302.60995483398,193.38889567057,303.10995483398,186.55556233724,303.10995483398,186.55556233724"></polygon><polygon  data-section_name="5" data-section="5" data-build="2" data-build_name="5" data-floor="16" data-type="floor" class="s3d-svg__build js-s3d-svg__build" points="823.05859375,287.83333333333,855.05859375,295.66666666667,846.89192708333,298.83333333333,874.55859375,306.16666666667,870.55859375,308.33333333333,895.55859375,315.83333333333,899.39192708333,312.83333333333,929.39192708333,322.16666666667,937.89192708333,317.83333333333,949.55859375,321.16666666667,986.55859375,304.33333333333,992.05859375,304.83333333333,1007.8919270833,298.83333333333,1001.05859375,295.66666666667,1063.3919270833,268.33333333333,1068.8919270833,270.83333333333,1082.55859375,264.66666666667,1077.3919270833,262.16666666667,1094.8919270833,254.66666666667,1092.55859375,288.16666666667,1073.05859375,295.83333333333,1071.8919270833,300.33333333333,1066.3919270833,302.66666666667,1060.55859375,301.66666666667,999.05859375,330.66666666667,995.39192708333,335.16666666667,991.05859375,337.66666666667,985.05859375,338.33333333333,944.39192708333,356.33333333333,937.55859375,352.66666666667,926.05859375,357.16666666667,848.89192708333,334.33333333333,854.89192708333,329.83333333333,823.39192708333,320.83333333333"></polygon><polygon  data-section_name="7" data-section="7" data-build="2" data-build_name="5" data-floor="16" data-type="floor" class="s3d-svg__build js-s3d-svg__build" points="596.36805725098,248.5,653.55859375,264.16666666667,639.39192708333,270.16666666667,711.39192708333,290.33333333333,722.39192708333,285.16666666667,785.55859375,302.66666666667,823.05859375,287.83333333333,823.39192708333,320.83333333333,781.55859375,339.16666666667,758.89192708333,334.16666666667,751.39192708333,337.16666666667,605.89192708333,292.16666666667,605.39192708333,286.66666666667,596.53472391764,284.22220865885"></polygon><polygon  data-section_name="8" data-section="8" data-build="2" data-build_name="5" data-floor="16" data-type="floor" class="s3d-svg__build js-s3d-svg__build" points="440.65104166667,204.33333333333,489.70139058431,217.16666666667,472.03472391764,221.83333333333,533.36805725098,238.5,546.53472391764,235,596.36805725098,248.5,596.53472391764,284.22220865885,577.86805725098,278.38887532552,570.03472391764,280.55554199219,445.03472391764,242.88887532552,446.53472391764,237.88887532552,440.15104166667,236.5,440.15104166667,226"></polygon><polygon  data-section_name="9" data-section="9" data-build="2" data-build_name="5" data-floor="16" data-type="floor" class="s3d-svg__build js-s3d-svg__build" points="303.10995483398,164.03704833984,347.31770833333,176.5,330.81770833333,180,384.484375,195.5,394.81770833333,190.83333333333,440.65104166667,204.33333333333,440.15104166667,226,440.15104166667,236.5,423.484375,231.5,416.65104166667,234.5,309.984375,201.83333333333,309.15104166667,196.16666666667,302.60995483398,193.38889567057,303.10995483398,186.55556233724,303.27662150065,175.37038167318"></polygon><polygon  data-section_name="10" data-section="10" data-build="2" data-build_name="5" data-floor="16" data-type="floor" class="s3d-svg__build js-s3d-svg__build" points="307.60995483398,148.37038167318,307.60995483398,148.37038167318,268.10995483398,157.03704833984,268.10995483398,157.03704833984,268.27662150065,164.87038167318,268.27662150065,164.87038167318,285.77662150065,170.37038167318,285.77662150065,170.37038167318,286.60995483398,174.53704833984,286.60995483398,174.53704833984,297.77662150065,176.53704833984,297.77662150065,176.53704833984,303.27662150065,175.37038167318,303.27662150065,175.37038167318,303.10995483398,164.03704833984,303.10995483398,164.03704833984,334.60995483398,156.70371500651,334.60995483398,156.70371500651,315.77662150065,152.70371500651,315.77662150065,152.70371500651,321.44328816732,150.37038167318,321.44328816732,150.37038167318"></polygon></svg>