<svg preserveAspectRatio="xMidYMid slice" id="floor--svg"  viewBox="0 0 1440 810" version="1.0" xmlns="http://www.w3.org/2000/svg"><polygon  data-section_name="1" data-section="1" data-build="1" data-build_name="4" data-floor="2" data-type="floor" class="s3d-svg__build js-s3d-svg__build" points="668.49869791667,645.16666666667,592.49869791667,682.66666666667,575.66536458333,673.16666666667,563.66536458333,676.16666666667,553.66536458333,674.83333333333,546.66536458333,670.16666666667,545.49869791667,664.33333333333,461.16536458333,615.66666666667,455.49869791667,617.33333333333,449.66536458333,614.33333333333,445.16536458333,603.83333333333,441.16536458333,601.16666666667,442.16536458333,616.83333333333,445.99869791667,619.66666666667,448.16536458333,627.33333333333,449.49869791667,632.66666666667,454.99869791667,636.33333333333,461.99869791667,636.83333333333,546.49869791667,688.33333333333,547.99869791667,692.33333333333,553.66536458333,695.83333333333,560.99869791667,696.66666666667,564.66536458333,698.66666666667,575.49869791667,695.66666666667,592.16536458333,704.16666666667,668.66536458333,667.16666666667"></polygon><polygon  data-section_name="2" data-section="2" data-build="1" data-build_name="4" data-floor="2" data-type="floor" class="s3d-svg__build js-s3d-svg__build" points="440.99869791667,594.16666666667,430.49869791667,598.66666666667,416.49869791667,589.83333333333,409.66536458333,592.16666666667,364.49869791667,565.83333333333,359.66536458333,566.83333333333,353.16536458333,564.16666666667,351.66536458333,557.83333333333,337.99869791667,550.16666666667,339.66536458333,569.66666666667,352.66536458333,578.66666666667,353.49869791667,582.66666666667,358.16536458333,585.66666666667,364.16536458333,585.83333333333,410.49869791667,613.66666666667,417.49869791667,612.83333333333,431.49869791667,619.66666666667,442.16536458333,616.83333333333,441.16536458333,601.16666666667"></polygon><polygon  data-section_name="1" data-section="1" data-build="1" data-build_name="4" data-floor="4" data-type="floor" class="s3d-svg__build js-s3d-svg__build" points="437.49869791667,559.83333333333,444.16536458333,560.83333333333,445.66536458333,574.83333333333,452.49869791667,577.83333333333,457.99869791667,577.16666666667,542.66536458333,624.66666666667,545.66536458333,631.33333333333,552.49869791667,634.33333333333,562.66536458333,636.83333333333,571.66536458333,631.66666666667,590.66536458333,641.66666666667,667.99869791667,607.16666666667,668.49869791667,625.83333333333,591.66536458333,662.33333333333,573.16536458333,652.83333333333,563.49869791667,656.33333333333,552.99869791667,655.16666666667,546.99869791667,651.83333333333,544.16536458333,644.83333333333,460.16536458333,597.16666666667,454.16536458333,597.33333333333,447.49869791667,595.16666666667,445.16536458333,581.33333333333,439.66536458333,579.33333333333"></polygon><polygon  data-section_name="2" data-section="2" data-build="1" data-build_name="4" data-floor="4" data-type="floor" class="s3d-svg__build js-s3d-svg__build" points="437.49869791667,559.83333333333,427.66536458333,560.66666666667,414.66536458333,551.83333333333,407.99869791667,554.16666666667,360.99869791667,529.16666666667,355.49869791667,528.66666666667,349.16536458333,526.33333333333,347.66536458333,520.83333333333,332.49869791667,512.66666666667,333.66536458333,527.33333333333,348.99869791667,539.83333333333,350.66536458333,544.83333333333,356.49869791667,547.66666666667,362.16536458333,547.83333333333,407.99869791667,573.16666666667,415.49869791667,570.83333333333,429.49869791667,579.83333333333,439.66536458333,579.33333333333"></polygon><polygon  data-section_name="1" data-section="1" data-build="1" data-build_name="4" data-floor="5" data-type="floor" class="s3d-svg__build js-s3d-svg__build" points="436.16536458333,539.16666666667,442.99869791667,542.33333333333,443.49869791667,554.16666666667,451.49869791667,557.83333333333,457.66536458333,557.66666666667,542.49869791667,604.16666666667,543.16536458333,609.33333333333,550.49869791667,612.66666666667,561.99869791667,615.33333333333,572.66536458333,611.33333333333,588.99869791667,620.83333333333,667.99869791667,585.16666666667,667.99869791667,607.16666666667,590.66536458333,641.66666666667,571.66536458333,631.66666666667,562.66536458333,636.83333333333,552.49869791667,634.33333333333,545.66536458333,631.33333333333,542.66536458333,624.66666666667,457.99869791667,577.16666666667,452.49869791667,577.83333333333,445.66536458333,574.83333333333,444.16536458333,560.83333333333,437.49869791667,559.83333333333"></polygon><polygon  data-section_name="1" data-section="1" data-build="1" data-build_name="4" data-floor="6" data-type="floor" class="s3d-svg__build js-s3d-svg__build" points="667.49869791667,565.33333333333,588.49869791667,600.33333333333,571.16536458333,590.66666666667,560.99869791667,594.16666666667,550.66536458333,593.66666666667,543.66536458333,590.66666666667,541.99869791667,583.66666666667,457.16536458333,538.33333333333,449.99869791667,539.16666666667,442.66536458333,535.66666666667,441.16536458333,522.16666666667,434.66536458333,519.33333333333,436.16536458333,539.16666666667,442.99869791667,542.33333333333,443.49869791667,554.16666666667,451.49869791667,557.83333333333,457.66536458333,557.66666666667,542.49869791667,604.16666666667,543.16536458333,609.33333333333,550.49869791667,612.66666666667,561.99869791667,615.33333333333,572.66536458333,611.33333333333,588.99869791667,620.83333333333,667.99869791667,585.16666666667"></polygon><polygon  data-section_name="2" data-section="2" data-build="1" data-build_name="4" data-floor="6" data-type="floor" class="s3d-svg__build js-s3d-svg__build" points="434.66536458333,519.33333333333,424.66536458333,520.66666666667,410.16536458333,512.66666666667,402.49869791667,514.33333333333,357.49869791667,491.83333333333,350.66536458333,491.33333333333,345.16536458333,488.33333333333,344.49869791667,483.16666666667,328.66536458333,472.16666666667,330.49869791667,490.33333333333,345.66536458333,502.83333333333,346.99869791667,507.16666666667,352.49869791667,510.83333333333,359.16536458333,510.83333333333,404.49869791667,533.83333333333,412.49869791667,532.66666666667,425.66536458333,541.66666666667,436.16536458333,539.16666666667"></polygon><polygon  data-section_name="1" data-section="1" data-build="1" data-build_name="4" data-floor="7" data-type="floor" class="s3d-svg__build js-s3d-svg__build" points="667.16536458333,544.66666666667,588.49869791667,578.83333333333,569.16536458333,569.16666666667,560.16536458333,572.83333333333,547.99869791667,571.83333333333,541.16536458333,567.83333333333,539.99869791667,562.33333333333,454.16536458333,517.83333333333,447.66536458333,518.16666666667,441.16536458333,515.33333333333,439.49869791667,502.16666666667,432.99869791667,499.33333333333,434.66536458333,519.33333333333,441.16536458333,522.16666666667,442.66536458333,535.66666666667,449.99869791667,539.16666666667,457.16536458333,538.33333333333,541.99869791667,583.66666666667,543.66536458333,590.66666666667,550.66536458333,593.66666666667,560.99869791667,594.16666666667,571.16536458333,590.66666666667,588.49869791667,600.33333333333,667.49869791667,565.33333333333"></polygon><polygon  data-section_name="2" data-section="2" data-build="1" data-build_name="4" data-floor="7" data-type="floor" class="s3d-svg__build js-s3d-svg__build" points="432.99869791667,499.33333333333,423.16536458333,501.66666666667,409.66536458333,493.66666666667,402.16536458333,495.16666666667,355.99869791667,472.33333333333,349.16536458333,472.33333333333,343.49869791667,469.66666666667,342.66536458333,464.33333333333,327.16536458333,453.66666666667,328.66536458333,472.16666666667,344.49869791667,483.16666666667,345.16536458333,488.33333333333,350.66536458333,491.33333333333,357.49869791667,491.83333333333,402.49869791667,514.33333333333,410.16536458333,512.66666666667,424.66536458333,520.66666666667,434.66536458333,519.33333333333"></polygon><polygon  data-section_name="1" data-section="1" data-build="1" data-build_name="4" data-floor="8" data-type="floor" class="s3d-svg__build js-s3d-svg__build" points="667.16536458333,523.83333333333,587.49869791667,557.16666666667,569.49869791667,547.83333333333,559.49869791667,551.16666666667,548.49869791667,550.33333333333,541.66536458333,547.33333333333,539.49869791667,540.83333333333,452.99869791667,497.66666666667,446.99869791667,497.83333333333,439.16536458333,495.16666666667,437.99869791667,482.83333333333,431.66536458333,479.33333333333,432.99869791667,499.33333333333,439.49869791667,502.16666666667,441.16536458333,515.33333333333,447.66536458333,518.16666666667,454.16536458333,517.83333333333,539.99869791667,562.33333333333,541.16536458333,567.83333333333,547.99869791667,571.83333333333,560.16536458333,572.83333333333,569.16536458333,569.16666666667,588.49869791667,578.83333333333,667.16536458333,544.66666666667"></polygon><polygon  data-section_name="2" data-section="2" data-build="1" data-build_name="4" data-floor="8" data-type="floor" class="s3d-svg__build js-s3d-svg__build" points="431.66536458333,479.33333333333,421.49869791667,481.16666666667,415.66536458333,475.33333333333,407.99869791667,473.33333333333,400.16536458333,474.33333333333,354.16536458333,452.33333333333,348.99869791667,453.33333333333,342.49869791667,449.83333333333,340.99869791667,443.33333333333,324.66536458333,435.33333333333,327.16536458333,453.66666666667,342.66536458333,464.33333333333,343.49869791667,469.66666666667,349.16536458333,472.33333333333,355.99869791667,472.33333333333,402.16536458333,495.16666666667,409.66536458333,493.66666666667,423.16536458333,501.66666666667,432.99869791667,499.33333333333"></polygon><polygon  data-section_name="1" data-section="1" data-build="1" data-build_name="4" data-floor="9" data-type="floor" class="s3d-svg__build js-s3d-svg__build" points="667.16536458333,502.33333333333,587.49869791667,535.33333333333,567.99869791667,526.66666666667,558.49869791667,530.66666666667,547.49869791667,528.33333333333,540.66536458333,526.16666666667,538.66536458333,519.83333333333,451.66536458333,476.16666666667,445.66536458333,476.66666666667,438.99869791667,474.83333333333,436.49869791667,461.83333333333,430.66536458333,459.83333333333,431.66536458333,479.33333333333,437.99869791667,482.83333333333,439.16536458333,495.16666666667,446.99869791667,497.83333333333,452.99869791667,497.66666666667,539.49869791667,540.83333333333,541.66536458333,547.33333333333,548.49869791667,550.33333333333,559.49869791667,551.16666666667,569.49869791667,547.83333333333,587.49869791667,557.16666666667,667.16536458333,523.83333333333"></polygon><polygon  data-section_name="1" data-section="1" data-build="1" data-build_name="4" data-floor="10" data-type="floor" class="s3d-svg__build js-s3d-svg__build" points="429.16536458333,438.16666666667,435.49869791667,441.83333333333,436.49869791667,453.83333333333,444.16536458333,456.33333333333,450.99869791667,456.33333333333,537.99869791667,497.66666666667,540.16536458333,504.66666666667,546.49869791667,507.33333333333,557.99869791667,507.16666666667,567.99869791667,504.16666666667,586.16536458333,513.66666666667,666.66536458333,481.16666666667,667.16536458333,502.33333333333,587.49869791667,535.33333333333,567.99869791667,526.66666666667,558.49869791667,530.66666666667,547.49869791667,528.33333333333,540.66536458333,526.16666666667,538.66536458333,519.83333333333,451.66536458333,476.16666666667,445.66536458333,476.66666666667,438.99869791667,474.83333333333,436.49869791667,461.83333333333,430.66536458333,459.83333333333"></polygon><polygon  data-section_name="4" data-section="4" data-build="1" data-build_name="4" data-floor="10" data-type="floor" class="s3d-svg__build js-s3d-svg__build" points="744.66536458333,273.33333333333,735.66536458333,274.66666666667,734.99869791667,280.33333333333,729.66536458333,283.66666666667,721.16536458333,284.16666666667,640.99869791667,308.33333333333,638.49869791667,312.33333333333,633.66536458333,313.33333333333,629.99869791667,313.33333333333,629.49869791667,324.83333333333,635.99869791667,327.83333333333,641.66536458333,329.33333333333,642.49869791667,326.16666666667,722.16536458333,301.16666666667,727.66536458333,301.33333333333,733.99869791667,298.16666666667,735.49869791667,291.83333333333,744.49869791667,289.33333333333"></polygon><polygon  data-section_name="1" data-section="1" data-build="1" data-build_name="4" data-floor="11" data-type="floor" class="s3d-svg__build js-s3d-svg__build" points="666.16536458333,459.83333333333,585.49869791667,491.33333333333,567.16536458333,482.33333333333,556.49869791667,485.33333333333,545.49869791667,484.66666666667,537.99869791667,481.83333333333,536.16536458333,476.33333333333,449.66536458333,435.33333333333,440.99869791667,435.83333333333,435.16536458333,432.33333333333,434.66536458333,420.66666666667,428.16536458333,418.16666666667,429.16536458333,438.16666666667,435.49869791667,441.83333333333,436.49869791667,453.83333333333,444.16536458333,456.33333333333,450.99869791667,456.33333333333,537.99869791667,497.66666666667,540.16536458333,504.66666666667,546.49869791667,507.33333333333,557.99869791667,507.16666666667,567.99869791667,504.16666666667,586.16536458333,513.66666666667,666.66536458333,481.16666666667"></polygon><polygon  data-section_name="1" data-section="1" data-build="1" data-build_name="4" data-floor="12" data-type="floor" class="s3d-svg__build js-s3d-svg__build" points="666.16536458333,439.16666666667,585.49869791667,470.16666666667,566.99869791667,462.16666666667,555.49869791667,465.66666666667,551.66536458333,463.16666666667,544.66536458333,463.16666666667,537.66536458333,460.33333333333,535.99869791667,454.33333333333,448.16536458333,413.33333333333,441.16536458333,414.16666666667,434.66536458333,411.16666666667,433.66536458333,401.16666666667,426.66536458333,398.66666666667,428.16536458333,418.16666666667,434.66536458333,420.66666666667,435.16536458333,432.33333333333,440.99869791667,435.83333333333,449.66536458333,435.33333333333,536.16536458333,476.33333333333,537.99869791667,481.83333333333,545.49869791667,484.66666666667,556.49869791667,485.33333333333,567.16536458333,482.33333333333,585.49869791667,491.33333333333,666.16536458333,459.83333333333"></polygon><polygon  data-section_name="4" data-section="4" data-build="1" data-build_name="4" data-floor="12" data-type="floor" class="s3d-svg__build js-s3d-svg__build" points="602.33333333333,282.88889567057,617.66536458333,277.33333333333,628.49869791667,278.33333333333,634.99869791667,277.33333333333,640.49869791667,274.66666666667,722.99869791667,249.66666666667,734.66536458333,248.33333333333,734.66536458333,243.33333333333,745.16536458333,241.16666666667,744.66536458333,257.66666666667,734.66536458333,259.33333333333,734.16536458333,264.66666666667,727.99869791667,267.33333333333,722.66536458333,266.83333333333,641.99869791667,290.83333333333,639.49869791667,294.16666666667,633.66536458333,295.66666666667,624.66536458333,296.33333333333,617.49869791667,295.33333333333,602.99869791667,299.33333333333"></polygon><polygon  data-section_name="2" data-section="2" data-build="1" data-build_name="4" data-floor="13" data-type="floor" class="s3d-svg__build js-s3d-svg__build" points="425.66536458333,382.33333333333,416.16536458333,383.83333333333,415.99869791667,376.83333333333,399.99869791667,371.66666666667,392.49869791667,372.83333333333,344.99869791667,352.33333333333,339.49869791667,353.16666666667,332.66536458333,350.16666666667,332.16536458333,343.33333333333,316.49869791667,337.16666666667,316.49869791667,355.66666666667,332.49869791667,362.83333333333,334.99869791667,370.83333333333,340.49869791667,373.33333333333,347.66536458333,373.16666666667,394.16536458333,393.66666666667,402.49869791667,392.83333333333,416.49869791667,396.83333333333,416.49869791667,401.16666666667,426.66536458333,398.66666666667"></polygon><polygon  data-section_name="3" data-section="3" data-build="1" data-build_name="4" data-floor="13" data-type="floor" class="s3d-svg__build js-s3d-svg__build" points="601.33333333333,262.83333333333,602.33333333333,282.88889567057,590.66666666667,285.05556233724,591,289.55556233724,588.66666666667,290.55556233724,581.16666666667,293.05556233724,575.66666666667,291.22222900391,573.66666666667,285.22222900391,568.66666666667,283.88889567057,563,283.55556233724,554.5,284.88889567057,548.33333333333,285.22222900391,537.83138020833,284.54166666667,572.66666666667,274.83333333333,580.66666666667,275.16666666667,590.33333333333,271.16666666667,591,265.5"></polygon><polygon  data-section_name="4" data-section="4" data-build="1" data-build_name="4" data-floor="13" data-type="floor" class="s3d-svg__build js-s3d-svg__build" points="601.33333333333,262.83333333333,616.99869791667,258.83333333333,627.16536458333,259.83333333333,635.49869791667,259.66666666667,640.16536458333,256.16666666667,721.49869791667,232.66666666667,728.49869791667,233.16666666667,733.99869791667,230.66666666667,735.66536458333,225.16666666667,744.99869791667,222.83333333333,745.16536458333,241.16666666667,734.66536458333,243.33333333333,734.66536458333,248.33333333333,722.99869791667,249.66666666667,640.49869791667,274.66666666667,634.99869791667,277.33333333333,628.49869791667,278.33333333333,617.66536458333,277.33333333333,602.33333333333,282.88889567057"></polygon><polygon  data-section_name="1" data-section="1" data-build="1" data-build_name="4" data-floor="14" data-type="floor" class="s3d-svg__build js-s3d-svg__build" points="665.16536458333,392.33333333333,583.49869791667,421.33333333333,563.66536458333,414.33333333333,553.49869791667,417.66666666667,543.66536458333,417.33333333333,535.99869791667,415.33333333333,534.16536458333,409.83333333333,443.99869791667,371.16666666667,436.66536458333,370.83333333333,431.49869791667,368.33333333333,429.66536458333,363.66666666667,424.99869791667,361.33333333333,425.66536458333,382.33333333333,431.66536458333,385.16666666667,432.49869791667,389.83333333333,439.16536458333,393.16666666667,445.99869791667,393.16666666667,534.66536458333,430.83333333333,536.66536458333,437.33333333333,543.16536458333,439.83333333333,553.66536458333,440.66666666667,565.66536458333,437.66666666667,583.66536458333,444.66666666667,665.49869791667,415.66666666667"></polygon><polygon  data-section_name="3" data-section="3" data-build="1" data-build_name="4" data-floor="14" data-type="floor" class="s3d-svg__build js-s3d-svg__build" points="517,271.83333333333,573.33333333333,256.83333333333,577.66666666667,256.83333333333,587.66666666667,254.16666666667,587.66666666667,248.16666666667,600.66666666667,244.5,601.33333333333,262.83333333333,591,265.5,590.33333333333,271.16666666667,580.66666666667,275.16666666667,572.66666666667,274.83333333333,537.83138020833,284.54166666667,534.998046875,283.375,526.33138020833,285.54166666667,524.83138020833,282.375,522.998046875,279.04166666667,517.498046875,277.04166666667,518.998046875,274.875"></polygon><polygon  data-section_name="4" data-section="4" data-build="1" data-build_name="4" data-floor="14" data-type="floor" class="s3d-svg__build js-s3d-svg__build" points="600.66666666667,244.5,616.66536458333,240.83333333333,623.99869791667,242.66666666667,632.66536458333,242.66666666667,637.99869791667,240.66666666667,639.66536458333,237.33333333333,720.99869791667,215.16666666667,728.49869791667,215.66666666667,733.49869791667,214.16666666667,734.99869791667,208.16666666667,744.49869791667,204.83333333333,744.99869791667,222.83333333333,735.66536458333,225.16666666667,733.99869791667,230.66666666667,728.49869791667,233.16666666667,721.49869791667,232.66666666667,640.16536458333,256.16666666667,635.49869791667,259.66666666667,627.16536458333,259.83333333333,616.99869791667,258.83333333333,601.33333333333,262.83333333333"></polygon></svg>