<svg preserveAspectRatio="xMidYMid slice" id="floor--svg"  viewBox="0 0 1440 810" version="1.0" xmlns="http://www.w3.org/2000/svg"><polygon  data-section_name="1" data-section="1" data-build="1" data-build_name="4" data-floor="2" data-type="floor" class="s3d-svg__build js-s3d-svg__build" points="324,416.94445800781,366,442.94445800781,384.33333333333,437.27779134115,393.33333333333,441.27779134115,415.33333333333,433.94445800781,422,433.77779134115,428.33333333333,431.77779134115,431.33333333333,428.61112467448,487.83333333333,409.77779134115,495.33333333333,409.77779134115,502,407.77779134115,503.33333333333,404.61112467448,524.66666666667,397.66666666667,516,393.83333333333,532.66666666667,389,534,407.66666666667,521.33333333333,412.5,526.33333333333,415.5,395.33333333333,460.33333333333,386.33333333333,456.16666666667,368,461.16666666667,325,435"></polygon><polygon  data-section_name="2" data-section="2" data-build="1" data-build_name="4" data-floor="2" data-type="floor" class="s3d-svg__build js-s3d-svg__build" points="532.66666666667,389,542.5,387.16666666667,549.16666666667,385.5,551.16666666667,382.5,564,379.16666666667,569.83333333333,379.16666666667,608.66666666667,366.16666666667,618.33333333333,363.5,633.33333333333,363.5,637.33333333333,362.16666666667,642.66666666667,365.5,643.83333333333,382.83333333333,636.66666666667,379.83333333333,619.66666666667,381,608,384.16666666667,534,407.66666666667"></polygon><polygon  data-section_name="3" data-section="3" data-build="1" data-build_name="4" data-floor="2" data-type="floor" class="s3d-svg__build js-s3d-svg__build" points="642.66666666667,365.5,643.66536458333,374.08333333333,648.99869791667,376.75,654.16536458333,376.25,724.16536458333,408.58333333333,725.66536458333,413.58333333333,731.16536458333,415.25,737.66536458333,415.08333333333,747.16536458333,414.08333333333,762.49869791667,421.08333333333,761.99869791667,439.08333333333,746.66536458333,432.25,738.99869791667,434.08333333333,731.99869791667,432.25,644.99869791667,390.75,643.83333333333,382.83333333333"></polygon><polygon  data-section_name="1" data-section="1" data-build="1" data-build_name="4" data-floor="4" data-type="floor" class="s3d-svg__build js-s3d-svg__build" points="320.66666666667,383.55554199219,363.33333333333,407.88887532552,381,402.55554199219,390,406.88887532552,410.66666666667,400.22220865885,419,399.88887532552,425.16666666667,398.55554199219,428.5,394.38887532552,487.33333333333,376.88887532552,494.5,376.88887532552,499.16666666667,375.22220865885,503.83333333333,371.88887532552,523.33333333333,365.72220865885,515.33333333333,362.38887532552,531.33333333333,356.38887532552,532.33333333333,373.22220865885,515.33333333333,378.88887532552,523.66666666667,381.72220865885,503.33333333333,388.55554199219,501,391.72220865885,494.5,394.22220865885,488.5,393.22220865885,431,411.72220865885,426.33333333333,415.72220865885,420,416.55554199219,413.16666666667,416.55554199219,392.66666666667,423.05554199219,382.66666666667,419.72220865885,365,424.88887532552,322.5,400.38887532552"></polygon><polygon  data-section_name="2" data-section="2" data-build="1" data-build_name="4" data-floor="4" data-type="floor" class="s3d-svg__build js-s3d-svg__build" points="531.33333333333,356.38887532552,540.33333333333,355.11112467448,547,353.27779134115,549,350.27779134115,563.83333333333,345.77779134115,568.66666666667,347.11112467448,609,333.94445800781,617.83333333333,331.94445800781,631.66666666667,332.94445800781,635.66666666667,330.94445800781,642,333.61112467448,642.5,349.27779134115,636.33333333333,346.44445800781,617.66666666667,347.11112467448,608.66666666667,351.61112467448,569,363.77779134115,564,362.61112467448,551.16666666667,366.44445800781,546.5,369.94445800781,541.16666666667,371.77779134115,532.33333333333,373.22220865885"></polygon><polygon  data-section_name="1" data-section="1" data-build="1" data-build_name="4" data-floor="5" data-type="floor" class="s3d-svg__build js-s3d-svg__build" points="319.16666666667,366.16666666667,362,390.16666666667,380,385,389.33333333333,388.5,412,382.33333333333,417.83333333333,382.33333333333,426,380.16666666667,427.83333333333,376.5,486,359.83333333333,493,360.5,498.33333333333,358.16666666667,501.66666666667,355,523,348.16666666667,514,345,530.33333333333,339.83333333333,531.33333333333,356.38887532552,515.33333333333,362.38887532552,523.33333333333,365.72220865885,503.83333333333,371.88887532552,499.16666666667,375.22220865885,494.5,376.88887532552,487.33333333333,376.88887532552,428.5,394.38887532552,425.16666666667,398.55554199219,419,399.88887532552,410.66666666667,400.22220865885,390,406.88887532552,381,402.55554199219,363.33333333333,407.88887532552,320.66666666667,383.55554199219"></polygon><polygon  data-section_name="1" data-section="1" data-build="1" data-build_name="4" data-floor="6" data-type="floor" class="s3d-svg__build js-s3d-svg__build" points="317.33333333333,349.83333333333,359.16666666667,373.16666666667,378.33333333333,367.83333333333,387.66666666667,371,409.83333333333,364.33333333333,417.16666666667,364.5,423.33333333333,363.16666666667,426.66666666667,359,484.33333333333,342.33333333333,491.33333333333,342.83333333333,497.33333333333,341,500,338.33333333333,521,331.83333333333,513.83333333333,327.83333333333,529.33333333333,323.16666666667,530.33333333333,339.83333333333,514,345,523,348.16666666667,501.66666666667,355,498.33333333333,358.16666666667,493,360.5,486,359.83333333333,427.83333333333,376.5,426,380.16666666667,417.83333333333,382.33333333333,412,382.33333333333,389.33333333333,388.5,380,385,362,390.16666666667,319.16666666667,366.16666666667"></polygon><polygon  data-section_name="2" data-section="2" data-build="1" data-build_name="4" data-floor="6" data-type="floor" class="s3d-svg__build js-s3d-svg__build" points="529.33333333333,323.16666666667,539,321.88887532552,546.66666666667,318.55554199219,549,316.55554199219,563.16666666667,312.38887532552,567,314.22220865885,607,302.88887532552,616,299.72220865885,635,298.88887532552,642.33333333333,301.55554199219,642.33333333333,317.77779134115,636.33333333333,314.61112467448,617,315.94445800781,607.66666666667,318.94445800781,567.66666666667,331.27779134115,563.33333333333,329.61112467448,549,333.61112467448,545.83333333333,336.61112467448,539.33333333333,338.94445800781,530.33333333333,339.83333333333"></polygon><polygon  data-section_name="1" data-section="1" data-build="1" data-build_name="4" data-floor="7" data-type="floor" class="s3d-svg__build js-s3d-svg__build" points="315.16666666667,331.77779134115,358.5,354.61112467448,376.66666666667,349.77779134115,386,353.27779134115,407.33333333333,347.11112467448,415,347.77779134115,419.83333333333,346.27779134115,425,342.44445800781,483.83333333333,325.11112467448,490.66666666667,325.11112467448,496.33333333333,323.77779134115,501,320.44445800781,520.33333333333,314.27779134115,512.66666666667,310.94445800781,528.5,307.27779134115,529.33333333333,323.16666666667,513.83333333333,327.83333333333,521,331.83333333333,500,338.33333333333,497.33333333333,341,491.33333333333,342.83333333333,484.33333333333,342.33333333333,426.66666666667,359,423.33333333333,363.16666666667,417.16666666667,364.5,409.83333333333,364.33333333333,387.66666666667,371,378.33333333333,367.83333333333,359.16666666667,373.16666666667,317.33333333333,349.83333333333"></polygon><polygon  data-section_name="2" data-section="2" data-build="1" data-build_name="4" data-floor="7" data-type="floor" class="s3d-svg__build js-s3d-svg__build" points="528.5,307.27779134115,538.5,305.11110432943,543.66666666667,303.77777099609,546.66666666667,300.61110432943,562.66666666667,296.94443766276,607,286.27777099609,616,282.94443766276,634.5,281.94443766276,641,283.77777099609,642.33333333333,301.55554199219,635,298.88887532552,616,299.72220865885,607,302.88887532552,567,314.22220865885,563.16666666667,312.38887532552,549,316.55554199219,546.66666666667,318.55554199219,539,321.88887532552,529.33333333333,323.16666666667"></polygon><polygon  data-section_name="1" data-section="1" data-build="1" data-build_name="4" data-floor="8" data-type="floor" class="s3d-svg__build js-s3d-svg__build" points="313.33333333333,313.77779134115,356.33333333333,336.44445800781,376,331.94445800781,385,335.27779134115,405.33333333333,329.27779134115,412.66666666667,330.44445800781,419,328.61112467448,424,323.83333333333,483.16666666667,308.16666666667,489.83333333333,307.83333333333,495.16666666667,306.16666666667,497.66666666667,303.66666666667,519.66666666667,297.5,512,293.5,527.66666666667,290.33333333333,528.5,307.27779134115,512.66666666667,310.94445800781,520.33333333333,314.27779134115,501,320.44445800781,496.33333333333,323.77779134115,490.66666666667,325.11112467448,483.83333333333,325.11112467448,425,342.44445800781,419.83333333333,346.27779134115,415,347.77779134115,407.33333333333,347.11112467448,386,353.27779134115,376.66666666667,349.77779134115,358.5,354.61112467448,315.16666666667,331.77779134115"></polygon><polygon  data-section_name="2" data-section="2" data-build="1" data-build_name="4" data-floor="8" data-type="floor" class="s3d-svg__build js-s3d-svg__build" points="641.16666666667,268.27777099609,635.66666666667,265.77777099609,614.66666666667,266.61110432943,605.66666666667,269.61110432943,564.33333333333,280.61110432943,561.66666666667,279.27777099609,545.16666666667,283.61110432943,542.33333333333,287.11110432943,537,287.94443766276,527.66666666667,290.33333333333,528.5,307.27779134115,538.5,305.11110432943,543.66666666667,303.77777099609,546.66666666667,300.61110432943,562.66666666667,296.94443766276,607,286.27777099609,616,282.94443766276,634.5,281.94443766276,641,283.77777099609"></polygon><polygon  data-section_name="3" data-section="3" data-build="1" data-build_name="4" data-floor="8" data-type="floor" class="s3d-svg__build js-s3d-svg__build" points="762.99869791667,317.08333333333,747.66536458333,310.58333333333,738.99869791667,313.25,730.49869791667,312.25,726.16536458333,310.75,724.99869791667,306.58333333333,652.66536458333,277.75,647.49869791667,278.25,641.66536458333,275.75,642.16536458333,293.58333333333,646.16536458333,294.25,653.16536458333,294.08333333333,725.16536458333,323.75,725.66536458333,327.75,730.99869791667,329.75,739.16536458333,329.75,747.16536458333,328.58333333333,763.16536458333,334.58333333333"></polygon><polygon  data-section_name="1" data-section="1" data-build="1" data-build_name="4" data-floor="9" data-type="floor" class="s3d-svg__build js-s3d-svg__build" points="311.66666666667,296.88887532552,355.33333333333,318.88887532552,374.33333333333,313.88887532552,383,317.55554199219,405.16666666667,311.05554199219,419,309.72220865885,421.66666666667,306.22220865885,481.83333333333,290.38887532552,488.33333333333,290.38887532552,493.16666666667,289.22220865885,498.5,285.88887532552,518.33333333333,280.22220865885,510,276.55554199219,526.5,272.22220865885,527.66666666667,290.33333333333,512,293.5,519.66666666667,297.5,497.66666666667,303.66666666667,495.16666666667,306.16666666667,489.83333333333,307.83333333333,483.16666666667,308.16666666667,424,323.83333333333,419,328.61112467448,412.66666666667,330.44445800781,405.33333333333,329.27779134115,385,335.27779134115,376,331.94445800781,356.33333333333,336.44445800781,313.33333333333,313.77779134115"></polygon><polygon  data-section_name="3" data-section="3" data-build="1" data-build_name="4" data-floor="9" data-type="floor" class="s3d-svg__build js-s3d-svg__build" points="762.99869791667,299.25,747.66536458333,293.58333333333,738.99869791667,295.08333333333,730.66536458333,294.58333333333,726.49869791667,293.08333333333,724.99869791667,289.25,652.49869791667,260.58333333333,647.16536458333,260.75,642.16536458333,259.75,641.16666666667,268.27777099609,641.66536458333,275.75,647.49869791667,278.25,652.66536458333,277.75,724.99869791667,306.58333333333,726.16536458333,310.75,730.49869791667,312.25,738.99869791667,313.25,747.66536458333,310.58333333333,762.99869791667,317.08333333333"></polygon><polygon  data-section_name="1" data-section="1" data-build="1" data-build_name="4" data-floor="10" data-type="floor" class="s3d-svg__build js-s3d-svg__build" points="309.99869791667,278.33333333333,352.66536458333,300.33333333333,372.16536458333,294.83333333333,381.49869791667,298.16666666667,403.66536458333,292.33333333333,410.99869791667,293.16666666667,417.49869791667,291.33333333333,420.49869791667,288.16666666667,481.16536458333,272.33333333333,486.99869791667,272.66666666667,493.16536458333,270.83333333333,496.16536458333,268.16666666667,517.99869791667,261.83333333333,509.99869791667,259.16666666667,525.66536458333,254.66666666667,526.5,272.22220865885,510,276.55554199219,518.33333333333,280.22220865885,498.5,285.88887532552,493.16666666667,289.22220865885,488.33333333333,290.38887532552,481.83333333333,290.38887532552,421.66666666667,306.22220865885,419,309.72220865885,405.16666666667,311.05554199219,383,317.55554199219,374.33333333333,313.88887532552,355.33333333333,318.88887532552,311.66666666667,296.88887532552"></polygon><polygon  data-section_name="3" data-section="3" data-build="1" data-build_name="4" data-floor="10" data-type="floor" class="s3d-svg__build js-s3d-svg__build" points="641.66536458333,242.08333333333,647.16536458333,244.08333333333,652.49869791667,243.25,724.49869791667,270.75,725.49869791667,274.25,731.49869791667,276.25,740.66536458333,277.08333333333,748.16536458333,275.25,763.16536458333,280.75,762.99869791667,299.25,747.66536458333,293.58333333333,738.99869791667,295.08333333333,730.66536458333,294.58333333333,726.49869791667,293.08333333333,724.99869791667,289.25,652.49869791667,260.58333333333,647.16536458333,260.75,642.16536458333,259.75"></polygon><polygon  data-section_name="1" data-section="1" data-build="1" data-build_name="4" data-floor="11" data-type="floor" class="s3d-svg__build js-s3d-svg__build" points="307.99869791667,260.83333333333,351.49869791667,281.66666666667,371.16536458333,276.33333333333,379.16536458333,279.66666666667,401.99869791667,273.83333333333,409.49869791667,275.16666666667,415.49869791667,273.33333333333,418.99869791667,268.83333333333,480.16536458333,254.33333333333,486.16536458333,254.33333333333,491.49869791667,253.16666666667,493.99869791667,250.66666666667,516.66536458333,244.33333333333,511.49869791667,241.66666666667,525.16536458333,237.16666666667,525.66536458333,254.66666666667,509.99869791667,259.16666666667,517.99869791667,261.83333333333,496.16536458333,268.16666666667,493.16536458333,270.83333333333,486.99869791667,272.66666666667,481.16536458333,272.33333333333,420.49869791667,288.16666666667,417.49869791667,291.33333333333,410.99869791667,293.16666666667,403.66536458333,292.33333333333,381.49869791667,298.16666666667,372.16536458333,294.83333333333,352.66536458333,300.33333333333,309.99869791667,278.33333333333"></polygon><polygon  data-section_name="1" data-section="1" data-build="1" data-build_name="4" data-floor="12" data-type="floor" class="s3d-svg__build js-s3d-svg__build" points="305.99869791667,243.33333333333,348.66536458333,264.16666666667,369.49869791667,259.83333333333,377.66536458333,261.83333333333,401.99869791667,255.33333333333,407.49869791667,255.83333333333,413.99869791667,254.16666666667,416.66536458333,251.33333333333,479.49869791667,235.66666666667,484.66536458333,236.66666666667,490.99869791667,235.16666666667,493.49869791667,232.66666666667,513.16536458333,226.83333333333,507.99869791667,224.83333333333,524.16536458333,222.16666666667,525.16536458333,237.16666666667,511.49869791667,241.66666666667,516.66536458333,244.33333333333,493.99869791667,250.66666666667,491.49869791667,253.16666666667,486.16536458333,254.33333333333,480.16536458333,254.33333333333,418.99869791667,268.83333333333,415.49869791667,273.33333333333,409.49869791667,275.16666666667,401.99869791667,273.83333333333,379.16536458333,279.66666666667,371.16536458333,276.33333333333,351.49869791667,281.66666666667,307.99869791667,260.83333333333"></polygon><polygon  data-section_name="2" data-section="2" data-build="1" data-build_name="4" data-floor="13" data-type="floor" class="s3d-svg__build js-s3d-svg__build" points="639.66666666667,182.16666666667,633.16666666667,180.38889567057,612.5,181.88889567057,600.5,184.55556233724,562.66666666667,193.88889567057,557.33333333333,193.55556233724,541.83333333333,196.88889567057,534.66666666667,200.22222900391,523.49869791667,201.83333333333,524.16536458333,222.16666666667,543,217.05556233724,558.66666666667,212.38889567057,569.16666666667,210.88889567057,601.66666666667,203.72222900391,607.83333333333,200.88889567057,632.33333333333,200.88889567057,640,201.55556233724"></polygon><polygon  data-section_name="3" data-section="3" data-build="1" data-build_name="4" data-floor="13" data-type="floor" class="s3d-svg__build js-s3d-svg__build" points="763.99869791667,226.08333333333,748.49869791667,221.25,738.99869791667,221.75,731.49869791667,222.25,725.99869791667,220.25,724.99869791667,216.75,651.16536458333,192.08333333333,644.16536458333,191.58333333333,640.49869791667,190.08333333333,640,201.55556233724,641.49869791667,207.75,646.16536458333,209.58333333333,651.99869791667,210.08333333333,725.66536458333,235.08333333333,726.66536458333,238.75,730.66536458333,240.25,737.16536458333,240.58333333333,739.66536458333,242.58333333333,749.16536458333,241.58333333333,763.99869791667,246.75"></polygon><polygon  data-section_name="4" data-section="4" data-build="1" data-build_name="4" data-floor="13" data-type="floor" class="s3d-svg__build js-s3d-svg__build" points="773.99869791667,236.83333333333,780.49869791667,239.33333333333,785.16536458333,239.66666666667,808.49869791667,245.66666666667,772.16536458333,255.16666666667"></polygon><polygon  data-section_name="1" data-section="1" data-build="1" data-build_name="4" data-floor="14" data-type="floor" class="s3d-svg__build js-s3d-svg__build" points="302.16536458333,203.83333333333,345.16536458333,224.33333333333,365.99869791667,219.16666666667,374.99869791667,223.83333333333,398.49869791667,217.83333333333,405.66536458333,218.16666666667,413.16536458333,216.33333333333,414.16536458333,213.66666666667,477.49869791667,198.83333333333,483.16536458333,199.16666666667,490.16536458333,197.83333333333,492.16536458333,195.66666666667,512.49869791667,191.16666666667,505.16536458333,187.83333333333,522.66536458333,183.33333333333,523.49869791667,201.83333333333,506.66536458333,205.66666666667,513.66536458333,209.16666666667,492.49869791667,214.33333333333,489.49869791667,217.16666666667,484.16536458333,218.66666666667,477.66536458333,218.83333333333,416.16536458333,232.83333333333,412.49869791667,235.66666666667,406.16536458333,237.66666666667,398.49869791667,237.33333333333,376.49869791667,241.83333333333,368.66536458333,239.33333333333,347.99869791667,243.66666666667,303.66536458333,223.33333333333"></polygon><polygon  data-section_name="3" data-section="3" data-build="1" data-build_name="4" data-floor="14" data-type="floor" class="s3d-svg__build js-s3d-svg__build" points="764.49869791667,208.25,748.99869791667,202.25,740.99869791667,204.25,731.99869791667,203.25,725.99869791667,202.25,725.49869791667,199.25,651.99869791667,173.58333333333,640.49869791667,172.08333333333,639.66666666667,182.16666666667,640.49869791667,190.08333333333,644.16536458333,191.58333333333,651.16536458333,192.08333333333,724.99869791667,216.75,725.99869791667,220.25,731.49869791667,222.25,738.99869791667,221.75,748.49869791667,221.25,763.99869791667,226.08333333333"></polygon><polygon  data-section_name="4" data-section="4" data-build="1" data-build_name="4" data-floor="14" data-type="floor" class="s3d-svg__build js-s3d-svg__build" points="774.49869791667,218.66666666667,779.99869791667,220.83333333333,787.16536458333,220.16666666667,837.49869791667,236.33333333333,823.99869791667,240.83333333333,819.99869791667,239.83333333333,808.49869791667,245.66666666667,785.16536458333,239.66666666667,780.49869791667,239.33333333333,773.99869791667,236.83333333333"></polygon></svg>