<svg preserveAspectRatio="xMidYMid slice" id="floor--svg" viewBox="0 0 1440 810" version="1.0"
     xmlns="http://www.w3.org/2000/svg">
    <polygon data-section_name="1" data-section="1" data-build="1" data-build_name="4" data-floor="2"
             data-type="floor" class="s3d-svg__build js-s3d-svg__build"
             points="986.33138020833,565.66666666667,993.33138020833,563,1001.998046875,568,1011.3313802083,564.83333333333,1017.998046875,561.5,1020.6647135417,555.66666666667,1095.6647135417,518.16666666667,1101.998046875,518.66666666667,1107.498046875,516.33333333333,1111.1647135417,506.33333333333,1115.3313802083,505.5,1112.498046875,531.66666666667,1102.1647135417,537.16666666667,1094.8313802083,537.5,1018.3313802083,577.33333333333,1016.498046875,581.33333333333,1011.1647135417,584.5,1003.998046875,584,1000.6647135417,586.33333333333,990.66471354167,583.83333333333,985.498046875,585.83333333333"></polygon>
    <polygon data-section_name="2" data-section="2" data-build="1" data-build_name="4" data-floor="2"
             data-type="floor" class="s3d-svg__build js-s3d-svg__build"
             points="986.33138020833,565.66666666667,985.66666666667,575.27779134115,976.33333333333,578.44445800781,975.83333333333,585.61112467448,923.33333333333,612.27779134115,922.33333333333,617.77779134115,915.66666666667,620.94445800781,907.33333333333,620.27779134115,888,630.61112467448,884,628.44445800781,862.33333333333,639.27779134115,854,634.94445800781,845.33333333333,639.77779134115,824.66666666667,628.94445800781,819.16666666667,631.77779134115,807.83333333333,629.11112467448,799.33333333333,625.11112467448,795.66666666667,613.77779134115,756.33333333333,593.11112467448,756.5,613.61112467448,795.83333333333,633.11112467448,799.33333333333,645.77779134115,807,650.44445800781,813.16666666667,650.44445800781,817.83333333333,652.61112467448,823.83333333333,651.77779134115,844.33333333333,661.77779134115,853.33333333333,656.27779134115,861.33333333333,661.27779134115,882.66666666667,651.61112467448,887.16666666667,652.61112467448,907.33333333333,641.27779134115,914.5,641.11112467448,922.66666666667,637.94445800781,922.66666666667,634.44445800781,976,606.27779134115,975.66666666667,601.11112467448,985,594.61112467448,985.498046875,585.83333333333"></polygon>
    <polygon data-section_name="3" data-section="3" data-build="1" data-build_name="4" data-floor="2"
             data-type="floor" class="s3d-svg__build js-s3d-svg__build"
             points="756.33333333333,593.11112467448,717.83333333333,610.61112467448,699.66666666667,601.94445800781,691.16666666667,605.77779134115,670.5,594.27779134115,663.66666666667,594.44445800781,657,590.27779134115,655.66666666667,587.11112467448,603.66666666667,557.61112467448,599,557.77779134115,591.83333333333,553.94445800781,590.66666666667,548.27779134115,575.33333333333,540.27779134115,581.66666666667,537.11112467448,569.16666666667,529.27779134115,569.16666666667,548.94445800781,580.33333333333,555.61112467448,576,557.27779134115,575.83333333333,561.27779134115,591.83333333333,570.27779134115,592.66666666667,574.44445800781,597.16666666667,577.11112467448,604.33333333333,577.77779134115,656.5,608.27779134115,657.33333333333,611.27779134115,663,613.77779134115,670.33333333333,614.94445800781,690.66666666667,627.61112467448,700.33333333333,622.94445800781,716.5,632.44445800781,756.5,613.61112467448"></polygon>
    <polygon data-section_name="1" data-section="1" data-build="1" data-build_name="4" data-floor="4"
             data-type="floor" class="s3d-svg__build js-s3d-svg__build"
             points="989.998046875,527.16666666667,995.498046875,524.83333333333,1005.6647135417,527.83333333333,1014.998046875,526.33333333333,1020.6647135417,524.16666666667,1022.998046875,518.66666666667,1100.3313802083,481.16666666667,1106.1647135417,481.33333333333,1111.998046875,479.66666666667,1113.6647135417,468.66666666667,1118.998046875,467,1117.1647135417,485.66666666667,1111.1647135417,488.16666666667,1110.6647135417,496.66666666667,1104.8313802083,500.5,1097.998046875,500.5,1021.1647135417,538.83333333333,1018.998046875,543.66666666667,1012.998046875,545.33333333333,1004.6647135417,546.16666666667,993.998046875,543.83333333333,988.66471354167,546.5"></polygon>
    <polygon data-section_name="2" data-section="2" data-build="1" data-build_name="4" data-floor="4"
             data-type="floor" class="s3d-svg__build js-s3d-svg__build"
             points="989.998046875,527.16666666667,989.16666666667,536.27779134115,979,539.61112467448,978.5,547.27779134115,926,572.27779134115,924.33333333333,578.27779134115,918,580.94445800781,909.66666666667,580.61112467448,889.66666666667,590.27779134115,885.33333333333,588.27779134115,863.83333333333,599.27779134115,855.66666666667,594.61112467448,846.5,599.94445800781,825.33333333333,589.61112467448,820.66666666667,591.77779134115,809.33333333333,589.27779134115,801.16666666667,585.61112467448,798,574.27779134115,757.33333333333,554.61112467448,756.66666666667,574.94445800781,796,594.94445800781,799.66666666667,605.61112467448,808.33333333333,610.27779134115,815.33333333333,609.11112467448,819.66666666667,612.94445800781,825,609.11112467448,845.33333333333,619.77779134115,854.33333333333,614.94445800781,863.16666666667,619.61112467448,883.83333333333,609.77779134115,889,611.27779134115,908.5,601.11112467448,915.83333333333,600.94445800781,923.33333333333,598.44445800781,925,593.27779134115,976.66666666667,567.61112467448,977,559.94445800781,986.5,556.44445800781,988.66471354167,546.5"></polygon>
    <polygon data-section_name="1" data-section="1" data-build="1" data-build_name="4" data-floor="5"
             data-type="floor" class="s3d-svg__build js-s3d-svg__build"
             points="991.16471354167,508.16666666667,996.66471354167,505.83333333333,1007.1647135417,507.83333333333,1015.8313802083,507.16666666667,1021.6647135417,505.33333333333,1023.8313802083,500.33333333333,1101.1647135417,462.83333333333,1107.498046875,463.66666666667,1113.6647135417,460.83333333333,1114.998046875,450.66666666667,1120.498046875,448.83333333333,1118.998046875,467,1113.6647135417,468.66666666667,1111.998046875,479.66666666667,1106.1647135417,481.33333333333,1100.3313802083,481.16666666667,1022.998046875,518.66666666667,1020.6647135417,524.16666666667,1014.998046875,526.33333333333,1005.6647135417,527.83333333333,995.498046875,524.83333333333,989.998046875,527.16666666667"></polygon>
    <polygon data-section_name="1" data-section="1" data-build="1" data-build_name="4" data-floor="6"
             data-type="floor" class="s3d-svg__build js-s3d-svg__build"
             points="992.33138020833,488.66666666667,997.83138020833,486.16666666667,1008.8313802083,488.83333333333,1018.1647135417,488,1024.1647135417,485.66666666667,1025.6647135417,480.5,1103.1647135417,445,1110.3313802083,444.66666666667,1115.498046875,442.33333333333,1117.498046875,432.16666666667,1122.498046875,430.5,1120.498046875,448.83333333333,1114.998046875,450.66666666667,1113.6647135417,460.83333333333,1107.498046875,463.66666666667,1101.1647135417,462.83333333333,1023.8313802083,500.33333333333,1021.6647135417,505.33333333333,1015.8313802083,507.16666666667,1007.1647135417,507.83333333333,996.66471354167,505.83333333333,991.16471354167,508.16666666667"></polygon>
    <polygon data-section_name="2" data-section="2" data-build="1" data-build_name="4" data-floor="6"
             data-type="floor" class="s3d-svg__build js-s3d-svg__build"
             points="991.49869791667,496.75,981.99869791667,500.58333333333,980.99869791667,507.08333333333,928.66536458333,533.08333333333,926.66536458333,538.58333333333,919.16536458333,540.75,911.99869791667,539.75,891.66536458333,550.08333333333,887.16536458333,547.75,865.99869791667,558.25,856.16536458333,554.25,847.16536458333,558.25,825.99869791667,548.58333333333,820.66536458333,551.25,817.16536458333,548.25,808.66536458333,549.08333333333,801.16536458333,544.58333333333,796.49869791667,533.75,757.49869791667,514.75,756.66536458333,534.58333333333,797.16536458333,554.58333333333,801.16536458333,565.08333333333,808.49869791667,569.58333333333,816.16536458333,569.25,820.99869791667,571.08333333333,825.49869791667,569.25,846.99869791667,579.25,855.66536458333,574.25,864.99869791667,578.75,885.49869791667,568.25,890.16536458333,570.25,909.99869791667,560.25,917.99869791667,560.75,925.66536458333,558.58333333333,926.99869791667,552.75,978.49869791667,528.08333333333,979.66536458333,520.25,990.16536458333,517.25,991.16471354167,508.16666666667"></polygon>
    <polygon data-section_name="1" data-section="1" data-build="1" data-build_name="4" data-floor="7"
             data-type="floor" class="s3d-svg__build js-s3d-svg__build"
             points="993.16471354167,469,998.998046875,467,1009.498046875,469,1018.8313802083,468.33333333333,1024.8313802083,465.83333333333,1026.3313802083,461.16666666667,1104.8313802083,425.66666666667,1111.3313802083,425.83333333333,1117.8313802083,424,1118.998046875,413.66666666667,1125.3313802083,410.83333333333,1122.498046875,430.5,1117.498046875,432.16666666667,1115.498046875,442.33333333333,1110.3313802083,444.66666666667,1103.1647135417,445,1025.6647135417,480.5,1024.1647135417,485.66666666667,1018.1647135417,488,1008.8313802083,488.83333333333,997.83138020833,486.16666666667,992.33138020833,488.66666666667"></polygon>
    <polygon data-section_name="2" data-section="2" data-build="1" data-build_name="4" data-floor="7"
             data-type="floor" class="s3d-svg__build js-s3d-svg__build"
             points="991.99869791667,477.58333333333,982.99869791667,479.58333333333,982.16536458333,487.58333333333,929.16536458333,511.58333333333,926.66536458333,517.25,920.16536458333,519.75,912.99869791667,519.75,891.49869791667,529.58333333333,887.66536458333,527.25,866.49869791667,537.58333333333,857.16536458333,533.08333333333,848.49869791667,537.58333333333,826.66536458333,527.08333333333,822.49869791667,530.58333333333,818.16536458333,528.08333333333,810.16536458333,527.75,801.16536458333,523.25,797.66536458333,514.08333333333,757.49869791667,494.75,757.49869791667,514.75,796.49869791667,533.75,801.16536458333,544.58333333333,808.66536458333,549.08333333333,817.16536458333,548.25,820.66536458333,551.25,825.99869791667,548.58333333333,847.16536458333,558.25,856.16536458333,554.25,865.99869791667,558.25,887.16536458333,547.75,891.66536458333,550.08333333333,911.99869791667,539.75,919.16536458333,540.75,926.66536458333,538.58333333333,928.66536458333,533.08333333333,980.99869791667,507.08333333333,981.99869791667,500.58333333333,991.49869791667,496.75,992.33138020833,488.66666666667"></polygon>
    <polygon data-section_name="1" data-section="1" data-build="1" data-build_name="4" data-floor="8"
             data-type="floor" class="s3d-svg__build js-s3d-svg__build"
             points="994.83138020833,448.83333333333,1001.3313802083,446.66666666667,1010.8313802083,449.16666666667,1020.8313802083,448.83333333333,1027.498046875,445.66666666667,1028.3313802083,441.33333333333,1107.1647135417,408,1113.3313802083,407.16666666667,1119.8313802083,404.66666666667,1121.1647135417,394.16666666667,1126.3313802083,392.16666666667,1125.3313802083,410.83333333333,1118.998046875,413.66666666667,1117.8313802083,424,1111.3313802083,425.83333333333,1104.8313802083,425.66666666667,1026.3313802083,461.16666666667,1024.8313802083,465.83333333333,1018.8313802083,468.33333333333,1009.498046875,469,998.998046875,467,993.16471354167,469"></polygon>
    <polygon data-section_name="2" data-section="2" data-build="1" data-build_name="4" data-floor="8"
             data-type="floor" class="s3d-svg__build js-s3d-svg__build"
             points="994.83138020833,448.83333333333,993.99869791667,456.75,984.66536458333,458.75,983.99869791667,467.08333333333,929.99869791667,490.75,927.16536458333,497.08333333333,921.16536458333,499.08333333333,913.16536458333,498.08333333333,892.99869791667,507.75,888.16536458333,505.75,866.66536458333,515.75,858.66536458333,511.58333333333,848.99869791667,516.08333333333,826.49869791667,506.25,823.16536458333,509.58333333333,811.66536458333,507.08333333333,801.99869791667,503.25,798.66536458333,492.75,757.66536458333,473.75,757.49869791667,494.75,797.66536458333,514.08333333333,801.16536458333,523.25,810.16536458333,527.75,818.16536458333,528.08333333333,822.49869791667,530.58333333333,826.66536458333,527.08333333333,848.49869791667,537.58333333333,857.16536458333,533.08333333333,866.49869791667,537.58333333333,887.66536458333,527.25,891.49869791667,529.58333333333,912.99869791667,519.75,920.16536458333,519.75,926.66536458333,517.25,929.16536458333,511.58333333333,982.16536458333,487.58333333333,982.99869791667,479.58333333333,991.99869791667,477.58333333333,993.16471354167,469"></polygon>
    <polygon data-section_name="3" data-section="3" data-build="1" data-build_name="4" data-floor="8"
             data-type="floor" class="s3d-svg__build js-s3d-svg__build"
             points="564.66666666667,417.22220865885,577.33333333333,422.88887532552,570.66666666667,428.38887532552,587.83333333333,435.88887532552,588.66666666667,439.88887532552,593.16666666667,442.88887532552,601.66666666667,443.05554199219,654.33333333333,468.22220865885,655.33333333333,472.88887532552,661.16666666667,475.72220865885,669.33333333333,475.55554199219,690,484.88887532552,697.83333333333,482.22220865885,717.16666666667,490.88887532552,757.66536458333,473.75,757.49869791667,494.75,717.33333333333,511,698,502.33333333333,691.16666666667,506.16666666667,668.66666666667,495.66666666667,662.5,495.66666666667,656.33333333333,493,654,488.5,602,462.5,595.83333333333,462.16666666667,590,459.83333333333,588.5,454.83333333333,572,447.16666666667,577.83333333333,442.83333333333,565.66666666667,436.5,565.66666666667,436.5"></polygon>
    <polygon data-section_name="1" data-section="1" data-build="1" data-build_name="4" data-floor="9"
             data-type="floor" class="s3d-svg__build js-s3d-svg__build"
             points="996.498046875,428.66666666667,1001.998046875,426.16666666667,1012.1647135417,429.16666666667,1022.3313802083,428.33333333333,1028.6647135417,425.66666666667,1029.8313802083,421.66666666667,1108.3313802083,387.83333333333,1114.8313802083,388.16666666667,1121.3313802083,385.33333333333,1122.998046875,375,1127.998046875,373.16666666667,1126.3313802083,392.16666666667,1121.1647135417,394.16666666667,1119.8313802083,404.66666666667,1113.3313802083,407.16666666667,1107.1647135417,408,1028.3313802083,441.33333333333,1027.498046875,445.66666666667,1020.8313802083,448.83333333333,1010.8313802083,449.16666666667,1001.3313802083,446.66666666667,994.83138020833,448.83333333333"></polygon>
    <polygon data-section_name="3" data-section="3" data-build="1" data-build_name="4" data-floor="9"
             data-type="floor" class="s3d-svg__build js-s3d-svg__build"
             points="758,454.83333333333,716.66666666667,469.5,698.66666666667,461.66666666667,690.5,464.33333333333,669,455.5,661.33333333333,454.83333333333,655,451.83333333333,654,447.16666666667,600.5,422.5,594.5,422.5,588.5,420.16666666667,586.5,415.5,570.33333333333,407.66666666667,576,404.5,563.83333333333,398.16666666667,564.66666666667,417.22220865885,577.33333333333,422.88887532552,570.66666666667,428.38887532552,587.83333333333,435.88887532552,588.66666666667,439.88887532552,593.16666666667,442.88887532552,601.66666666667,443.05554199219,654.33333333333,468.22220865885,655.33333333333,472.88887532552,661.16666666667,475.72220865885,669.33333333333,475.55554199219,690,484.88887532552,697.83333333333,482.22220865885,717.16666666667,490.88887532552,757.66536458333,473.75"></polygon>
    <polygon data-section_name="1" data-section="1" data-build="1" data-build_name="4" data-floor="10"
             data-type="floor" class="s3d-svg__build js-s3d-svg__build"
             points="997.498046875,409.16666666667,1003.6647135417,406.66666666667,1014.1647135417,409.5,1023.3313802083,408.33333333333,1029.6647135417,406.33333333333,1031.1647135417,401.5,1110.498046875,368.16666666667,1116.998046875,368.66666666667,1123.1647135417,365.83333333333,1123.8313802083,356.33333333333,1130.3313802083,354.16666666667,1127.998046875,373.16666666667,1122.998046875,375,1121.3313802083,385.33333333333,1114.8313802083,388.16666666667,1108.3313802083,387.83333333333,1029.8313802083,421.66666666667,1028.6647135417,425.66666666667,1022.3313802083,428.33333333333,1012.1647135417,429.16666666667,1001.998046875,426.16666666667,996.498046875,428.66666666667"></polygon>
    <polygon data-section_name="3" data-section="3" data-build="1" data-build_name="4" data-floor="10"
             data-type="floor" class="s3d-svg__build js-s3d-svg__build"
             points="758,433.16666666667,717.33333333333,449,697.83333333333,440.16666666667,689.83333333333,443.16666666667,667.83333333333,434.16666666667,661.66666666667,434.16666666667,655.33333333333,431.16666666667,653.66666666667,427.16666666667,599.83333333333,402.16666666667,594,402.5,587.16666666667,400.33333333333,585.83333333333,395.16666666667,570.33333333333,387.83333333333,576.33333333333,384.83333333333,563.33333333333,378.5,563.83333333333,398.16666666667,576,404.5,570.33333333333,407.66666666667,586.5,415.5,588.5,420.16666666667,594.5,422.5,600.5,422.5,654,447.16666666667,655,451.83333333333,661.33333333333,454.83333333333,669,455.5,690.5,464.33333333333,698.66666666667,461.66666666667,716.66666666667,469.5,758,454.83333333333"></polygon>
    <polygon data-section_name="4" data-section="4" data-build="1" data-build_name="4" data-floor="10"
             data-type="floor" class="s3d-svg__build js-s3d-svg__build"
             points="563.33333333333,378.5,547,370.88887532552,541.66666666667,373.88887532552,521.66666666667,365.22220865885,515.83333333333,365.72220865885,509.83333333333,363.88887532552,508,359.05554199219,464.66666666667,338.88887532552,459.66666666667,339.22220865885,453.16666666667,337.55554199219,451.33333333333,331.88887532552,445.33333333333,330.22220865885,447.33333333333,348.38887532552,454,352.55554199219,455,356.22220865885,459.16666666667,358.38887532552,464.33333333333,358.22220865885,509.66666666667,378.22220865885,510.5,382.88887532552,514.66666666667,385.55554199219,521.66666666667,385.55554199219,540.66666666667,392.38887532552,547.66666666667,390.38887532552,563.83333333333,398.16666666667"></polygon>
    <polygon data-section_name="1" data-section="1" data-build="1" data-build_name="4" data-floor="11"
             data-type="floor" class="s3d-svg__build js-s3d-svg__build"
             points="999.16471354167,388.83333333333,1004.998046875,386.33333333333,1015.498046875,389.16666666667,1025.498046875,387.83333333333,1031.998046875,385,1033.1647135417,381.16666666667,1112.3313802083,349.16666666667,1118.3313802083,349.66666666667,1124.998046875,347.5,1126.498046875,337.16666666667,1131.498046875,334.83333333333,1130.3313802083,354.16666666667,1123.8313802083,356.33333333333,1123.1647135417,365.83333333333,1116.998046875,368.66666666667,1110.498046875,368.16666666667,1031.1647135417,401.5,1029.6647135417,406.33333333333,1023.3313802083,408.33333333333,1014.1647135417,409.5,1003.6647135417,406.66666666667,997.498046875,409.16666666667"></polygon>
    <polygon data-section_name="1" data-section="1" data-build="1" data-build_name="4" data-floor="12"
             data-type="floor" class="s3d-svg__build js-s3d-svg__build"
             points="1000.498046875,368.83333333333,1006.3313802083,367.5,1017.3313802083,370,1026.498046875,367.5,1033.3313802083,364.83333333333,1034.6647135417,360.83333333333,1113.6647135417,329.16666666667,1121.1647135417,329.66666666667,1126.3313802083,327.5,1128.8313802083,318.83333333333,1132.3313802083,318,1131.498046875,334.83333333333,1126.498046875,337.16666666667,1124.998046875,347.5,1118.3313802083,349.66666666667,1112.3313802083,349.16666666667,1033.1647135417,381.16666666667,1031.998046875,385,1025.498046875,387.83333333333,1015.498046875,389.16666666667,1004.998046875,386.33333333333,999.16471354167,388.83333333333"></polygon>
    <polygon data-section_name="4" data-section="4" data-build="1" data-build_name="4" data-floor="12"
             data-type="floor" class="s3d-svg__build js-s3d-svg__build"
             points="561.66666666667,339.27779134115,544.33333333333,331.55554199219,537.66666666667,333.72220865885,518.5,327.05554199219,513.33333333333,327.22220865885,509.16666666667,325.88887532552,506.5,322.22220865885,461.66666666667,301.72220865885,453.66666666667,301.22220865885,450.5,298.22220865885,444,294.38887532552,445.16666666667,313.27779134115,451.16666666667,315.94445800781,451.66666666667,318.27779134115,456.66666666667,321.27779134115,463.16666666667,320.44445800781,507,340.61112467448,508,343.77779134115,514.33333333333,346.27779134115,520,345.77779134115,539.66666666667,354.61112467448,545.33333333333,350.44445800781,562.33333333333,357.94445800781"></polygon>
    <polygon data-section_name="2" data-section="2" data-build="1" data-build_name="4" data-floor="13"
             data-type="floor" class="s3d-svg__build js-s3d-svg__build"
             points="1002.498046875,346.66666666667,1001.9986979167,354.33333333333,991.49869791667,356.16666666667,990.99869791667,363.33333333333,935.49869791667,384.16666666667,934.49869791667,389.66666666667,927.49869791667,390.83333333333,919.99869791667,390.83333333333,898.16536458333,399.33333333333,892.66536458333,398.16666666667,871.16536458333,406.33333333333,861.99869791667,402.66666666667,851.66536458333,407.16666666667,829.66536458333,399.16666666667,824.66536458333,400.66666666667,819.49869791667,399.16666666667,812.49869791667,399.66666666667,803.99869791667,395.83333333333,803.49869791667,391.66666666667,801.49869791667,384.83333333333,758.99869791667,369.33333333333,758.16536458333,389.83333333333,801.66536458333,405.66666666667,804.16536458333,417.66666666667,811.99869791667,421.16666666667,819.16536458333,421.16666666667,823.16536458333,424.33333333333,828.99869791667,423.33333333333,850.66536458333,431.66666666667,862.66536458333,427.16666666667,869.99869791667,428.83333333333,891.66536458333,421.16666666667,897.49869791667,421.66666666667,917.99869791667,413.66666666667,925.66536458333,413.66666666667,932.99869791667,411.33333333333,935.49869791667,405.66666666667,989.16536458333,385.16666666667,988.99869791667,377.83333333333,998.99869791667,375.83333333333,1000.498046875,368.83333333333"></polygon>
    <polygon data-section_name="3" data-section="3" data-build="1" data-build_name="4" data-floor="13"
             data-type="floor" class="s3d-svg__build js-s3d-svg__build"
             points="758.99869791667,369.33333333333,715.66666666667,383.77779134115,696.66666666667,376.44445800781,690,379.27779134115,667.66666666667,369.72220865885,659,370.88887532552,653.16666666667,368.22220865885,652.5,363.72220865885,599.33333333333,339.55554199219,597.33333333333,341.88887532552,590.33333333333,341.55554199219,586,339.72220865885,584.66666666667,335.22220865885,568.66666666667,325.88887532552,574.33333333333,322.88887532552,560.33333333333,316.88887532552,561.66666666667,339.27779134115,575,343.94445800781,569,347.61112467448,585.33333333333,354.61112467448,587,359.11112467448,591.83333333333,361.61112467448,598.33333333333,362.44445800781,653,386.61112467448,655.16666666667,390.94445800781,660.5,391.94445800781,667.83333333333,391.94445800781,689.66666666667,400.61112467448,697.83333333333,397.77779134115,717,405.61112467448,758.16536458333,389.83333333333"></polygon>
    <polygon data-section_name="4" data-section="4" data-build="1" data-build_name="4" data-floor="13"
             data-type="floor" class="s3d-svg__build js-s3d-svg__build"
             points="560.33333333333,316.88887532552,542,310.61110432943,536.66666666667,313.77777099609,517.33333333333,307.11110432943,511.16666666667,307.11110432943,505.33333333333,304.61110432943,504.66666666667,300.44443766276,461.33333333333,281.77777099609,453.66666666667,282.94443766276,450,280.61110432943,448.66666666667,276.94443766276,442.33333333333,273.27777099609,444,294.38887532552,450.5,298.22220865885,453.66666666667,301.22220865885,461.66666666667,301.72220865885,506.5,322.22220865885,509.16666666667,325.88887532552,513.33333333333,327.22220865885,518.5,327.05554199219,537.66666666667,333.72220865885,544.33333333333,331.55554199219,561.66666666667,339.27779134115"></polygon>
    <polygon data-section_name="1" data-section="1" data-build="1" data-build_name="4" data-floor="14"
             data-type="floor" class="s3d-svg__build js-s3d-svg__build"
             points="1002.998046875,326.33333333333,1010.3313802083,323.83333333333,1020.3313802083,326.5,1030.8313802083,325.83333333333,1037.1647135417,323.16666666667,1037.498046875,318.33333333333,1117.3313802083,288.66666666667,1125.498046875,289.5,1131.1647135417,287.16666666667,1131.998046875,284.66666666667,1136.6647135417,282.33333333333,1134.8313802083,302.33333333333,1130.3313802083,303.83333333333,1129.6647135417,307.16666666667,1123.3313802083,309.5,1116.1647135417,309.5,1035.8313802083,340.33333333333,1034.8313802083,343.83333333333,1028.8313802083,346.33333333333,1018.3313802083,347.16666666667,1008.1647135417,344,1002.498046875,346.66666666667"></polygon>
    <polygon data-section_name="3" data-section="3" data-build="1" data-build_name="4" data-floor="14"
             data-type="floor" class="s3d-svg__build js-s3d-svg__build"
             points="758.66666666667,347.72220865885,716.66666666667,362.22220865885,698.5,354.55554199219,690.66666666667,358.22220865885,667,348.88887532552,660.5,349.72220865885,653,346.55554199219,651.83333333333,342.55554199219,596.66666666667,320.55554199219,585.33333333333,318.22220865885,584.5,313.88887532552,568,306.38887532552,573.66666666667,303.05554199219,559.83333333333,297.22220865885,560.33333333333,316.88887532552,574.33333333333,322.88887532552,568.66666666667,325.88887532552,584.66666666667,335.22220865885,586,339.72220865885,590.33333333333,341.55554199219,597.33333333333,341.88887532552,599.33333333333,339.55554199219,652.5,363.72220865885,653.16666666667,368.22220865885,659,370.88887532552,667.66666666667,369.72220865885,690,379.27779134115,696.66666666667,376.44445800781,715.66666666667,383.77779134115,758.99869791667,369.33333333333"></polygon>
    <polygon data-section_name="4" data-section="4" data-build="1" data-build_name="4" data-floor="14"
             data-type="floor" class="s3d-svg__build js-s3d-svg__build"
             points="559.83333333333,297.22220865885,543.66666666667,291.27777099609,536,294.61110432943,517.33333333333,286.44443766276,511.16666666667,286.94443766276,505.66666666667,285.77777099609,504,280.27777099609,459.16666666667,261.94443766276,454.33333333333,263.27777099609,447.66666666667,260.61110432943,447,256.61110432943,440.33333333333,253.61110432943,442.33333333333,273.27777099609,448.66666666667,276.94443766276,450,280.61110432943,453.66666666667,282.94443766276,461.33333333333,281.77777099609,504.66666666667,300.44443766276,505.33333333333,304.61110432943,511.16666666667,307.11110432943,517.33333333333,307.11110432943,536.66666666667,313.77777099609,542,310.61110432943,560.33333333333,316.88887532552"></polygon>
</svg>