<svg preserveAspectRatio="xMidYMid slice" id="floor--svg"  viewBox="0 0 1440 810" version="1.0" xmlns="http://www.w3.org/2000/svg"><polygon  data-section_name="3" data-section="3" data-build="1" data-build_name="4" data-floor="2" data-type="floor" class="s3d-svg__build js-s3d-svg__build" points="804.5,549.16666666667,804.5,569,817.16666666667,562.16666666667,825.83333333333,566.16666666667,844.5,555,850.33333333333,553.5,856.66666666667,549.16666666667,856.5,547,899.66666666667,520.83333333333,905.66666666667,520.16666666667,910.33333333333,517.16666666667,911,514.16666666667,925.16666666667,505.5,918.66666666667,500.83333333333,919.33333333333,495.83333333333,927.66666666667,492.16666666667,928.66666666667,478.5,919.83333333333,483.66666666667,924,487.5,912.33333333333,495.5,911.16666666667,499.16666666667,905.66666666667,501.66666666667,899.83333333333,502.16666666667,857,528.5,856,531.83333333333,851.33333333333,534.83333333333,845.16666666667,535.16666666667,826.66666666667,544.5,818.33333333333,541"></polygon><polygon  data-section_name="3" data-section="3" data-build="1" data-build_name="4" data-floor="8" data-type="floor" class="s3d-svg__build js-s3d-svg__build" points="953.16666666667,349.05554199219,945.83333333333,353.55554199219,943.83333333333,360.38887532552,937,362.22220865885,924,370.55554199219,924.66666666667,376.38887532552,930,379.72220865885,917.83333333333,385.88887532552,915.83333333333,390.88887532552,911,393.55554199219,904.33333333333,393.72220865885,861.16666666667,416.22220865885,858.66666666667,421.05554199219,854,423.05554199219,847.83333333333,422.88887532552,829.83333333333,431.72220865885,821.16666666667,429.22220865885,807,436.55554199219,807,455.94445800781,821,448.94445800781,829.83333333333,451.27779134115,846.5,441.94445800781,853.83333333333,441.94445800781,859.16666666667,439.61112467448,861.33333333333,433.77779134115,903.33333333333,411.61112467448,910.33333333333,411.77779134115,914.5,409.77779134115,915.66666666667,405.11112467448,929.33333333333,397.94445800781,923.66666666667,394.27779134115,924,389.11112467448,937,379.77779134115,943,377.11112467448,944.5,370.27779134115,951.83333333333,365.61112467448"></polygon><polygon  data-section_name="3" data-section="3" data-build="1" data-build_name="4" data-floor="9" data-type="floor" class="s3d-svg__build js-s3d-svg__build" points="953.83333333333,331.5,945.83333333333,334.83333333333,945.16666666667,341.83333333333,940.66666666667,345,936.5,344.33333333333,925,350.55554199219,925.16666666667,357.72220865885,931,360.55554199219,917.16666666667,368.22220865885,917.16666666667,371.88887532552,912.33333333333,374.55554199219,904.66666666667,375.22220865885,861.16666666667,397.55554199219,860.66666666667,401.05554199219,855.16666666667,403.55554199219,847.83333333333,403.72220865885,830.66666666667,412.22220865885,821.33333333333,409.22220865885,806.5,415.88887532552,807,436.55554199219,821.16666666667,429.22220865885,829.83333333333,431.72220865885,847.83333333333,422.88887532552,854,423.05554199219,858.66666666667,421.05554199219,861.16666666667,416.22220865885,904.33333333333,393.72220865885,911,393.55554199219,915.83333333333,390.88887532552,917.83333333333,385.88887532552,930,379.72220865885,924.66666666667,376.38887532552,924,370.55554199219,937,362.22220865885,943.83333333333,360.38887532552,945.83333333333,353.55554199219,953.16666666667,349.05554199219"></polygon><polygon  data-section_name="3" data-section="3" data-build="1" data-build_name="4" data-floor="10" data-type="floor" class="s3d-svg__build js-s3d-svg__build" points="806.5,396.16666666667,821.66666666667,388.83333333333,830.66666666667,392.16666666667,846.66666666667,383.66666666667,855.16666666667,383.66666666667,861.16666666667,381.83333333333,863,375.66666666667,905.83333333333,355.16666666667,912.66666666667,355.16666666667,917.66666666667,353.66666666667,919.16666666667,348.16666666667,932,343,926.33333333333,338.5,926.66666666667,331.16666666667,936.66666666667,327,945.33333333333,325,947.66666666667,317.83333333333,954.5,313.83333333333,953.83333333333,331.5,945.83333333333,334.83333333333,945.16666666667,341.83333333333,940.66666666667,345,936.5,344.33333333333,925,350.55554199219,925.16666666667,357.72220865885,931,360.55554199219,917.16666666667,368.22220865885,917.16666666667,371.88887532552,912.33333333333,374.55554199219,904.66666666667,375.22220865885,861.16666666667,397.55554199219,860.66666666667,401.05554199219,855.16666666667,403.55554199219,847.83333333333,403.72220865885,830.66666666667,412.22220865885,821.33333333333,409.22220865885,806.5,415.88887532552"></polygon><polygon  data-section_name="4" data-section="4" data-build="1" data-build_name="4" data-floor="10" data-type="floor" class="s3d-svg__build js-s3d-svg__build" points="600.66666666667,454.83333333333,650,473.16666666667,669,464.16666666667,678,467,698,457.16666666667,705.83333333333,457.16666666667,713.33333333333,454.16666666667,715,449.16666666667,767.66666666667,423,775.16666666667,423.16666666667,781.33333333333,421,782.66666666667,415.66666666667,798.66666666667,407,793,403,806.5,396.16666666667,806.5,415.88887532552,793.66666666667,423.16666666667,799,427.16666666667,783.33333333333,435.16666666667,781,440.16666666667,775,443.83333333333,768.33333333333,443.83333333333,714.5,470.16666666667,713.16666666667,475,707,478.16666666667,699.66666666667,478.16666666667,678.5,488.5,668.33333333333,486.33333333333,650.33333333333,494.5,601,477"></polygon><polygon  data-section_name="1" data-section="1" data-build="1" data-build_name="4" data-floor="12" data-type="floor" class="s3d-svg__build js-s3d-svg__build" points="624.16536458333,210.83333333333,637.16536458333,213.33333333333,630.16536458333,216.33333333333,660.66536458333,224.66666666667,672.99869791667,228.16666666667,666.66536458333,232.16666666667,648.66536458333,237.66666666667,631.66536458333,233.33333333333,636.99869791667,230.83333333333,624.99869791667,227.83333333333"></polygon><polygon  data-section_name="4" data-section="4" data-build="1" data-build_name="4" data-floor="12" data-type="floor" class="s3d-svg__build js-s3d-svg__build" points="599.83333333333,414.61112467448,650,431.27779134115,667.66666666667,422.27779134115,677.66666666667,423.61112467448,698.33333333333,414.61112467448,706,413.94445800781,711.83333333333,411.94445800781,714.33333333333,405.77779134115,768.66666666667,381.77779134115,775.66666666667,381.77779134115,782.5,379.61112467448,786.66666666667,372.94445800781,801.16666666667,366.44445800781,793.66666666667,361.61112467448,809.16666666667,355.55554199219,809.16666666667,376.33333333333,795,382.83333333333,800,386.5,783.16666666667,395,781,399.83333333333,775.66666666667,402.5,768,403,714,428.83333333333,711.66666666667,433.66666666667,706,436.16666666667,698,436.16666666667,677.33333333333,445.66666666667,667.83333333333,442.83333333333,649.66666666667,451.5,600.33333333333,434.83333333333"></polygon><polygon  data-section_name="3" data-section="3" data-build="1" data-build_name="4" data-floor="13" data-type="floor" class="s3d-svg__build js-s3d-svg__build" points="809.16666666667,335.66666666667,824,330.33333333333,832.66666666667,333,850.33333333333,324.16666666667,857.66666666667,324.5,862.5,321.83333333333,865.83333333333,315.5,907.66666666667,297.66666666667,914,298.33333333333,921.16666666667,295,921.33333333333,291.16666666667,933.83333333333,285.16666666667,926.66666666667,282.5,927,278.33333333333,942.66666666667,273,950,269.66666666667,951.16666666667,265.16666666667,957.16666666667,263,956.66666666667,279.22220865885,949,282.55554199219,948.5,289.05554199219,943,290.55554199219,938.66666666667,291.55554199219,927.83333333333,296.88887532552,927.83333333333,301.72220865885,933.83333333333,303.72220865885,921,311.55554199219,919,315.55554199219,914,317.72220865885,907.83333333333,318.55554199219,863.33333333333,337.55554199219,862,342.22220865885,856.5,344.88887532552,849.66666666667,344.22220865885,833.83333333333,351.05554199219,823,349.88887532552,809.16666666667,355.55554199219"></polygon><polygon  data-section_name="4" data-section="4" data-build="1" data-build_name="4" data-floor="13" data-type="floor" class="s3d-svg__build js-s3d-svg__build" points="599.16666666667,390.55554199219,649.16666666667,407.55554199219,668.5,398.38887532552,677.66666666667,401.55554199219,699,392.38887532552,706.33333333333,392.55554199219,711.66666666667,391.05554199219,713.66666666667,385.55554199219,770.33333333333,360.55554199219,777.66666666667,360.55554199219,783.66666666667,357.05554199219,784.5,354.22220865885,801.33333333333,345.55554199219,794,342.22220865885,809.16666666667,335.66666666667,809.16666666667,355.55554199219,793.66666666667,361.61112467448,801.16666666667,366.44445800781,786.66666666667,372.94445800781,782.5,379.61112467448,775.66666666667,381.77779134115,768.66666666667,381.77779134115,714.33333333333,405.77779134115,711.83333333333,411.94445800781,706,413.94445800781,698.33333333333,414.61112467448,677.66666666667,423.61112467448,667.66666666667,422.27779134115,650,431.27779134115,599.83333333333,414.61112467448"></polygon><polygon  data-section_name="1" data-section="1" data-build="1" data-build_name="4" data-floor="14" data-type="floor" class="s3d-svg__build js-s3d-svg__build" points="623.99869791667,181.33333333333,647.49869791667,186.66666666667,649.49869791667,190.16666666667,656.99869791667,190.66666666667,710.16536458333,203.66666666667,717.16536458333,206.16666666667,723.66536458333,205.66666666667,743.66536458333,210.66666666667,751.16536458333,207.66666666667,760.49869791667,209.33333333333,767.49869791667,212.33333333333,765.49869791667,217.16666666667,758.99869791667,222.16666666667,750.49869791667,227.16666666667,746.16536458333,224.83333333333,741.49869791667,226.83333333333,724.66536458333,223.83333333333,722.66536458333,221.66666666667,711.16536458333,220.66666666667,658.66536458333,207.66666666667,653.49869791667,207.66666666667,648.49869791667,206.83333333333,646.66536458333,204.16666666667,629.99869791667,199.83333333333,637.66536458333,196.83333333333,624.49869791667,194.66666666667"></polygon><polygon  data-section_name="3" data-section="3" data-build="1" data-build_name="4" data-floor="14" data-type="floor" class="s3d-svg__build js-s3d-svg__build" points="958.33333333333,241.83333333333,950.66666666667,245.16666666667,950.5,251.66666666667,941,255,924.5,261.5,924.5,265.66666666667,935.16666666667,266.83333333333,922.5,272.33333333333,922.5,275.5,916.66666666667,278.33333333333,909.83333333333,278.16666666667,864.66666666667,297.16666666667,863,301.83333333333,858.66666666667,303.66666666667,851,303.5,833.66666666667,311.83333333333,825.16666666667,308.5,808.66666666667,315,809.16666666667,335.66666666667,824,330.33333333333,832.66666666667,333,850.33333333333,324.16666666667,857.66666666667,324.5,862.5,321.83333333333,865.83333333333,315.5,907.66666666667,297.66666666667,914,298.33333333333,921.16666666667,295,921.33333333333,291.16666666667,933.83333333333,285.16666666667,926.66666666667,282.5,927,278.33333333333,942.66666666667,273,950,269.66666666667,951.16666666667,265.16666666667,957.16666666667,263"></polygon><polygon  data-section_name="4" data-section="4" data-build="1" data-build_name="4" data-floor="14" data-type="floor" class="s3d-svg__build js-s3d-svg__build" points="598.5,367.88887532552,648.33333333333,384.38887532552,666.5,376.88887532552,677.33333333333,380.22220865885,698.66666666667,370.38887532552,706.66666666667,370.88887532552,713,367.88887532552,715.33333333333,362.22220865885,770.5,339.55554199219,776.66666666667,339.05554199219,782.66666666667,337.22220865885,783.66666666667,332.55554199219,801,325.72220865885,793.66666666667,322.38887532552,808.66666666667,315,809.16666666667,335.66666666667,794,342.22220865885,801.33333333333,345.55554199219,784.5,354.22220865885,783.66666666667,357.05554199219,777.66666666667,360.55554199219,770.33333333333,360.55554199219,713.66666666667,385.55554199219,711.66666666667,391.05554199219,706.33333333333,392.55554199219,699,392.38887532552,677.66666666667,401.55554199219,668.5,398.38887532552,649.16666666667,407.55554199219,599.16666666667,390.55554199219"></polygon></svg>