<svg  viewBox="0 0 1920 1080" id="floor--svg" version="1.0" xmlns="http://www.w3.org/2000/svg" preserveAspectRatio="xMidYMid slice"><polygon data-id="26241" data-section="1" data-section_name="1" data-build="1" data-build_name="4" data-floor="2" data-type="flat" class="s3d-svg__build js-s3d-svg__build" points="1446,698.5,1446,698.5,1446,698.5,1446,698.5,1477,688,1477,688,1477,688,1477,688,1476,711.5,1476,711.5,1476,711.5,1476,711.5,1449,720,1449,720,1449,720,1449,720,1445.5,721.5,1445.5,721.5,1445.5,721.5,1445.5,721.5"></polygon><polygon data-id="26235" data-section="1" data-section_name="1" data-build="1" data-build_name="4" data-floor="4" data-type="flat" class="s3d-svg__build js-s3d-svg__build" points="1343.5,699,1343.5,699,1343.5,699,1343.5,699,1341,725,1341,725,1341,725,1341,725,1377.5,708.5,1377.5,708.5,1377.5,708.5,1377.5,708.5,1381,682.5,1381,682.5,1381,682.5,1381,682.5"></polygon><polygon data-id="26244" data-section="1" data-section_name="1" data-build="1" data-build_name="4" data-floor="6" data-type="flat" class="s3d-svg__build js-s3d-svg__build" points="1452.5,601,1452.5,601,1452.5,601,1452.5,601,1450.5,625.5,1450.5,625.5,1450.5,625.5,1450.5,625.5,1486,615.5,1486,615.5,1486,615.5,1486,615.5,1487.5,586.5,1487.5,586.5,1487.5,586.5,1487.5,586.5"></polygon><polygon data-id="26245" data-section="1" data-section_name="1" data-build="1" data-build_name="4" data-floor="7" data-type="flat" class="s3d-svg__build js-s3d-svg__build" points="1455.5,576.5,1455.5,576.5,1455.5,576.5,1455.5,576.5,1452.5,601,1452.5,601,1452.5,601,1452.5,601,1487.5,586.5,1487.5,586.5,1487.5,586.5,1487.5,586.5,1489,563.5,1489,563.5,1489,563.5,1489,563.5"></polygon><polygon data-id="26242" data-section="1" data-section_name="1" data-build="1" data-build_name="4" data-floor="4" data-type="flat" class="s3d-svg__build js-s3d-svg__build" points="1448,651,1448,651,1448,651,1448,651,1447.5,672.5,1447.5,672.5,1447.5,672.5,1447.5,672.5,1481,663.5,1481,663.5,1481,663.5,1481,663.5,1483.5,638.5,1483.5,638.5,1483.5,638.5,1483.5,638.5"></polygon><polygon data-id="26243" data-section="1" data-section_name="1" data-build="1" data-build_name="4" data-floor="5" data-type="flat" class="s3d-svg__build js-s3d-svg__build" points="1450.5,625.5,1450.5,625.5,1450.5,625.5,1450.5,625.5,1448,651,1448,651,1448,651,1448,651,1483.5,638.5,1483.5,638.5,1483.5,638.5,1483.5,638.5,1486,615.5,1486,615.5,1486,615.5,1486,615.5"></polygon><polygon data-id="26236" data-section="1" data-section_name="1" data-build="1" data-build_name="4" data-floor="6" data-type="flat" class="s3d-svg__build js-s3d-svg__build" points="1348,647,1348,647,1348,647,1348,647,1384.5,632.5,1384.5,632.5,1384.5,632.5,1384.5,632.5,1383,657,1383,657,1383,657,1383,657,1345,675.5,1345,675.5,1345,675.5,1345,675.5"></polygon><polygon data-id="26237" data-section="1" data-section_name="1" data-build="1" data-build_name="4" data-floor="8" data-type="flat" class="s3d-svg__build js-s3d-svg__build" points="1352.5,596,1352.5,596,1352.5,596,1352.5,596,1350.5,621,1350.5,621,1350.5,621,1350.5,621,1389,607,1389,607,1389,607,1389,607,1390.5,581,1390.5,581,1390.5,581,1390.5,581"></polygon><polygon data-id="26246" data-section="1" data-section_name="1" data-build="1" data-build_name="4" data-floor="8" data-type="flat" class="s3d-svg__build js-s3d-svg__build" points="1456.5,551.5,1456.5,551.5,1456.5,551.5,1456.5,551.5,1455.5,576.5,1455.5,576.5,1455.5,576.5,1455.5,576.5,1489,563.5,1489,563.5,1489,563.5,1489,563.5,1492.5,536.5,1492.5,536.5,1492.5,536.5,1492.5,536.5"></polygon><polygon data-id="26238" data-section="1" data-section_name="1" data-build="1" data-build_name="4" data-floor="9" data-type="flat" class="s3d-svg__build js-s3d-svg__build" points="1352.5,596,1352.5,596,1352.5,596,1352.5,596,1390.5,581,1390.5,581,1390.5,581,1390.5,581,1392.5,554.5,1392.5,554.5,1392.5,554.5,1392.5,554.5,1354,566.5,1354,566.5,1354,566.5,1354,566.5"></polygon><polygon data-id="26247" data-section="1" data-section_name="1" data-build="1" data-build_name="4" data-floor="9" data-type="flat" class="s3d-svg__build js-s3d-svg__build" points="1461,524,1461,524,1461,524,1461,524,1456.5,551.5,1456.5,551.5,1456.5,551.5,1456.5,551.5,1492.5,536.5,1492.5,536.5,1492.5,536.5,1492.5,536.5,1495,514.5,1495,514.5,1495,514.5,1495,514.5"></polygon><polygon data-id="26239" data-section="1" data-section_name="1" data-build="1" data-build_name="4" data-floor="10" data-type="flat" class="s3d-svg__build js-s3d-svg__build" points="1354,544,1354,544,1354,544,1354,544,1354,566.5,1354,566.5,1354,566.5,1354,566.5,1392.5,554.5,1392.5,554.5,1392.5,554.5,1392.5,554.5,1394,528,1394,528,1394,528,1394,528"></polygon><polygon data-id="26248" data-section="1" data-section_name="1" data-build="1" data-build_name="4" data-floor="10" data-type="flat" class="s3d-svg__build js-s3d-svg__build" points="1462.5,499.5,1462.5,499.5,1462.5,499.5,1462.5,499.5,1496,489,1496,489,1496,489,1496,489,1495,514.5,1495,514.5,1495,514.5,1495,514.5,1461,524,1461,524,1461,524,1461,524"></polygon><polygon data-id="26249" data-section="1" data-section_name="1" data-build="1" data-build_name="4" data-floor="11" data-type="flat" class="s3d-svg__build js-s3d-svg__build" points="1464.5,471.5,1464.5,471.5,1464.5,471.5,1464.5,471.5,1462.5,499.5,1462.5,499.5,1462.5,499.5,1462.5,499.5,1496,489,1496,489,1496,489,1496,489,1500,463.5,1500,463.5,1500,463.5,1500,463.5"></polygon><polygon data-id="26240" data-section="1" data-section_name="1" data-build="1" data-build_name="4" data-floor="12" data-type="flat" class="s3d-svg__build js-s3d-svg__build" points="1394.5,501.5,1394.5,501.5,1394.5,501.5,1394.5,501.5,1394,528,1394,528,1394,528,1394,528,1354,544,1354,544,1354,544,1354,544,1358,514.5,1358,514.5,1358,514.5,1358,514.5"></polygon><polygon data-id="26250" data-section="1" data-section_name="1" data-build="1" data-build_name="4" data-floor="14" data-type="flat" class="s3d-svg__build js-s3d-svg__build" points="1466.5,445.5,1466.5,445.5,1466.5,445.5,1466.5,445.5,1464.5,471.5,1464.5,471.5,1464.5,471.5,1464.5,471.5,1500,463.5,1500,463.5,1500,463.5,1500,463.5,1502,434,1502,434,1502,434,1502,434"></polygon><polygon data-id="26228" data-section="2" data-section_name="2" data-build="1" data-build_name="4" data-floor="2" data-type="flat" class="s3d-svg__build js-s3d-svg__build" points="1149.3333333333,851.66666666667,1177,838.33333333333,1182.6666666667,841,1209.6666666667,827,1221,826.33333333333,1230,822,1229.3333333333,848.66666666667,1220.3333333333,854,1209.3333333333,855,1182,869.33333333333,1176,868.33333333333,1149,881.66666666667,1138,874.33333333333,1125,882.66666666667,1097.3333333333,868,1098.6666666667,838.66666666667,1126,852,1138,847.33333333333"></polygon><polygon data-id="26234" data-section="2" data-section_name="2" data-build="1" data-build_name="4" data-floor="2" data-type="flat" class="s3d-svg__build js-s3d-svg__build" points="1300,798,1300,798,1311,793,1311,793,1311,770,1311,770,1303,773,1303,773"></polygon><polygon data-id="26223" data-section="3" data-section_name="3" data-build="1" data-build_name="4" data-floor="2" data-type="flat" class="s3d-svg__build js-s3d-svg__build" points="784,753,784,753,784,731,784,731,777,728,777,728,776,753,776,753"></polygon><polygon data-id="26224" data-section="3" data-section_name="3" data-build="1" data-build_name="4" data-floor="8" data-type="flat" class="s3d-svg__build js-s3d-svg__build" points="781,607,781,607,781,581,781,581,771,576,771,576,770,600,770,600"></polygon><polygon data-id="26225" data-section="3" data-section_name="3" data-build="1" data-build_name="4" data-floor="9" data-type="flat" class="s3d-svg__build js-s3d-svg__build" points="781,581,781,581,780,554,780,554,769,548,769,548,771,576,771,576"></polygon><polygon data-id="26226" data-section="3" data-section_name="3" data-build="1" data-build_name="4" data-floor="10" data-type="flat" class="s3d-svg__build js-s3d-svg__build" points="780,554,780,554,779,527,779,527,771,524,771,524,769,548,769,548"></polygon><polygon data-id="26227" data-section="3" data-section_name="3" data-build="1" data-build_name="4" data-floor="13" data-type="flat" class="s3d-svg__build js-s3d-svg__build" points="778,472,778,472,776,447,776,447,769,444,769,444,768,471,768,471"></polygon><polygon data-id="26219" data-section="4" data-section_name="4" data-build="1" data-build_name="4" data-floor="10" data-type="flat" class="s3d-svg__build js-s3d-svg__build" points="601.5,467.5,601.5,467.5,595,465.5,595,465.5,595,442,595,442,599.5,442.5,599.5,442.5,601.5,444.5,601.5,444.5"></polygon><polygon data-id="26220" data-section="4" data-section_name="4" data-build="1" data-build_name="4" data-floor="12" data-type="flat" class="s3d-svg__build js-s3d-svg__build" points="599.5,420,599.5,420,592,416.5,592,416.5,591.5,392,591.5,392,597.5,394,597.5,394"></polygon><polygon data-id="26221" data-section="4" data-section_name="4" data-build="1" data-build_name="4" data-floor="13" data-type="flat" class="s3d-svg__build js-s3d-svg__build" points="597.5,394,597.5,394,591.5,392,591.5,392,589,366,589,366,596.5,367.5,596.5,367.5"></polygon><polygon data-id="26222" data-section="4" data-section_name="4" data-build="1" data-build_name="4" data-floor="14" data-type="flat" class="s3d-svg__build js-s3d-svg__build" points="589,366,589,366,596.5,367.5,596.5,367.5,596,343.5,596,343.5,587.5,339.5,587.5,339.5"></polygon><polygon data-id="26229" data-section="2" data-section_name="2" data-build="1" data-build_name="4" data-floor="4" data-type="flat" class="s3d-svg__build js-s3d-svg__build" points="1086.6666666667,808.33333333333,1077,808.33333333333,1066,802.66666666667,1061.6666666667,799,1060.3333333333,791.66666666667,1040.6666666667,782,1008.6666666667,766.33333333333,1008.6666666667,738.66666666667,1040.3333333333,754.66666666667,1061,765.33333333333,1062.3333333333,773,1067.3333333333,777,1076.6666666667,781.33333333333,1087.3333333333,782"></polygon><polygon data-id="26230" data-section="2" data-section_name="2" data-build="1" data-build_name="4" data-floor="6" data-type="flat" class="s3d-svg__build js-s3d-svg__build" points="1087.6666666667,758.33333333333,1078,756.66666666667,1067.6666666667,752.33333333333,1062.6666666667,745.33333333333,1061,738.33333333333,1041.3333333333,728.66666666667,1009,714.33333333333,1009.3333333333,686,1041,701,1061.6666666667,711.66666666667,1067,721.66666666667,1078,727,1087.6666666667,727.66666666667"></polygon><polygon data-id="26231" data-section="2" data-section_name="2" data-build="1" data-build_name="4" data-floor="7" data-type="flat" class="s3d-svg__build js-s3d-svg__build" points="1087.6666666667,727.66666666667,1078,727,1067,721.66666666667,1061.6666666667,711.66666666667,1041,701,1009.3333333333,686,1010,659.33333333333,1041.3333333333,674.33333333333,1061.3333333333,682.66666666667,1064.6666666667,691,1068.3333333333,694,1079.3333333333,699,1087.6666666667,699.66666666667"></polygon><polygon data-id="26232" data-section="2" data-section_name="2" data-build="1" data-build_name="4" data-floor="8" data-type="flat" class="s3d-svg__build js-s3d-svg__build" points="1087.6666666667,699.66666666667,1079.3333333333,699,1068.3333333333,694,1064.6666666667,691,1061.3333333333,682.66666666667,1041.3333333333,674.33333333333,1010,659.33333333333,1010,632.33333333333,1042,646.66666666667,1063,656,1067.3333333333,665,1070.3333333333,667.33333333333,1080.6666666667,671.66666666667,1088.6666666667,671.33333333333"></polygon><polygon data-id="26233" data-section="2" data-section_name="2" data-build="1" data-build_name="4" data-floor="13" data-type="flat" class="s3d-svg__build js-s3d-svg__build" points="1092.6666666667,559,1083,559,1072.3333333333,555.33333333333,1064.3333333333,550.33333333333,1061,545.33333333333,1043.6666666667,535.33333333333,1010,524.66666666667,1010.3333333333,493.33333333333,1044.3333333333,506,1064.3333333333,513.33333333333,1066,520.66666666667,1071,524.33333333333,1082.3333333333,528.33333333333,1092.6666666667,528.66666666667"></polygon></svg>