<svg width="60" height="60" viewBox="0 0 60 60" fill="none" xmlns="http://www.w3.org/2000/svg">
<circle cx="30" cy="30" r="30" fill="white"/>
<path d="M30.0592 39.7205C29.5914 38.4058 28.9282 37.2876 28.015 36.3679C27.0778 35.4241 25.9188 34.7309 24.5268 34.2422C25.9209 33.737 27.0803 33.021 28.015 32.0429C28.9188 31.0972 29.5735 29.9462 30.0333 28.5882C30.5336 29.9511 31.231 31.1015 32.1676 32.0439C33.1286 33.011 34.3014 33.7186 35.6866 34.2161C34.308 34.7101 33.1424 35.4059 32.1879 36.3476C31.2506 37.2724 30.5552 38.3964 30.0592 39.7205Z" fill="#2A3341" stroke="#2A3341" stroke-width="2"/>
<path d="M28.88 13V19H28.088V13.768H24.632V19H23.84V13H28.88ZM34.8028 13H35.5948V19H34.8028V16.384H31.3468V19H30.5548V13H31.3468V15.616H34.8028V13Z" fill="#2A3341"/>
</svg>
