<svg width="60" height="60" viewBox="0 0 60 60" fill="none" xmlns="http://www.w3.org/2000/svg">
<circle cx="30" cy="30" r="30" fill="white"/>
<path d="M17.0299 34.2657C27.1186 34.2422 30.0088 37.538 30.0308 46.9738C30.0088 37.538 33.364 34.2276 42.9723 34.2052C33.364 34.2276 29.9934 30.9329 29.9703 21.0254C29.9934 30.9329 27.1186 34.2422 17.0299 34.2657Z" fill="#2A3341"/>
<path fill-rule="evenodd" clip-rule="evenodd" d="M30.0308 46.9738C30.0238 43.9771 30.3575 41.5983 31.1238 39.7464C32.0156 37.5914 33.4933 36.1499 35.7021 35.2787C37.5721 34.5411 39.9662 34.2122 42.9723 34.2052C39.9693 34.2122 37.5755 33.8952 35.7029 33.1535C33.4835 32.2744 31.996 30.7988 31.0936 28.5592C30.3214 26.6425 29.9776 24.1663 29.9703 21.0254C29.9776 24.1784 29.6915 26.6632 28.9727 28.5865C28.1386 30.8183 26.722 32.2939 24.5054 33.1803C22.6301 33.9303 20.1821 34.2584 17.0299 34.2657C20.1853 34.2584 22.6366 34.5757 24.5162 35.3041C26.7296 36.1619 28.1502 37.5897 28.9943 39.7284C29.7251 41.5801 30.0238 43.9647 30.0308 46.9738ZM30.077 37.4066C30.4755 36.7631 30.9422 36.1718 31.4855 35.6358C32.0436 35.0852 32.661 34.6141 33.3349 34.2134C32.651 33.8033 32.0243 33.3184 31.4583 32.7489C30.9212 32.2085 30.4586 31.6117 30.0622 30.9609C29.69 31.6043 29.2517 32.1962 28.7379 32.7338C28.1818 33.3158 27.5603 33.8105 26.8759 34.2285C27.554 34.6307 28.171 35.1058 28.7246 35.6633C29.2493 36.1918 29.6969 36.7741 30.077 37.4066Z" fill="#2A3341"/>
<path d="M28.88 13V19H28.088V13.768H24.632V19H23.84V13H28.88ZM34.8028 13H35.5948V19H34.8028V16.384H31.3468V19H30.5548V13H31.3468V15.616H34.8028V13Z" fill="#2A3341"/>
</svg>
