<svg width="19" height="16" viewBox="0 0 19 16" fill="none" xmlns="http://www.w3.org/2000/svg">
<path d="M15.9501 3.80371C15.2317 2.64326 14.2235 1.67896 13.0345 1.01506C11.8452 0.351013 10.4974 0 9.13673 0H9.13652H9.13603H9.13586C7.77517 0 6.42732 0.351013 5.23803 1.01506C4.04902 1.67896 3.04088 2.64326 2.32248 3.80371C2.22645 3.95888 2.19434 4.24871 2.19434 4.24871C2.21633 6.09675 8.61271 5.50581 8.61271 5.50581V8.77454H5.26317C4.97398 8.77454 4.73953 9.00899 4.73953 9.29818C4.73953 9.58737 4.97398 9.82182 5.26317 9.82182H6.25623V14.6695C6.25623 14.9587 6.49068 15.1932 6.77987 15.1932C7.06906 15.1932 7.30351 14.9587 7.30351 14.6695V9.82182H10.9866V14.6695C10.9866 14.9587 11.2211 15.1932 11.5103 15.1932C11.7995 15.1932 12.0339 14.9587 12.0339 14.6695V9.82182H13.1132C13.4024 9.82182 13.6369 9.58737 13.6369 9.29818C13.6369 9.00899 13.4024 8.77454 13.1132 8.77454H9.65992V5.50679C10.8402 5.50561 16.0781 6.4829 16.0781 4.3285C16.0781 4.3285 16.0461 3.95888 15.9501 3.80371Z" fill="#F3EFE9"/>
<path d="M4.15992 10.888H1.69837L1.2429 7.27078C1.20681 6.98383 0.944884 6.78058 0.657965 6.81664C0.371046 6.85278 0.167735 7.11467 0.203866 7.40162L0.713436 11.4487V14.6767C0.713436 14.9659 0.947886 15.2003 1.23707 15.2003C1.52626 15.2003 1.76071 14.9659 1.76071 14.6767V11.9353H3.63635V14.6767C3.63635 14.9659 3.8708 15.2003 4.15999 15.2003C4.44918 15.2003 4.68363 14.9659 4.68363 14.6767V11.4117C4.68356 11.1225 4.44914 10.888 4.15992 10.888Z" fill="#F3EFE9"/>
<path d="M17.6145 6.81666C17.3276 6.78053 17.0657 6.98387 17.0296 7.27079L16.5741 10.888H14.1125C13.8233 10.888 13.5889 11.1225 13.5889 11.4117V14.6766C13.5889 14.9658 13.8233 15.2003 14.1125 15.2003C14.4017 15.2003 14.6361 14.9658 14.6361 14.6766V11.9353H16.5118V14.6766C16.5118 14.9658 16.7462 15.2003 17.0354 15.2003C17.3246 15.2003 17.5591 14.9658 17.5591 14.6766V11.4487L18.0686 7.4016C18.1048 7.11468 17.9015 6.85279 17.6145 6.81666Z" fill="#F3EFE9"/>
</svg>
