<svg width="16" height="16" viewBox="0 0 16 16" fill="none" xmlns="http://www.w3.org/2000/svg">
<path d="M15.4173 1.78504H13.8917V0.420003C13.8917 0.188056 13.6813 0 13.4223 0H0.865167C0.606048 0 0.395752 0.188056 0.395752 0.420003V3.99011C0.395752 4.22185 0.606048 4.41011 0.865167 4.41011H13.4223C13.6813 4.41011 13.8917 4.22185 13.8917 3.99011V2.62504H14.9478V6.93016H7.14365C6.88453 6.93016 6.67424 7.11822 6.67424 7.35017V8.61018H5.79408C5.59972 8.61018 5.44201 8.75108 5.44201 8.92519V15.6849C5.44201 15.8591 5.59968 15.9999 5.79408 15.9999H8.49326C8.68766 15.9999 8.84533 15.859 8.84533 15.6849V8.92522C8.84533 8.75108 8.68766 8.61021 8.49326 8.61021H7.6131V7.77021H15.4173C15.6763 7.77021 15.8867 7.58194 15.8867 7.3502V2.20504C15.8868 1.97309 15.6763 1.78504 15.4173 1.78504Z" fill="#F3EFE9"/>
</svg>
