<svg width="12" height="14" viewBox="0 0 12 14" fill="none" xmlns="http://www.w3.org/2000/svg">
<path d="M10.5908 3.96484C10.8802 3.96484 11.0809 3.67224 10.9724 3.40391C10.587 2.45123 9.65235 1.77734 8.56314 1.77734H8.05963C7.87187 0.785504 7.00225 0 5.93814 0H5.06314C3.99972 0 3.12953 0.784984 2.94165 1.77734H2.43814C1.34893 1.77734 0.414268 2.45123 0.0289122 3.40391C-0.0796151 3.67224 0.121061 3.96484 0.410494 3.96484H10.5908ZM5.06314 0.820312H5.93814C6.53697 0.820312 7.04529 1.2232 7.21641 1.77734H3.78488C3.95599 1.2232 4.46431 0.820312 5.06314 0.820312Z" />
<path d="M1.53722 12.8569C1.58286 13.4979 2.122 14 2.76457 14H8.23663C8.87921 14 9.41835 13.4979 9.46398 12.8569L10.0388 4.78516H0.962402L1.53722 12.8569ZM6.62223 6.97952C6.63355 6.75328 6.82646 6.5788 7.05235 6.59036C7.27859 6.60168 7.45282 6.79427 7.4415 7.02048L7.22275 11.3955C7.21179 11.6147 7.03055 11.7852 6.81345 11.7852C6.57728 11.7852 6.3918 11.5877 6.40345 11.3545L6.62223 6.97952ZM3.94889 6.59036C4.17483 6.57902 4.36771 6.7533 4.379 6.97952L4.59775 11.3545C4.6094 11.5878 4.42379 11.7852 4.18776 11.7852C3.97065 11.7852 3.78942 11.6147 3.77845 11.3955L3.5597 7.02048C3.54841 6.79427 3.72264 6.60168 3.94889 6.59036Z" />
</svg>
